<svg xmlns="http://www.w3.org/2000/svg" xmlns:xlink="http://www.w3.org/1999/xlink" xmlns:inkscape="http://www.inkscape.org/namespaces/inkscape" version="1.1" width="334.0224" height="103.25859" viewBox="0 0 334.0224 103.25859">
<defs>
<path id="font_0_1" d="M.45999146 .31976319C.45999146 .39982606 .45498658 .47988893 .41999818 .5539398 .37399293 .65000918 .2919922 .6660156 .25 .6660156 .18998719 .6660156 .116989139 .64001467 .07598877 .54693606 .04399109 .47789 .038986207 .39982606 .038986207 .31976319 .038986207 .24472046 .042999269 .15464783 .083999637 .07859802 .1269989-.0024719239 .19999695-.022460938 .24899292-.022460938 .30299378-.022460938 .3789978-.0014648438 .4229889 .09359741 .45498658 .16265869 .45999146 .2407074 .45999146 .31976319M.3769989 .3317871C.3769989 .25672914 .3769989 .18867493 .3659973 .12461853 .35099793 .029556275 .2939911-.00047302247 .24899292-.00047302247 .20999146-.00047302247 .15098572 .024551392 .1329956 .12062073 .12199402 .18066406 .12199402 .2727356 .12199402 .3317871 .12199402 .39582826 .12199402 .46188355 .12998963 .5159149 .14898682 .63500979 .22399903 .64401248 .24899292 .64401248 .28199769 .64401248 .34799195 .6259918 .36698915 .52693179 .3769989 .47088624 .3769989 .39482118 .3769989 .3317871Z"/>
<path id="font_0_2" d="M.4189911 0V.0309906H.3869934C.29699708 .0309906 .2939911 .041992189 .2939911 .07902527V.64012148C.2939911 .6640167 .2939911 .6660156 .2709961 .6660156 .20899964 .60227969 .12098694 .60227969 .08898926 .60227969V.57128909C.10899353 .57128909 .16799927 .57128909 .21998596 .5972748V.07902527C.21998596 .042999269 .21699524 .0309906 .1269989 .0309906H.09498596V0C.12998963 .0029907227 .21699524 .0029907227 .25698854 .0029907227 .29699708 .0029907227 .38398744 .0029907227 .4189911 0Z"/>
<path id="font_0_3" d="M.44898988 .17396546H.42399598C.4189911 .14398194 .4119873 .099990848 .4019928 .084991458 .394989 .07699585 .32899476 .07699585 .30699159 .07699585H.1269989L.23298645 .17996216C.3889923 .31803895 .44898988 .37210084 .44898988 .47216798 .44898988 .5860901 .35899354 .6660156 .23699951 .6660156 .12399292 .6660156 .049987794 .57411196 .049987794 .48516847 .049987794 .4291687 .099990848 .4291687 .102996829 .4291687 .11999512 .4291687 .15499878 .44117738 .15499878 .48217774 .15499878 .5081787 .13699341 .5341797 .101989749 .5341797 .09399414 .5341797 .09199524 .5341797 .08898926 .5331726 .11199951 .59806826 .1659851 .63500979 .22399903 .63500979 .31498719 .63500979 .35798646 .5541382 .35798646 .47216798 .35798646 .39196778 .30799867 .31297303 .25299073 .25097657L.06098938 .036987306C.049987794 .025985718 .049987794 .023986817 .049987794 0H.42099L.44898988 .17396546Z"/>
</defs>
<path transform="matrix(1,0,0,-1,135.12181,83.723819)" stroke-width=".75" stroke-linecap="round" stroke-linejoin="round" fill="none" stroke="#000000" d="M-127.55903 0H185.79618"/>
<path transform="matrix(1,0,0,-1,135.12181,83.723819)" d="M185.79547-2.296011 191.33853 0 185.79547 2.296011V-2.296011Z"/>
<path transform="matrix(1,0,0,-1,135.12181,83.723819)" stroke-width=".75" stroke-linecap="round" stroke-linejoin="round" fill="none" stroke="#000000" d="M185.79547-2.296011 191.33853 0 185.79547 2.296011V-2.296011Z"/>
<path transform="matrix(1,0,0,-1,135.12181,83.723819)" stroke-width=".75" stroke-linecap="round" stroke-linejoin="round" fill="none" stroke="#000000" d="M0 0V70.99169"/>
<path transform="matrix(1,0,0,-1,135.12181,83.723819)" d="M2.296235 70.99181 0 76.535419-2.296235 70.99181H2.296235Z"/>
<path transform="matrix(1,0,0,-1,135.12181,83.723819)" stroke-width=".75" stroke-linecap="round" stroke-linejoin="round" fill="none" stroke="#000000" d="M2.296235 70.99181 0 76.535419-2.296235 70.99181H2.296235Z"/>
<path transform="matrix(1,0,0,-1,135.12181,83.723819)" stroke-width="1.5" stroke-linecap="round" stroke-linejoin="round" fill="none" stroke="#000099" d="M-127.55903 0H0"/>
<path transform="matrix(1,0,0,-1,135.12181,83.723819)" d="M2.25 0C2.25 .596737 2.012947 1.169033 1.59099 1.59099 1.169033 2.012947 .596737 2.25 0 2.25-.596737 2.25-1.169033 2.012947-1.59099 1.59099-2.012947 1.169033-2.25 .596737-2.25 0-2.25-.596737-2.012947-1.169033-1.59099-1.59099-1.169033-2.012947-.596737-2.25 0-2.25 .596737-2.25 1.169033-2.012947 1.59099-1.59099 2.012947-1.169033 2.25-.596737 2.25 0Z" fill="#ffffff"/>
<path transform="matrix(1,0,0,-1,135.12181,83.723819)" stroke-width=".75" stroke-linecap="round" stroke-linejoin="round" fill="none" stroke="#000099" d="M2.25 0C2.25 .596737 2.012947 1.169033 1.59099 1.59099 1.169033 2.012947 .596737 2.25 0 2.25-.596737 2.25-1.169033 2.012947-1.59099 1.59099-2.012947 1.169033-2.25 .596737-2.25 0-2.25-.596737-2.012947-1.169033-1.59099-1.59099-1.169033-2.012947-.596737-2.25 0-2.25 .596737-2.25 1.169033-2.012947 1.59099-1.59099 2.012947-1.169033 2.25-.596737 2.25 0Z"/>
<path transform="matrix(1,0,0,-1,135.12181,83.723819)" stroke-width="1.5" stroke-linecap="round" stroke-linejoin="round" fill="none" stroke="#000099" d="M0 15.944878H63.77951"/>
<path transform="matrix(1,0,0,-1,135.12181,83.723819)" d="M2.25 15.944878C2.25 16.541615 2.012947 17.113913 1.59099 17.535868 1.169033 17.957825 .596737 18.194878 0 18.194878-.596737 18.194878-1.169033 17.957825-1.59099 17.535868-2.012947 17.113913-2.25 16.541615-2.25 15.944878-2.25 15.348141-2.012947 14.775845-1.59099 14.353888-1.169033 13.931931-.596737 13.694878 0 13.694878 .596737 13.694878 1.169033 13.931931 1.59099 14.353888 2.012947 14.775845 2.25 15.348141 2.25 15.944878Z" fill="#000099"/>
<path transform="matrix(1,0,0,-1,135.12181,83.723819)" d="M66.02951 15.944878C66.02951 16.541615 65.79246 17.113913 65.37051 17.535868 64.94855 17.957825 64.37625 18.194878 63.77951 18.194878 63.182775 18.194878 62.610479 17.957825 62.188524 17.535868 61.766565 17.113913 61.52951 16.541615 61.52951 15.944878 61.52951 15.348141 61.766565 14.775845 62.188524 14.353888 62.610479 13.931931 63.182775 13.694878 63.77951 13.694878 64.37625 13.694878 64.94855 13.931931 65.37051 14.353888 65.79246 14.775845 66.02951 15.348141 66.02951 15.944878Z" fill="#ffffff"/>
<path transform="matrix(1,0,0,-1,135.12181,83.723819)" stroke-width=".75" stroke-linecap="round" stroke-linejoin="round" fill="none" stroke="#000099" d="M66.02951 15.944878C66.02951 16.541615 65.79246 17.113913 65.37051 17.535868 64.94855 17.957825 64.37625 18.194878 63.77951 18.194878 63.182775 18.194878 62.610479 17.957825 62.188524 17.535868 61.766565 17.113913 61.52951 16.541615 61.52951 15.944878 61.52951 15.348141 61.766565 14.775845 62.188524 14.353888 62.610479 13.931931 63.182775 13.694878 63.77951 13.694878 64.37625 13.694878 64.94855 13.931931 65.37051 14.353888 65.79246 14.775845 66.02951 15.348141 66.02951 15.944878Z"/>
<path transform="matrix(1,0,0,-1,135.12181,83.723819)" stroke-width="1.5" stroke-linecap="round" stroke-linejoin="round" fill="none" stroke="#000099" d="M63.77951 47.834634H127.55903"/>
<path transform="matrix(1,0,0,-1,135.12181,83.723819)" d="M66.02951 47.834634C66.02951 48.43137 65.79246 49.00367 65.37051 49.425626 64.94855 49.84758 64.37625 50.084634 63.77951 50.084634 63.182775 50.084634 62.610479 49.84758 62.188524 49.425626 61.766565 49.00367 61.52951 48.43137 61.52951 47.834634 61.52951 47.237897 61.766565 46.6656 62.188524 46.243646 62.610479 45.821687 63.182775 45.584634 63.77951 45.584634 64.37625 45.584634 64.94855 45.821687 65.37051 46.243646 65.79246 46.6656 66.02951 47.237897 66.02951 47.834634Z" fill="#000099"/>
<path transform="matrix(1,0,0,-1,135.12181,83.723819)" d="M129.80902 47.834634C129.80902 48.43137 129.57198 49.00367 129.15001 49.425626 128.72806 49.84758 128.15576 50.084634 127.55903 50.084634 126.96229 50.084634 126.38999 49.84758 125.96803 49.425626 125.54608 49.00367 125.30903 48.43137 125.30903 47.834634 125.30903 47.237897 125.54608 46.6656 125.96803 46.243646 126.38999 45.821687 126.96229 45.584634 127.55903 45.584634 128.15576 45.584634 128.72806 45.821687 129.15001 46.243646 129.57198 46.6656 129.80902 47.237897 129.80902 47.834634Z" fill="#ffffff"/>
<path transform="matrix(1,0,0,-1,135.12181,83.723819)" stroke-width=".75" stroke-linecap="round" stroke-linejoin="round" fill="none" stroke="#000099" d="M129.80902 47.834634C129.80902 48.43137 129.57198 49.00367 129.15001 49.425626 128.72806 49.84758 128.15576 50.084634 127.55903 50.084634 126.96229 50.084634 126.38999 49.84758 125.96803 49.425626 125.54608 49.00367 125.30903 48.43137 125.30903 47.834634 125.30903 47.237897 125.54608 46.6656 125.96803 46.243646 126.38999 45.821687 126.96229 45.584634 127.55903 45.584634 128.15576 45.584634 128.72806 45.821687 129.15001 46.243646 129.57198 46.6656 129.80902 47.237897 129.80902 47.834634Z"/>
<path transform="matrix(1,0,0,-1,135.12181,83.723819)" stroke-width="1.5" stroke-linecap="round" stroke-linejoin="round" fill="none" stroke="#000099" d="M127.55903 63.77951H191.33853"/>
<path transform="matrix(1,0,0,-1,135.12181,83.723819)" d="M129.80902 63.77951C129.80902 64.37625 129.57198 64.94855 129.15001 65.37051 128.72806 65.79246 128.15576 66.02951 127.55903 66.02951 126.96229 66.02951 126.38999 65.79246 125.96803 65.37051 125.54608 64.94855 125.30903 64.37625 125.30903 63.77951 125.30903 63.182775 125.54608 62.610479 125.96803 62.188524 126.38999 61.766565 126.96229 61.52951 127.55903 61.52951 128.15576 61.52951 128.72806 61.766565 129.15001 62.188524 129.57198 62.610479 129.80902 63.182775 129.80902 63.77951Z" fill="#000099"/>
<use data-text="0" xlink:href="#font_0_1" transform="matrix(11.955144,0,0,-11.955191,132.1347,96.181438)"/>
<use data-text="1" xlink:href="#font_0_2" transform="matrix(11.955144,0,0,-11.95516,195.91347,96.18143)"/>
<use data-text="2" xlink:href="#font_0_3" transform="matrix(11.955144,0,0,-11.95516,259.69224,96.18143)"/>
</svg>
