<svg xmlns="http://www.w3.org/2000/svg" xmlns:xlink="http://www.w3.org/1999/xlink" xmlns:inkscape="http://www.inkscape.org/namespaces/inkscape" version="1.1" width="270.24363" height="100.52239" viewBox="0 0 270.24363 100.52239">
<defs>
<path id="font_1_4" d="M.4149933 .119140628C.4149933 .12911988 .40499879 .12911988 .4019928 .12911988 .3929901 .12911988 .3909912 .12512207 .3889923 .119140628 .3600006 .026229859 .29499818 .014251709 .2579956 .014251709 .20498657 .014251709 .116989139 .0572052 .116989139 .21801758 .116989139 .38093568 .19898987 .42323304 .2519989 .42323304 .26098634 .42323304 .32398988 .42222596 .35899354 .38594056 .31799317 .38293458 .31199647 .3529358 .31199647 .3399353 .31199647 .31393434 .32998658 .2939453 .35798646 .2939453 .38398744 .2939453 .4039917 .3109436 .4039917 .34094239 .4039917 .40911866 .32798768 .4482422 .25099183 .4482422 .12599182 .4482422 .033996583 .3399353 .033996583 .21601868 .033996583 .08816528 .1329956-.0107421879 .24899292-.0107421879 .3829956-.0107421879 .4149933 .10914612 .4149933 .119140628Z"/>
</defs>
<path transform="matrix(1,0,0,-1,135.12181,83.723819)" stroke-width=".75" stroke-linecap="round" stroke-linejoin="round" fill="none" stroke="#000000" d="M-127.55903 0H122.015689"/>
<path transform="matrix(1,0,0,-1,135.12181,83.723819)" d="M122.01327-2.297129 127.55903 0 122.01327 2.297129V-2.297129Z"/>
<path transform="matrix(1,0,0,-1,135.12181,83.723819)" stroke-width=".75" stroke-linecap="round" stroke-linejoin="round" fill="none" stroke="#000000" d="M122.01327-2.297129 127.55903 0 122.01327 2.297129V-2.297129Z"/>
<path transform="matrix(1,0,0,-1,135.12181,83.723819)" stroke-width=".75" stroke-linecap="round" stroke-linejoin="round" fill="none" stroke="#000000" d="M0 0V70.99169"/>
<path transform="matrix(1,0,0,-1,135.12181,83.723819)" d="M2.296235 70.99181 0 76.535419-2.296235 70.99181H2.296235Z"/>
<path transform="matrix(1,0,0,-1,135.12181,83.723819)" stroke-width=".75" stroke-linecap="round" stroke-linejoin="round" fill="none" stroke="#000000" d="M2.296235 70.99181 0 76.535419-2.296235 70.99181H2.296235Z"/>
<path transform="matrix(1,0,0,-1,135.12181,83.723819)" stroke-width="1.5" stroke-linecap="round" stroke-linejoin="round" fill="none" stroke="#000099" d="M-127.55903 0H51.02361"/>
<path transform="matrix(1,0,0,-1,135.12181,83.723819)" d="M53.27361 0C53.27361 .596737 53.036558 1.169033 52.6146 1.59099 52.192644 2.012947 51.620347 2.25 51.02361 2.25 50.426874 2.25 49.854578 2.012947 49.43262 1.59099 49.010663 1.169033 48.77361 .596737 48.77361 0 48.77361-.596737 49.010663-1.169033 49.43262-1.59099 49.854578-2.012947 50.426874-2.25 51.02361-2.25 51.620347-2.25 52.192644-2.012947 52.6146-1.59099 53.036558-1.169033 53.27361-.596737 53.27361 0Z" fill="#ffffff"/>
<path transform="matrix(1,0,0,-1,135.12181,83.723819)" stroke-width=".75" stroke-linecap="round" stroke-linejoin="round" fill="none" stroke="#000099" d="M53.27361 0C53.27361 .596737 53.036558 1.169033 52.6146 1.59099 52.192644 2.012947 51.620347 2.25 51.02361 2.25 50.426874 2.25 49.854578 2.012947 49.43262 1.59099 49.010663 1.169033 48.77361 .596737 48.77361 0 48.77361-.596737 49.010663-1.169033 49.43262-1.59099 49.854578-2.012947 50.426874-2.25 51.02361-2.25 51.620347-2.25 52.192644-2.012947 52.6146-1.59099 53.036558-1.169033 53.27361-.596737 53.27361 0Z"/>
<path transform="matrix(1,0,0,-1,135.12181,83.723819)" stroke-width="1.5" stroke-linecap="round" stroke-linejoin="round" fill="none" stroke="#000099" d="M51.02361 63.77951H127.55903"/>
<path transform="matrix(1,0,0,-1,135.12181,83.723819)" d="M53.27361 63.77951C53.27361 64.37625 53.036558 64.94855 52.6146 65.37051 52.192644 65.79246 51.620347 66.02951 51.02361 66.02951 50.426874 66.02951 49.854578 65.79246 49.43262 65.37051 49.010663 64.94855 48.77361 64.37625 48.77361 63.77951 48.77361 63.182775 49.010663 62.610479 49.43262 62.188524 49.854578 61.766565 50.426874 61.52951 51.02361 61.52951 51.620347 61.52951 52.192644 61.766565 52.6146 62.188524 53.036558 62.610479 53.27361 63.182775 53.27361 63.77951Z" fill="#000099"/>
<use data-text="c" xlink:href="#font_1_4" transform="matrix(11.955183,0,0,-11.955181,183.49225,93.57667)"/>
</svg>
