<svg xmlns="http://www.w3.org/2000/svg" xmlns:xlink="http://www.w3.org/1999/xlink" xmlns:inkscape="http://www.inkscape.org/namespaces/inkscape" version="1.1" width="270.52549" height="99.23321" viewBox="0 0 270.52549 99.23321">
<defs>
<path id="font_2_4" d="M.4149933 .119140628C.4149933 .12911988 .40499879 .12911988 .4019928 .12911988 .3929901 .12911988 .3909912 .12512207 .3889923 .119140628 .3600006 .026229859 .29499818 .014251709 .2579956 .014251709 .20498657 .014251709 .116989139 .0572052 .116989139 .21801758 .116989139 .38093568 .19898987 .42323304 .2519989 .42323304 .26098634 .42323304 .32398988 .42222596 .35899354 .38594056 .31799317 .38293458 .31199647 .3529358 .31199647 .3399353 .31199647 .31393434 .32998658 .2939453 .35798646 .2939453 .38398744 .2939453 .4039917 .3109436 .4039917 .34094239 .4039917 .40911866 .32798768 .4482422 .25099183 .4482422 .12599182 .4482422 .033996583 .3399353 .033996583 .21601868 .033996583 .08816528 .1329956-.0107421879 .24899292-.0107421879 .3829956-.0107421879 .4149933 .10914612 .4149933 .119140628Z"/>
<path id="font_3_4" d="M.4189911 0V.0309906H.3869934C.29699708 .0309906 .2939911 .041992189 .2939911 .07902527V.64027407C.2939911 .6642761 .2939911 .666275 .2709961 .666275 .20899964 .60227969 .12098694 .60227969 .08898926 .60227969V.57128909C.10899353 .57128909 .16799927 .57128909 .21998596 .5972748V.07902527C.21998596 .042999269 .21699524 .0309906 .1269989 .0309906H.09498596V0C.12998963 .0029907227 .21699524 .0029907227 .25698854 .0029907227 .29699708 .0029907227 .38398744 .0029907227 .4189911 0Z"/>
</defs>
<path transform="matrix(1,0,0,-1,135.88074,82.43463)" stroke-width=".75" stroke-linecap="round" stroke-linejoin="round" fill="none" stroke="#000000" d="M-127.55903 0 120.91171 .850769"/>
<path transform="matrix(1,0,0,-1,135.88074,82.43463)" d="M120.91893-1.445314 126.4543 .869747 120.903209 3.146848 120.91893-1.445314Z"/>
<path transform="matrix(1,0,0,-1,135.88074,82.43463)" stroke-width=".75" stroke-linecap="round" stroke-linejoin="round" fill="none" stroke="#000000" d="M120.91893-1.445314 126.4543 .869747 120.903209 3.146848 120.91893-1.445314Z"/>
<path transform="matrix(1,0,0,-1,135.88074,82.43463)" stroke-width=".75" stroke-linecap="round" stroke-linejoin="round" fill="none" stroke="#000000" d="M0 0 .515649 69.70287"/>
<path transform="matrix(1,0,0,-1,135.88074,82.43463)" d="M2.81187 69.68566 .556658 75.24622-1.780574 69.71964 2.81187 69.68566Z"/>
<path transform="matrix(1,0,0,-1,135.88074,82.43463)" stroke-width=".75" stroke-linecap="round" stroke-linejoin="round" fill="none" stroke="#000000" d="M2.81187 69.68566 .556658 75.24622-1.780574 69.71964 2.81187 69.68566Z"/>
<path transform="matrix(1,0,0,-1,135.88074,82.43463)" stroke-width="1.5" stroke-linecap="round" stroke-linejoin="round" fill="none" stroke="#000099" d="M-128.31795-.442948C-68.547519-.30005-9.188934 .035516 51.78387 .152779"/>
<path transform="matrix(1,0,0,-1,135.88074,82.43463)" d="M53.27361 0C53.27361 .596737 53.036558 1.169033 52.6146 1.59099 52.192644 2.012947 51.620347 2.25 51.02361 2.25 50.426874 2.25 49.854578 2.012947 49.43262 1.59099 49.010663 1.169033 48.77361 .596737 48.77361 0 48.77361-.596737 49.010663-1.169033 49.43262-1.59099 49.854578-2.012947 50.426874-2.25 51.02361-2.25 51.620347-2.25 52.192644-2.012947 52.6146-1.59099 53.036558-1.169033 53.27361-.596737 53.27361 0Z" fill="#ffffff"/>
<path transform="matrix(1,0,0,-1,135.88074,82.43463)" stroke-width=".75" stroke-linecap="round" stroke-linejoin="round" fill="none" stroke="#000099" d="M53.27361 0C53.27361 .596737 53.036558 1.169033 52.6146 1.59099 52.192644 2.012947 51.620347 2.25 51.02361 2.25 50.426874 2.25 49.854578 2.012947 49.43262 1.59099 49.010663 1.169033 48.77361 .596737 48.77361 0 48.77361-.596737 49.010663-1.169033 49.43262-1.59099 49.854578-2.012947 50.426874-2.25 51.02361-2.25 51.620347-2.25 52.192644-2.012947 52.6146-1.59099 53.036558-1.169033 53.27361-.596737 53.27361 0Z"/>
<path transform="matrix(1,0,0,-1,135.88074,82.43463)" stroke-width="1.5" stroke-linecap="round" stroke-linejoin="round" fill="none" stroke="#000099" d="M51.55683 64.01276C76.2916 63.757566 102.44688 63.77992 127.08194 63.062936"/>
<path transform="matrix(1,0,0,-1,135.88074,82.43463)" d="M53.27361 63.77951C53.27361 64.37625 53.036558 64.94855 52.6146 65.37051 52.192644 65.79246 51.620347 66.02951 51.02361 66.02951 50.426874 66.02951 49.854578 65.79246 49.43262 65.37051 49.010663 64.94855 48.77361 64.37625 48.77361 63.77951 48.77361 63.182775 49.010663 62.610479 49.43262 62.188524 49.854578 61.766565 50.426874 61.52951 51.02361 61.52951 51.620347 61.52951 52.192644 61.766565 52.6146 62.188524 53.036558 62.610479 53.27361 63.182775 53.27361 63.77951Z" fill="#000099"/>
<use data-text="c" xlink:href="#font_2_4" transform="matrix(11.955183,0,0,-11.955181,184.25119,92.28748)"/>
<path transform="matrix(1,0,0,-1,135.88074,82.43463)" stroke-width=".75" stroke-linecap="round" stroke-linejoin="round" fill="none" stroke="#000000" d="M-4.5 63.77951H4.5"/>
<use data-text="1" xlink:href="#font_3_4" transform="matrix(11.955144,0,0,-11.95516,123.906589,22.63469)"/>
</svg>
