<svg xmlns="http://www.w3.org/2000/svg" xmlns:xlink="http://www.w3.org/1999/xlink" xmlns:inkscape="http://www.inkscape.org/namespaces/inkscape" version="1.1" width="270.53758" height="103.37026" viewBox="0 0 270.53758 103.37026">
<defs>
<path id="font_4_1" d="M.45999146 .31976319C.45999146 .39982606 .45498658 .47988893 .41999818 .5539398 .37399293 .65000918 .2919922 .6660156 .25 .6660156 .18998719 .6660156 .116989139 .64001467 .07598877 .54693606 .04399109 .47789 .038986207 .39982606 .038986207 .31976319 .038986207 .24472046 .042999269 .15464783 .083999637 .07859802 .1269989-.0024719239 .19999695-.022460938 .24899292-.022460938 .30299378-.022460938 .3789978-.0014648438 .4229889 .09359741 .45498658 .16265869 .45999146 .2407074 .45999146 .31976319M.3769989 .3317871C.3769989 .25672914 .3769989 .18867493 .3659973 .12461853 .35099793 .029556275 .2939911-.00047302247 .24899292-.00047302247 .20999146-.00047302247 .15098572 .024551392 .1329956 .12062073 .12199402 .18066406 .12199402 .2727356 .12199402 .3317871 .12199402 .39582826 .12199402 .46188355 .12998963 .5159149 .14898682 .63500979 .22399903 .64401248 .24899292 .64401248 .28199769 .64401248 .34799195 .6259918 .36698915 .52693179 .3769989 .47088624 .3769989 .39482118 .3769989 .3317871Z"/>
<path id="font_4_2" d="M.4189911 0V.0309906H.3869934C.29699708 .0309906 .2939911 .041992189 .2939911 .07902527V.64012148C.2939911 .6640167 .2939911 .6660156 .2709961 .6660156 .20899964 .60227969 .12098694 .60227969 .08898926 .60227969V.57128909C.10899353 .57128909 .16799927 .57128909 .21998596 .5972748V.07902527C.21998596 .042999269 .21699524 .0309906 .1269989 .0309906H.09498596V0C.12998963 .0029907227 .21699524 .0029907227 .25698854 .0029907227 .29699708 .0029907227 .38398744 .0029907227 .4189911 0Z"/>
<path id="font_4_5" d="M.5209961 .21636963C.5209961 .34336854 .42399598 .4423828 .31199647 .4423828 .23399353 .4423828 .19198609 .39837647 .17199707 .3763733V.4423828L.027999878 .43066407V.3996582C.09899902 .3996582 .10598755 .3936615 .10598755 .34973146V-.117996219C.10598755-.16308594 .09498596-.16308594 .027999878-.16308594V-.1940918L.13999939-.19110108 .25299073-.1940918V-.16308594C.18598938-.16308594 .1749878-.16308594 .1749878-.117996219V.050186159 .059173585C.17999268 .04319763 .22200012-.0107421879 .2979889-.0107421879 .4169922-.0107421879 .5209961 .087127689 .5209961 .21594239V.21636963M.43798829 .21594239C.43798829 .09512329 .36799623 .011245728 .2939911 .011245728 .2539978 .011245728 .21598816 .031219483 .18899536 .07215881 .1749878 .09312439 .1749878 .09411621 .1749878 .114089969V.33674623C.20399475 .38838197 .25299073 .41737367 .3039856 .41737367 .3769989 .41737367 .43798829 .32937623 .43798829 .21636963V.21594239Z"/>
<path id="font_5_4" d="M.4189911 0V.0309906H.3869934C.29699708 .0309906 .2939911 .041992189 .2939911 .07902527V.64027407C.2939911 .6642761 .2939911 .666275 .2709961 .666275 .20899964 .60227969 .12098694 .60227969 .08898926 .60227969V.57128909C.10899353 .57128909 .16799927 .57128909 .21998596 .5972748V.07902527C.21998596 .042999269 .21699524 .0309906 .1269989 .0309906H.09498596V0C.12998963 .0029907227 .21699524 .0029907227 .25698854 .0029907227 .29699708 .0029907227 .38398744 .0029907227 .4189911 0Z"/>
</defs>
<path transform="matrix(1,0,0,-1,134.74683,83.83549)" stroke-width=".75" stroke-linecap="round" stroke-linejoin="round" fill="none" stroke="#000000" d="M-127.55903 0 122.05616 .037847"/>
<path transform="matrix(1,0,0,-1,134.74683,83.83549)" d="M122.05768-2.258164 127.600399 .038687 122.056987 2.333858 122.05768-2.258164Z"/>
<path transform="matrix(1,0,0,-1,134.74683,83.83549)" stroke-width=".75" stroke-linecap="round" stroke-linejoin="round" fill="none" stroke="#000000" d="M122.05768-2.258164 127.600399 .038687 122.056987 2.333858 122.05768-2.258164Z"/>
<path transform="matrix(1,0,0,-1,134.74683,83.83549)" stroke-width=".75" stroke-linecap="round" stroke-linejoin="round" fill="none" stroke="#000000" d="M0 0 .457961 71.10346"/>
<path transform="matrix(1,0,0,-1,134.74683,83.83549)" d="M2.753969 71.08926 .493666 76.647098-1.83804 71.118839 2.753969 71.08926Z"/>
<path transform="matrix(1,0,0,-1,134.74683,83.83549)" stroke-width=".75" stroke-linecap="round" stroke-linejoin="round" fill="none" stroke="#000000" d="M2.753969 71.08926 .493666 76.647098-1.83804 71.118839 2.753969 71.08926Z"/>
<path transform="matrix(1,0,0,-1,134.74683,83.83549)" stroke-width="1.5" stroke-linecap="round" stroke-linejoin="round" fill="none" stroke="#000099" d="M-127.04324 .434203C-84.90037-.734735-43.272298 .408799 .142733-.274694"/>
<path transform="matrix(1,0,0,-1,134.74683,83.83549)" d="M2.25 0C2.25 .596737 2.012947 1.169033 1.59099 1.59099 1.169033 2.012947 .596737 2.25 0 2.25-.596737 2.25-1.169033 2.012947-1.59099 1.59099-2.012947 1.169033-2.25 .596737-2.25 0-2.25-.596737-2.012947-1.169033-1.59099-1.59099-1.169033-2.012947-.596737-2.25 0-2.25 .596737-2.25 1.169033-2.012947 1.59099-1.59099 2.012947-1.169033 2.25-.596737 2.25 0Z" fill="#ffffff"/>
<path transform="matrix(1,0,0,-1,134.74683,83.83549)" stroke-width=".75" stroke-linecap="round" stroke-linejoin="round" fill="none" stroke="#000099" d="M2.25 0C2.25 .596737 2.012947 1.169033 1.59099 1.59099 1.169033 2.012947 .596737 2.25 0 2.25-.596737 2.25-1.169033 2.012947-1.59099 1.59099-2.012947 1.169033-2.25 .596737-2.25 0-2.25-.596737-2.012947-1.169033-1.59099-1.59099-1.169033-2.012947-.596737-2.25 0-2.25 .596737-2.25 1.169033-2.012947 1.59099-1.59099 2.012947-1.169033 2.25-.596737 2.25 0Z"/>
<path transform="matrix(1,0,0,-1,134.74683,83.83549)" stroke-width="1.5" stroke-linecap="round" stroke-linejoin="round" fill="none" stroke="#000099" d="M.150307 15.552451C20.886319 15.822994 41.817365 16.043627 63.3008 15.877502"/>
<path transform="matrix(1,0,0,-1,134.74683,83.83549)" d="M2.25 15.944878C2.25 16.541615 2.012947 17.113913 1.59099 17.535868 1.169033 17.957825 .596737 18.194878 0 18.194878-.596737 18.194878-1.169033 17.957825-1.59099 17.535868-2.012947 17.113913-2.25 16.541615-2.25 15.944878-2.25 15.348141-2.012947 14.775845-1.59099 14.353888-1.169033 13.931931-.596737 13.694878 0 13.694878 .596737 13.694878 1.169033 13.931931 1.59099 14.353888 2.012947 14.775845 2.25 15.348141 2.25 15.944878Z" fill="#000099"/>
<path transform="matrix(1,0,0,-1,134.74683,83.83549)" d="M66.02951 15.944878C66.02951 16.541615 65.79246 17.113913 65.37051 17.535868 64.94855 17.957825 64.37625 18.194878 63.77951 18.194878 63.182775 18.194878 62.610479 17.957825 62.188524 17.535868 61.766565 17.113913 61.52951 16.541615 61.52951 15.944878 61.52951 15.348141 61.766565 14.775845 62.188524 14.353888 62.610479 13.931931 63.182775 13.694878 63.77951 13.694878 64.37625 13.694878 64.94855 13.931931 65.37051 14.353888 65.79246 14.775845 66.02951 15.348141 66.02951 15.944878Z" fill="#ffffff"/>
<path transform="matrix(1,0,0,-1,134.74683,83.83549)" stroke-width=".75" stroke-linecap="round" stroke-linejoin="round" fill="none" stroke="#000099" d="M66.02951 15.944878C66.02951 16.541615 65.79246 17.113913 65.37051 17.535868 64.94855 17.957825 64.37625 18.194878 63.77951 18.194878 63.182775 18.194878 62.610479 17.957825 62.188524 17.535868 61.766565 17.113913 61.52951 16.541615 61.52951 15.944878 61.52951 15.348141 61.766565 14.775845 62.188524 14.353888 62.610479 13.931931 63.182775 13.694878 63.77951 13.694878 64.37625 13.694878 64.94855 13.931931 65.37051 14.353888 65.79246 14.775845 66.02951 15.348141 66.02951 15.944878Z"/>
<path transform="matrix(1,0,0,-1,134.74683,83.83549)" stroke-width="1.5" stroke-linecap="round" stroke-linejoin="round" fill="none" stroke="#000099" d="M63.449865 64.02411C85.204547 64.36561 106.08562 63.504926 128.22795 63.20026"/>
<path transform="matrix(1,0,0,-1,134.74683,83.83549)" d="M66.02951 63.77951C66.02951 64.37625 65.79246 64.94855 65.37051 65.37051 64.94855 65.79246 64.37625 66.02951 63.77951 66.02951 63.182775 66.02951 62.610479 65.79246 62.188524 65.37051 61.766565 64.94855 61.52951 64.37625 61.52951 63.77951 61.52951 63.182775 61.766565 62.610479 62.188524 62.188524 62.610479 61.766565 63.182775 61.52951 63.77951 61.52951 64.37625 61.52951 64.94855 61.766565 65.37051 62.188524 65.79246 62.610479 66.02951 63.182775 66.02951 63.77951Z" fill="#000099"/>
<use data-text="0" xlink:href="#font_4_1" transform="matrix(11.955144,0,0,-11.955191,131.75972,96.293109)"/>
<use data-text="1" xlink:href="#font_4_2" transform="matrix(11.955144,0,0,-11.95516,195.53849,96.293109)"/>
<path transform="matrix(1,0,0,-1,134.74683,83.83549)" stroke-width=".75" stroke-linecap="round" stroke-linejoin="round" fill="none" stroke="#000000" d="M-4.5 15.944878H4.5"/>
<use data-text="p" xlink:href="#font_4_5" transform="matrix(11.955152,0,0,-11.955144,122.10356,69.37239)"/>
<path transform="matrix(1,0,0,-1,134.74683,83.83548)" stroke-width=".75" stroke-linecap="round" stroke-linejoin="round" fill="none" stroke="#000000" d="M-4.5 63.77951H4.5"/>
<use data-text="1" xlink:href="#font_5_4" transform="matrix(11.955144,0,0,-11.95516,122.772678,24.035553)"/>
</svg>
