<svg xmlns="http://www.w3.org/2000/svg" xmlns:xlink="http://www.w3.org/1999/xlink" xmlns:inkscape="http://www.inkscape.org/namespaces/inkscape" version="1.1" width="270.62928" height="103.92547" viewBox="0 0 270.62928 103.92547">
<defs>
<path id="font_6_6" d="M.27598573 .18710327V.24511719H.010986328V.18710327H.27598573Z"/>
<path id="font_6_2" d="M.4189911 0V.0309906H.3869934C.29699708 .0309906 .2939911 .041992189 .2939911 .07902527V.64012148C.2939911 .6640167 .2939911 .6660156 .2709961 .6660156 .20899964 .60227969 .12098694 .60227969 .08898926 .60227969V.57128909C.10899353 .57128909 .16799927 .57128909 .21998596 .5972748V.07902527C.21998596 .042999269 .21699524 .0309906 .1269989 .0309906H.09498596V0C.12998963 .0029907227 .21699524 .0029907227 .25698854 .0029907227 .29699708 .0029907227 .38398744 .0029907227 .4189911 0Z"/>
</defs>
<path transform="matrix(1,0,0,-1,135.67726,84.653568)" stroke-width=".75" stroke-linecap="round" stroke-linejoin="round" fill="none" stroke="#000000" d="M-127.55903 0 120.55992-.790471"/>
<path transform="matrix(1,0,0,-1,135.67726,84.653568)" d="M120.55255-3.086334 126.10258-.808129 120.567188 1.505393 120.55255-3.086334Z"/>
<path transform="matrix(1,0,0,-1,135.67726,84.653568)" stroke-width=".75" stroke-linecap="round" stroke-linejoin="round" fill="none" stroke="#000000" d="M120.55255-3.086334 126.10258-.808129 120.567188 1.505393 120.55255-3.086334Z"/>
<path transform="matrix(1,0,0,-1,135.67726,84.653568)" stroke-width=".75" stroke-linecap="round" stroke-linejoin="round" fill="none" stroke="#000000" d="M0 0 .877141 71.921489"/>
<path transform="matrix(1,0,0,-1,135.67726,84.653568)" d="M3.173232 71.89394 .944751 77.46518-1.418938 71.94994 3.173232 71.89394Z"/>
<path transform="matrix(1,0,0,-1,135.67726,84.653568)" stroke-width=".75" stroke-linecap="round" stroke-linejoin="round" fill="none" stroke="#000000" d="M3.173232 71.89394 .944751 77.46518-1.418938 71.94994 3.173232 71.89394Z"/>
<path transform="matrix(1,0,0,-1,135.67726,84.653568)" stroke-width="1.5" stroke-linecap="round" stroke-linejoin="round" fill="none" stroke="#000099" d="M-128.11447 .031093C-127.651599-.470612-63.847387-.467916-64.315059-.062676-21.784482 20.665125 21.3656 42.461248 63.475919 63.38631 64.40669 63.41336 127.63914 63.58739 127.38844 63.167844"/>
<use data-text="-" xlink:href="#font_6_6" transform="matrix(11.955202,0,0,-11.95516,66.92196,97.11118)"/>
<use data-text="1" xlink:href="#font_6_2" transform="matrix(11.955202,0,0,-11.95516,70.90304,97.11118)"/>
<use data-text="1" xlink:href="#font_6_2" transform="matrix(11.955144,0,0,-11.95516,196.46892,97.11118)"/>
<path transform="matrix(1,0,0,-1,135.67726,84.653568)" stroke-width=".75" stroke-linecap="round" stroke-linejoin="round" fill="none" stroke="#000000" d="M-4.5 63.77951H4.5"/>
<use data-text="1" xlink:href="#font_6_2" transform="matrix(11.955144,0,0,-11.95516,123.70311,24.85363)"/>
</svg>
