<svg xmlns="http://www.w3.org/2000/svg" xmlns:xlink="http://www.w3.org/1999/xlink" xmlns:inkscape="http://www.inkscape.org/namespaces/inkscape" version="1.1" width="270.24363" height="103.25859" viewBox="0 0 270.24363 103.25859">
<defs>
<path id="font_4_1" d="M.45999146 .31976319C.45999146 .39982606 .45498658 .47988893 .41999818 .5539398 .37399293 .65000918 .2919922 .6660156 .25 .6660156 .18998719 .6660156 .116989139 .64001467 .07598877 .54693606 .04399109 .47789 .038986207 .39982606 .038986207 .31976319 .038986207 .24472046 .042999269 .15464783 .083999637 .07859802 .1269989-.0024719239 .19999695-.022460938 .24899292-.022460938 .30299378-.022460938 .3789978-.0014648438 .4229889 .09359741 .45498658 .16265869 .45999146 .2407074 .45999146 .31976319M.3769989 .3317871C.3769989 .25672914 .3769989 .18867493 .3659973 .12461853 .35099793 .029556275 .2939911-.00047302247 .24899292-.00047302247 .20999146-.00047302247 .15098572 .024551392 .1329956 .12062073 .12199402 .18066406 .12199402 .2727356 .12199402 .3317871 .12199402 .39582826 .12199402 .46188355 .12998963 .5159149 .14898682 .63500979 .22399903 .64401248 .24899292 .64401248 .28199769 .64401248 .34799195 .6259918 .36698915 .52693179 .3769989 .47088624 .3769989 .39482118 .3769989 .3317871Z"/>
<path id="font_4_2" d="M.4189911 0V.0309906H.3869934C.29699708 .0309906 .2939911 .041992189 .2939911 .07902527V.64012148C.2939911 .6640167 .2939911 .6660156 .2709961 .6660156 .20899964 .60227969 .12098694 .60227969 .08898926 .60227969V.57128909C.10899353 .57128909 .16799927 .57128909 .21998596 .5972748V.07902527C.21998596 .042999269 .21699524 .0309906 .1269989 .0309906H.09498596V0C.12998963 .0029907227 .21699524 .0029907227 .25698854 .0029907227 .29699708 .0029907227 .38398744 .0029907227 .4189911 0Z"/>
<path id="font_5_1" d="M.47299195 0V.035995485H.43499757C.33499146 .035995485 .33499146 .048980714 .33499146 .081954959V.63560488C.33499146 .66259768 .33299256 .66360476 .30499269 .66360476 .24099732 .6006012 .1499939 .5996094 .10899353 .5996094V.56359866C.1329956 .56359866 .19898987 .56359866 .2539978 .5915985V.081954959C.2539978 .048980714 .2539978 .035995485 .1539917 .035995485H.115997318V0L.2939911 .0039978029 .47299195 0Z"/>
<path id="font_5_2" d="M.5289917 .1640625V.20005799H.41799928V.6460571C.41799928 .6670532 .41799928 .674057 .3959961 .674057 .38398744 .674057 .37998963 .674057 .36999513 .66004946L.038986207 .20005799V.1640625H.33299256V.08201599C.33299256 .04800415 .33299256 .035995485 .2519989 .035995485H.22499085V0L.375 .0039978029 .526001 0V.035995485H.49899293C.41799928 .035995485 .41799928 .04800415 .41799928 .08201599V.1640625H.5289917M.33999635 .20005799H.07598877L.33999635 .5660553V.20005799Z"/>
<path id="font_5_3" d="M.4189911 0V.0309906H.3869934C.29699708 .0309906 .2939911 .041992189 .2939911 .07902527V.64027407C.2939911 .6642761 .2939911 .666275 .2709961 .666275 .20899964 .60227969 .12098694 .60227969 .08898926 .60227969V.57128909C.10899353 .57128909 .16799927 .57128909 .21998596 .5972748V.07902527C.21998596 .042999269 .21699524 .0309906 .1269989 .0309906H.09498596V0C.12998963 .0029907227 .21699524 .0029907227 .25698854 .0029907227 .29699708 .0029907227 .38398744 .0029907227 .4189911 0Z"/>
</defs>
<path transform="matrix(1,0,0,-1,135.12181,83.723819)" stroke-width=".75" stroke-linecap="round" stroke-linejoin="round" fill="none" stroke="#000000" d="M-127.55903 0H122.015689"/>
<path transform="matrix(1,0,0,-1,135.12181,83.723819)" d="M122.01327-2.297129 127.55903 0 122.01327 2.297129V-2.297129Z"/>
<path transform="matrix(1,0,0,-1,135.12181,83.723819)" stroke-width=".75" stroke-linecap="round" stroke-linejoin="round" fill="none" stroke="#000000" d="M122.01327-2.297129 127.55903 0 122.01327 2.297129V-2.297129Z"/>
<path transform="matrix(1,0,0,-1,135.12181,83.723819)" stroke-width=".75" stroke-linecap="round" stroke-linejoin="round" fill="none" stroke="#000000" d="M0 0V70.99169"/>
<path transform="matrix(1,0,0,-1,135.12181,83.723819)" d="M2.296235 70.99181 0 76.535419-2.296235 70.99181H2.296235Z"/>
<path transform="matrix(1,0,0,-1,135.12181,83.723819)" stroke-width=".75" stroke-linecap="round" stroke-linejoin="round" fill="none" stroke="#000000" d="M2.296235 70.99181 0 76.535419-2.296235 70.99181H2.296235Z"/>
<path transform="matrix(1,0,0,-1,135.12181,83.723819)" stroke-width="1.5" stroke-linecap="round" stroke-linejoin="round" fill="none" stroke="#000099" d="M-127.55903 0H-63.77951 0"/>
<path transform="matrix(1,0,0,-1,135.12181,83.723819)" d="M2.25 0C2.25 .596737 2.012947 1.169033 1.59099 1.59099 1.169033 2.012947 .596737 2.25 0 2.25-.596737 2.25-1.169033 2.012947-1.59099 1.59099-2.012947 1.169033-2.25 .596737-2.25 0-2.25-.596737-2.012947-1.169033-1.59099-1.59099-1.169033-2.012947-.596737-2.25 0-2.25 .596737-2.25 1.169033-2.012947 1.59099-1.59099 2.012947-1.169033 2.25-.596737 2.25 0Z" fill="#ffffff"/>
<path transform="matrix(1,0,0,-1,135.12181,83.723819)" stroke-width=".75" stroke-linecap="round" stroke-linejoin="round" fill="none" stroke="#000099" d="M2.25 0C2.25 .596737 2.012947 1.169033 1.59099 1.59099 1.169033 2.012947 .596737 2.25 0 2.25-.596737 2.25-1.169033 2.012947-1.59099 1.59099-2.012947 1.169033-2.25 .596737-2.25 0-2.25-.596737-2.012947-1.169033-1.59099-1.59099-1.169033-2.012947-.596737-2.25 0-2.25 .596737-2.25 1.169033-2.012947 1.59099-1.59099 2.012947-1.169033 2.25-.596737 2.25 0Z"/>
<path transform="matrix(1,0,0,-1,135.12181,83.723819)" stroke-width="1.5" stroke-linecap="round" stroke-linejoin="round" fill="none" stroke="#000099" d="M0 15.944878 63.77951 63.77951H127.55903"/>
<path transform="matrix(1,0,0,-1,135.12181,83.723819)" d="M2.25 15.944878C2.25 16.541615 2.012947 17.113913 1.59099 17.535868 1.169033 17.957825 .596737 18.194878 0 18.194878-.596737 18.194878-1.169033 17.957825-1.59099 17.535868-2.012947 17.113913-2.25 16.541615-2.25 15.944878-2.25 15.348141-2.012947 14.775845-1.59099 14.353888-1.169033 13.931931-.596737 13.694878 0 13.694878 .596737 13.694878 1.169033 13.931931 1.59099 14.353888 2.012947 14.775845 2.25 15.348141 2.25 15.944878Z" fill="#000099"/>
<use data-text="0" xlink:href="#font_4_1" transform="matrix(11.955144,0,0,-11.955191,132.1347,96.181438)"/>
<use data-text="1" xlink:href="#font_4_2" transform="matrix(11.955144,0,0,-11.95516,195.91347,96.18143)"/>
<path transform="matrix(1,0,0,-1,135.12181,83.723819)" stroke-width=".75" stroke-linecap="round" stroke-linejoin="round" fill="none" stroke="#000000" d="M-4.5 15.944878H4.5"/>
<use data-text="1" xlink:href="#font_5_1" transform="matrix(8.368617,0,0,-8.36866,124.36282,64.971057)"/>
<path transform="matrix(1.4999994,0,0,-1.5000072,124.36282,67.77899)" stroke-width=".318629" stroke-linecap="butt" stroke-linejoin="round" fill="none" stroke="#000000" d="M0 0H3.172749"/>
<use data-text="4" xlink:href="#font_5_2" transform="matrix(8.368617,0,0,-8.36866,124.36282,74.76896)"/>
<path transform="matrix(1,0,0,-1,135.12181,83.723819)" stroke-width=".75" stroke-linecap="round" stroke-linejoin="round" fill="none" stroke="#000000" d="M-4.5 63.77951H4.5"/>
<use data-text="1" xlink:href="#font_5_3" transform="matrix(11.955144,0,0,-11.95516,123.14766,23.92389)"/>
</svg>
