<svg xmlns="http://www.w3.org/2000/svg" xmlns:xlink="http://www.w3.org/1999/xlink" xmlns:inkscape="http://www.inkscape.org/namespaces/inkscape" version="1.1" width="270.85124" height="102.193729" viewBox="0 0 270.85124 102.193729">
<defs>
<path id="font_7_1" d="M.45999146 .31976319C.45999146 .39982606 .45498658 .47988893 .41999818 .5539398 .37399293 .65000918 .2919922 .6660156 .25 .6660156 .18998719 .6660156 .116989139 .64001467 .07598877 .54693606 .04399109 .47789 .038986207 .39982606 .038986207 .31976319 .038986207 .24472046 .042999269 .15464783 .083999637 .07859802 .1269989-.0024719239 .19999695-.022460938 .24899292-.022460938 .30299378-.022460938 .3789978-.0014648438 .4229889 .09359741 .45498658 .16265869 .45999146 .2407074 .45999146 .31976319M.3769989 .3317871C.3769989 .25672914 .3769989 .18867493 .3659973 .12461853 .35099793 .029556275 .2939911-.00047302247 .24899292-.00047302247 .20999146-.00047302247 .15098572 .024551392 .1329956 .12062073 .12199402 .18066406 .12199402 .2727356 .12199402 .3317871 .12199402 .39582826 .12199402 .46188355 .12998963 .5159149 .14898682 .63500979 .22399903 .64401248 .24899292 .64401248 .28199769 .64401248 .34799195 .6259918 .36698915 .52693179 .3769989 .47088624 .3769989 .39482118 .3769989 .3317871Z"/>
<path id="font_7_2" d="M.4189911 0V.0309906H.3869934C.29699708 .0309906 .2939911 .041992189 .2939911 .07902527V.64012148C.2939911 .6640167 .2939911 .6660156 .2709961 .6660156 .20899964 .60227969 .12098694 .60227969 .08898926 .60227969V.57128909C.10899353 .57128909 .16799927 .57128909 .21998596 .5972748V.07902527C.21998596 .042999269 .21699524 .0309906 .1269989 .0309906H.09498596V0C.12998963 .0029907227 .21699524 .0029907227 .25698854 .0029907227 .29699708 .0029907227 .38398744 .0029907227 .4189911 0Z"/>
<path id="font_8_1" d="M.47299195 0V.035995485H.43499757C.33499146 .035995485 .33499146 .048980714 .33499146 .081954959V.63560488C.33499146 .66259768 .33299256 .66360476 .30499269 .66360476 .24099732 .6006012 .1499939 .5996094 .10899353 .5996094V.56359866C.1329956 .56359866 .19898987 .56359866 .2539978 .5915985V.081954959C.2539978 .048980714 .2539978 .035995485 .1539917 .035995485H.115997318V0L.2939911 .0039978029 .47299195 0Z"/>
<path id="font_8_2" d="M.5289917 .1640625V.20005799H.41799928V.6460571C.41799928 .6670532 .41799928 .674057 .3959961 .674057 .38398744 .674057 .37998963 .674057 .36999513 .66004946L.038986207 .20005799V.1640625H.33299256V.08201599C.33299256 .04800415 .33299256 .035995485 .2519989 .035995485H.22499085V0L.375 .0039978029 .526001 0V.035995485H.49899293C.41799928 .035995485 .41799928 .04800415 .41799928 .08201599V.1640625H.5289917M.33999635 .20005799H.07598877L.33999635 .5660553V.20005799Z"/>
<path id="font_8_3" d="M.5139923 .1733551C.5139923 .25134278 .44999696 .3293152 .33999635 .35232545 .44499208 .3903656 .48298646 .46548463 .48298646 .52656558 .48298646 .6056824 .3919983 .6647339 .2809906 .6647339 .16999817 .6647339 .084991458 .6107025 .084991458 .5305786 .084991458 .496521 .10699463 .4774933 .13699341 .4774933 .16799927 .4774933 .18798828 .50053408 .18798828 .5285797 .18798828 .5576172 .16799927 .5786438 .13699341 .58065798 .17199707 .6247101 .24099732 .6357422 .27799989 .6357422 .32299806 .6357422 .38598634 .61369326 .38598634 .52656558 .38598634 .48451234 .37199403 .4384308 .34599305 .4073944 .31298829 .369339 .2849884 .36732484 .23498535 .36431886 .20999146 .36231996 .20799256 .36231996 .20298767 .36132813 .20298767 .36132813 .19299317 .35931397 .19299317 .34832765 .19299317 .33432008 .20199585 .33432008 .21899414 .33432008H.272995C.35099793 .33432008 .40699769 .28033448 .40699769 .1733551 .40699769 .04940796 .33499146 .012466431 .2769928 .012466431 .23699951 .012466431 .14898682 .0234375 .10699463 .082351688 .1539917 .084350589 .16499329 .11735535 .16499329 .13835144 .16499329 .17034912 .14099121 .19335938 .10998535 .19335938 .08198547 .19335938 .053985597 .17634583 .053985597 .13534546 .053985597 .041412355 .1579895-.01953125 .2789917-.01953125 .41799928-.01953125 .5139923 .07336426 .5139923 .1733551Z"/>
<path id="font_8_4" d="M.4189911 0V.0309906H.3869934C.29699708 .0309906 .2939911 .041992189 .2939911 .07902527V.64027407C.2939911 .6642761 .2939911 .666275 .2709961 .666275 .20899964 .60227969 .12098694 .60227969 .08898926 .60227969V.57128909C.10899353 .57128909 .16799927 .57128909 .21998596 .5972748V.07902527C.21998596 .042999269 .21699524 .0309906 .1269989 .0309906H.09498596V0C.12998963 .0029907227 .21699524 .0029907227 .25698854 .0029907227 .29699708 .0029907227 .38398744 .0029907227 .4189911 0Z"/>
</defs>
<path transform="matrix(1,0,0,-1,135.06345,82.65895)" stroke-width=".75" stroke-linecap="round" stroke-linejoin="round" fill="none" stroke="#000000" d="M-127.55903 0 120.884479-.270731"/>
<path transform="matrix(1,0,0,-1,135.06345,82.65895)" d="M120.88521-2.5666 126.43042-.276775 120.89021 2.02513 120.88521-2.5666Z"/>
<path transform="matrix(1,0,0,-1,135.06345,82.65895)" stroke-width=".75" stroke-linecap="round" stroke-linejoin="round" fill="none" stroke="#000000" d="M120.88521-2.5666 126.43042-.276775 120.89021 2.02513 120.88521-2.5666Z"/>
<path transform="matrix(1,0,0,-1,135.06345,82.65895)" stroke-width=".75" stroke-linecap="round" stroke-linejoin="round" fill="none" stroke="#000000" d="M0 0 1.008715 69.92794"/>
<path transform="matrix(1,0,0,-1,135.06345,82.65895)" d="M3.304724 69.89434 1.088667 75.470539-1.287308 69.96059 3.304724 69.89434Z"/>
<path transform="matrix(1,0,0,-1,135.06345,82.65895)" stroke-width=".75" stroke-linecap="round" stroke-linejoin="round" fill="none" stroke="#000000" d="M3.304724 69.89434 1.088667 75.470539-1.287308 69.96059 3.304724 69.89434Z"/>
<path transform="matrix(1,0,0,-1,135.06345,82.65895)" stroke-width="1.5" stroke-linecap="round" stroke-linejoin="round" fill="none" stroke="#000099" d="M-127.50064 .702456C-105.81637-.787368-84.50939 .046613-64.19728 .665674-42.5574-.509478-20.987849-.471 .637554-.388838"/>
<path transform="matrix(1,0,0,-1,135.06345,82.65895)" d="M2.25 0C2.25 .596737 2.012947 1.169033 1.59099 1.59099 1.169033 2.012947 .596737 2.25 0 2.25-.596737 2.25-1.169033 2.012947-1.59099 1.59099-2.012947 1.169033-2.25 .596737-2.25 0-2.25-.596737-2.012947-1.169033-1.59099-1.59099-1.169033-2.012947-.596737-2.25 0-2.25 .596737-2.25 1.169033-2.012947 1.59099-1.59099 2.012947-1.169033 2.25-.596737 2.25 0Z" fill="#ffffff"/>
<path transform="matrix(1,0,0,-1,135.06345,82.65895)" stroke-width=".75" stroke-linecap="round" stroke-linejoin="round" fill="none" stroke="#000099" d="M2.25 0C2.25 .596737 2.012947 1.169033 1.59099 1.59099 1.169033 2.012947 .596737 2.25 0 2.25-.596737 2.25-1.169033 2.012947-1.59099 1.59099-2.012947 1.169033-2.25 .596737-2.25 0-2.25-.596737-2.012947-1.169033-1.59099-1.59099-1.169033-2.012947-.596737-2.25 0-2.25 .596737-2.25 1.169033-2.012947 1.59099-1.59099 2.012947-1.169033 2.25-.596737 2.25 0Z"/>
<path transform="matrix(1,0,0,-1,135.06345,82.65895)" stroke-width="1.5" stroke-linecap="round" stroke-linejoin="round" fill="none" stroke="#000099" d="M-.341185 15.48013C20.609717 26.939137 43.167848 37.21717 62.98449 47.71059"/>
<path transform="matrix(1,0,0,-1,135.06345,82.65895)" d="M2.25 15.944878C2.25 16.541615 2.012947 17.113913 1.59099 17.535868 1.169033 17.957825 .596737 18.194878 0 18.194878-.596737 18.194878-1.169033 17.957825-1.59099 17.535868-2.012947 17.113913-2.25 16.541615-2.25 15.944878-2.25 15.348141-2.012947 14.775845-1.59099 14.353888-1.169033 13.931931-.596737 13.694878 0 13.694878 .596737 13.694878 1.169033 13.931931 1.59099 14.353888 2.012947 14.775845 2.25 15.348141 2.25 15.944878Z" fill="#000099"/>
<path transform="matrix(1,0,0,-1,135.06345,82.65895)" d="M66.02951 47.834634C66.02951 48.43137 65.79246 49.00367 65.37051 49.425626 64.94855 49.84758 64.37625 50.084634 63.77951 50.084634 63.182775 50.084634 62.610479 49.84758 62.188524 49.425626 61.766565 49.00367 61.52951 48.43137 61.52951 47.834634 61.52951 47.237897 61.766565 46.6656 62.188524 46.243646 62.610479 45.821687 63.182775 45.584634 63.77951 45.584634 64.37625 45.584634 64.94855 45.821687 65.37051 46.243646 65.79246 46.6656 66.02951 47.237897 66.02951 47.834634Z" fill="#ffffff"/>
<path transform="matrix(1,0,0,-1,135.06345,82.65895)" stroke-width=".75" stroke-linecap="round" stroke-linejoin="round" fill="none" stroke="#000099" d="M66.02951 47.834634C66.02951 48.43137 65.79246 49.00367 65.37051 49.425626 64.94855 49.84758 64.37625 50.084634 63.77951 50.084634 63.182775 50.084634 62.610479 49.84758 62.188524 49.425626 61.766565 49.00367 61.52951 48.43137 61.52951 47.834634 61.52951 47.237897 61.766565 46.6656 62.188524 46.243646 62.610479 45.821687 63.182775 45.584634 63.77951 45.584634 64.37625 45.584634 64.94855 45.821687 65.37051 46.243646 65.79246 46.6656 66.02951 47.237897 66.02951 47.834634Z"/>
<path transform="matrix(1,0,0,-1,135.06345,82.65895)" stroke-width="1.5" stroke-linecap="round" stroke-linejoin="round" fill="none" stroke="#000099" d="M63.02235 63.736715C85.304409 63.938409 105.77446 64.031429 126.86207 63.56613 127.0801 63.493585 128.27288 63.104616 128.22351 64.17863"/>
<path transform="matrix(1,0,0,-1,135.06345,82.65895)" d="M66.02951 63.77951C66.02951 64.37625 65.79246 64.94855 65.37051 65.37051 64.94855 65.79246 64.37625 66.02951 63.77951 66.02951 63.182775 66.02951 62.610479 65.79246 62.188524 65.37051 61.766565 64.94855 61.52951 64.37625 61.52951 63.77951 61.52951 63.182775 61.766565 62.610479 62.188524 62.188524 62.610479 61.766565 63.182775 61.52951 63.77951 61.52951 64.37625 61.52951 64.94855 61.766565 65.37051 62.188524 65.79246 62.610479 66.02951 63.182775 66.02951 63.77951Z" fill="#000099"/>
<use data-text="0" xlink:href="#font_7_1" transform="matrix(11.955144,0,0,-11.955191,132.07634,95.11657)"/>
<use data-text="1" xlink:href="#font_7_2" transform="matrix(11.955144,0,0,-11.95516,195.8551,95.11656)"/>
<path transform="matrix(1,0,0,-1,135.06345,82.65895)" stroke-width=".75" stroke-linecap="round" stroke-linejoin="round" fill="none" stroke="#000000" d="M-4.5 15.944878H4.5"/>
<use data-text="1" xlink:href="#font_8_1" transform="matrix(8.368617,0,0,-8.36866,124.30446,63.906194)"/>
<path transform="matrix(1.4999994,0,0,-1.5000072,124.30446,66.71413)" stroke-width=".318629" stroke-linecap="butt" stroke-linejoin="round" fill="none" stroke="#000000" d="M0 0H3.172749"/>
<use data-text="4" xlink:href="#font_8_2" transform="matrix(8.368617,0,0,-8.36866,124.30446,73.704097)"/>
<path transform="matrix(1,0,0,-1,135.06345,82.65895)" stroke-width=".75" stroke-linecap="round" stroke-linejoin="round" fill="none" stroke="#000000" d="M-4.5 47.834634H4.5"/>
<use data-text="3" xlink:href="#font_8_3" transform="matrix(8.368617,0,0,-8.36866,124.30446,32.016794)"/>
<path transform="matrix(1.4999994,0,0,-1.5000072,124.30446,34.82473)" stroke-width=".318629" stroke-linecap="butt" stroke-linejoin="round" fill="none" stroke="#000000" d="M0 0H3.172749"/>
<use data-text="4" xlink:href="#font_8_2" transform="matrix(8.368617,0,0,-8.36866,124.30446,41.814706)"/>
<path transform="matrix(1,0,0,-1,135.06345,82.65895)" stroke-width=".75" stroke-linecap="round" stroke-linejoin="round" fill="none" stroke="#000000" d="M-4.5 63.77951H4.5"/>
<use data-text="1" xlink:href="#font_8_4" transform="matrix(11.955144,0,0,-11.95516,123.089298,22.859009)"/>
</svg>
