<svg xmlns="http://www.w3.org/2000/svg" xmlns:xlink="http://www.w3.org/1999/xlink" xmlns:inkscape="http://www.inkscape.org/namespaces/inkscape" version="1.1" width="217.52098" height="116.5268" viewBox="0 0 217.52098 116.5268">
<defs>
<path id="font_0_1" d="M.57199099 .14329529C.57199099 .1532898 .5629883 .1532898 .55999758 .1532898 .5499878 .1532898 .548996 .14929199 .54599 .13528443 .5289917 .07026672 .5109863 .011245728 .46998597 .011245728 .44299317 .011245728 .43998719 .037261964 .43998719 .057266237 .43998719 .07926941 .45199586 .12628174 .45999146 .1612854L.48799134 .26931764C.4909973 .28433229 .5009918 .32234193 .5049896 .3373413 .5099945 .36035157 .519989 .3983612 .519989 .4043579 .519989 .42236329 .5059967 .43136598 .4909973 .43136598 .48599244 .43136598 .45999146 .43037416 .45199586 .3963623L.40499879 .20930481 .3789978 .107284549C.37799073 .10227966 .32998658 .011245728 .24899292 .011245728 .19898987 .011245728 .1749878 .044265748 .1749878 .09828186 .1749878 .12728882 .18199158 .1552887 .18899536 .18330384L.23098755 .35134889C.23599243 .37236024 .24598694 .41036988 .24598694 .4153595 .24598694 .43237306 .23399353 .4423828 .21699524 .4423828 .21398926 .4423828 .18598938 .44137574 .1769867 .4063568L.032989503-.17274475C.02999878-.18475342 .02999878-.18875122 .02999878-.18875122 .02999878-.20375061 .040985109-.21574402 .057998659-.21574402 .07899475-.21574402 .09098816-.1977539 .09298706-.19474793 .09700012-.18574524 .10998535-.13374329 .147995 .020248414 .17999268-.0067443849 .22499085-.0107421879 .24499512-.0107421879 .31498719-.0107421879 .35398866 .03425598 .37799073 .06227112 .3869934 .01725769 .42399598-.0107421879 .46798707-.0107421879 .5029907-.0107421879 .526001 .012252808 .5419922 .044265748 .5589905 .08027649 .57199099 .14329529 .57199099 .14329529Z"/>
<path id="font_0_2" d="M.47399903 .39535523C.47399903 .41236878 .46199037 .42237855 .44499208 .42237855 .43499757 .42237855 .4079895 .41537477 .4039917 .3793335 .38598634 .41636659 .35099793 .4423828 .31098939 .4423828 .19699097 .4423828 .07299805 .30226136 .07299805 .15812683 .07299805 .059020997 .13398743 0 .20599365 0 .2649994 0 .31199647 .04701233 .32199098 .058029176L.32299806 .057022096 .2899933-.07495117C.28599549-.08395386 .2519989-.18309021 .1459961-.18309021 .1269989-.18309021 .09399414-.18206787 .06599426-.17294312 .09599304-.16394043 .10699463-.13793946 .10699463-.12094116 .10699463-.10494995 .09599304-.0859375 .068984989-.0859375 .04699707-.0859375 .01499939-.10394287 .01499939-.14395142 .01499939-.18508911 .051986696-.20507813 .147995-.20507813 .272995-.20507813 .34498597-.12693787 .3600006-.06695557L.47099305 .3773346C.47200013 .3833313 .47399903 .38833619 .47399903 .39535523M.3919983 .33428956C.3919983 .32928468 .3899994 .3232727 .3889923 .3192749L.34098817 .12809754C.33499146 .10206604 .31199647 .077041629 .2899933 .058029176 .2689972 .040008546 .23799134 .021987915 .20899964 .021987915 .15899658 .021987915 .14399719 .074035648 .14399719 .11407471 .14399719 .16212464 .17298889 .28024293 .19999695 .33128358 .22698975 .38034059 .269989 .42037965 .31199647 .42037965 .37799073 .42037965 .3919983 .33929444 .3919983 .33428956Z"/>
<path id="font_1_1" d="M.35099793-.2400055C.35099793-.23701477 .34899903-.23400879 .34700013-.23200989 .24299622-.15400696 .17399597 .04798889 .17399597 .20799256V.2919922C.17399597 .45199586 .24299622 .6539917 .34700013 .7319946 .34899903 .73399356 .35099793 .7369995 .35099793 .73999026 .35099793 .7449951 .34599305 .75 .34098817 .75 .33898927 .75 .33699037 .7489929 .33499146 .7480011 .22499085 .6649933 .11999512 .46299745 .11999512 .2919922V.20799256C.11999512 .036987306 .22499085-.16500855 .33499146-.2480011 .33699037-.24900818 .33898927-.25001527 .34098817-.25001527 .34599305-.25001527 .35099793-.24501038 .35099793-.2400055Z"/>
<path id="font_0_3" d="M.5269928 .37635804C.5269928 .42837525 .46798707 .4423828 .43399049 .4423828 .37599183 .4423828 .34098817 .38935853 .32899476 .36634828 .3039856 .43237306 .25 .4423828 .22099304 .4423828 .116989139 .4423828 .05999756 .3133545 .05999756 .28834535 .05999756 .27833558 .07199097 .27833558 .07199097 .27833558 .07998657 .27833558 .08299255 .28033448 .084991458 .28933717 .11898804 .39535523 .18499756 .42037965 .21899414 .42037965 .23799134 .42037965 .272995 .4113617 .272995 .35334779 .272995 .32235719 .2559967 .25532533 .21899414 .11528015 .20298767 .053268434 .16799927 .011245728 .12399292 .011245728 .117996219 .011245728 .09498596 .011245728 .07398987 .024276734 .09899902 .029266358 .12098694 .05027771 .12098694 .07827759 .12098694 .105270389 .09899902 .11328125 .083999637 .11328125 .053985597 .11328125 .0289917 .08728027 .0289917 .055267335 .0289917 .009246826 .07899475-.0107421879 .12298584-.0107421879 .18899536-.0107421879 .22499085 .059280397 .22799683 .0652771 .23999024 .028274537 .27598573-.0107421879 .33599855-.0107421879 .43899537-.0107421879 .49598695 .118270877 .49598695 .14328003 .49598695 .1532898 .4869995 .1532898 .48399354 .1532898 .47499085 .1532898 .47299195 .14929199 .47099305 .14228821 .43798829 .03527832 .36999513 .011245728 .33799745 .011245728 .29899598 .011245728 .2829895 .043273927 .2829895 .07727051 .2829895 .09927368 .2889862 .121276859 .2999878 .16529846L.33399964 .30233766C.33999635 .32835389 .36299134 .42037965 .43299867 .42037965 .43798829 .42037965 .46199037 .42037965 .48298646 .40734864 .45498658 .402359 .43499757 .37734986 .43499757 .35334779 .43499757 .33735658 .44599916 .31835938 .47299195 .31835938 .49499513 .31835938 .5269928 .3363495 .5269928 .37635804Z"/>
<path id="font_1_2" d="M.31098939 .20799256V.2919922C.31098939 .46299745 .20599365 .6649933 .09599304 .7480011 .09399414 .7489929 .09199524 .75 .08999634 .75 .084991458 .75 .07998657 .7449951 .07998657 .73999026 .07998657 .7369995 .08198547 .73399356 .083999637 .7319946 .18798828 .6539917 .25698854 .45199586 .25698854 .2919922V.20799256C.25698854 .04798889 .18798828-.15400696 .083999637-.23200989 .08198547-.23400879 .07998657-.23701477 .07998657-.2400055 .07998657-.24501038 .084991458-.25001527 .08999634-.25001527 .09199524-.25001527 .09399414-.24900818 .09599304-.2480011 .20599365-.16500855 .31098939 .036987306 .31098939 .20799256Z"/>
<path id="font_0_4" d="M.6429901 .24685669C.6429901 .2508545 .6399994 .25785829 .6309967 .25785829 .621994 .25785829 .62098696 .2528534 .6139984 .23686219 .5799866 .14492798 .5359955 .0309906 .36299134 .0309906H.2689972C.25498963 .0309906 .25299073 .0309906 .24699402 .03199768 .23699951 .032989503 .23399353 .033996583 .23399353 .041992189 .23399353 .04498291 .23399353 .04698181 .23899842 .064971927L.37399293 .6046295C.3829956 .64060977 .38598634 .6516113 .47999574 .6516113 .5099945 .6516113 .5179901 .6516113 .5179901 .6706085 .5179901 .6826172 .5069885 .6826172 .5019989 .6826172L.35398866 .6796112 .22099304 .6826172C.21398926 .6826172 .20199585 .6826172 .20199585 .6626129 .20199585 .6516113 .21099854 .6516113 .22999573 .6516113 .22999573 .6516113 .25099183 .6516113 .2679901 .6496124 .28599549 .6476135 .29499818 .64660647 .29499818 .6336212 .29499818 .6296234 .2939911 .62661746 .29100038 .614624L.15699768 .07795715C.14698792 .038986207 .14498902 .0309906 .06599426 .0309906 .04899597 .0309906 .038986207 .0309906 .038986207 .010986328 .038986207 0 .04798889 0 .06599426 0H.5289917C.5529938 0 .55400088 0 .55999758 .016998291L.6389923 .23286438C.6429901 .24386597 .6429901 .24685669 .6429901 .24685669Z"/>
<path id="font_0_5" d="M.7220001 .34713746C.7220001 .35813905 .71299746 .36714173 .70199587 .36714173H.07598877C.06498718 .36714173 .055999757 .35813905 .055999757 .34713746 .055999757 .33613587 .06498718 .32714845 .07598877 .32714845H.70199587C.71299746 .32714845 .7220001 .33613587 .7220001 .34713746M.7220001 .15284729C.7220001 .16384888 .71299746 .17285156 .70199587 .17285156H.07598877C.06498718 .17285156 .055999757 .16384888 .055999757 .15284729 .055999757 .1418457 .06498718 .13284302 .07598877 .13284302H.70199587C.71299746 .13284302 .7220001 .1418457 .7220001 .15284729Z"/>
<path id="font_0_6" d="M.49798585 .14329529C.49798585 .1532898 .4889984 .1532898 .48599244 .1532898 .47599793 .1532898 .47499085 .14929199 .47200013 .13528443 .45498658 .07026672 .43699647 .011245728 .3959961 .011245728 .36898805 .011245728 .3659973 .037261964 .3659973 .057266237 .3659973 .07926941 .36799623 .08728027 .3789978 .13128662L.40098573 .22131348 .43699647 .36135865C.44400025 .38935853 .44400025 .39135743 .44400025 .39537049 .44400025 .41236878 .43199159 .42237855 .4149933 .42237855 .3909912 .42237855 .37599183 .4003601 .37298585 .37835694 .35499574 .41537477 .32598878 .4423828 .2809906 .4423828 .1639862 .4423828 .039993287 .29533387 .039993287 .14929199 .039993287 .055267335 .09498596-.0107421879 .17298889-.0107421879 .19299317-.0107421879 .24299622-.0067443849 .30299378 .06427002 .31098939 .022247315 .34599305-.0107421879 .3939972-.0107421879 .42900086-.0107421879 .45199586 .012252808 .46798707 .044265748 .4850006 .08027649 .49798585 .14329529 .49798585 .14329529M.36099244 .33235169C.36099244 .32633973 .35899354 .32034303 .35798646 .31533814L.30799867 .119277957C.30299378 .10127258 .30299378 .09927368 .28799439 .08227539 .24398804 .027252198 .20298767 .011245728 .1749878 .011245728 .125 .011245728 .11099243 .06626892 .11099243 .105285648 .11099243 .1552887 .14299011 .27833558 .1659851 .32434083 .19699097 .38336183 .24198914 .42037965 .28199769 .42037965 .34700013 .42037965 .36099244 .3383484 .36099244 .33235169Z"/>
<path id="font_0_7" d="M.7220001 .25045777C.7220001 .26145936 .71299746 .27046205 .70199587 .27046205H.40899659V.5634613C.40899659 .5744629 .3999939 .5834656 .3889923 .5834656 .37799073 .5834656 .36898805 .5744629 .36898805 .5634613V.27046205H.07598877C.06498718 .27046205 .055999757 .26145936 .055999757 .25045777 .055999757 .23945618 .06498718 .23046875 .07598877 .23046875H.36898805V-.06254578C.36898805-.073532108 .37799073-.08253479 .3889923-.08253479 .3999939-.08253479 .40899659-.073532108 .40899659-.06254578V.23046875H.70199587C.71299746 .23046875 .7220001 .23945618 .7220001 .25045777Z"/>
<path id="font_0_8" d="M.4149933 .28233338C.4149933 .37335206 .3619995 .4423828 .28199769 .4423828 .23599243 .4423828 .19499207 .41337586 .16499329 .38235475L.23899842 .68333438C.23899842 .68333438 .23899842 .69433596 .22599793 .69433596 .20298767 .69433596 .12998963 .6863251 .10398865 .6843262 .09599304 .68333438 .084991458 .6823273 .084991458 .6643219 .084991458 .6523285 .09399414 .6523285 .10899353 .6523285 .15699768 .6523285 .15899658 .6453247 .15899658 .6353302 .15899658 .6283264 .1499939 .5943451 .14498902 .573349L.06298828 .24731446C.050994874 .1973114 .04699707 .18130493 .04699707 .14628601 .04699707 .05126953 .099990848-.0107421879 .17399597-.0107421879 .2919922-.0107421879 .4149933 .1382904 .4149933 .28233338M.34298707 .32633973C.34298707 .26733399 .30999757 .15229798 .2919922 .11428833 .25898744 .04725647 .21299744 .011245728 .17399597 .011245728 .13999939 .011245728 .10699463 .038253786 .10699463 .11227417 .10699463 .13128662 .10699463 .15029907 .12298584 .21331787L.14498902 .30534364C.15098572 .3273468 .15098572 .3293457 .1599884 .3403473 .20899964 .405365 .2539978 .42037965 .27999879 .42037965 .31599427 .42037965 .34298707 .3903656 .34298707 .32633973Z"/>
</defs>
<path transform="matrix(1,0,0,-1,15.636341,78.06085)" stroke-width=".75" stroke-linecap="round" stroke-linejoin="round" fill="none" stroke="#000099" d="M-8.447152-31.277035 97.73866 39.404485"/>
<path transform="matrix(1,0,0,-1,15.636341,78.06085)" stroke-width="1.2" stroke-linecap="round" stroke-linejoin="round" fill="none" stroke="#000000" d="M0 63.77951C-0 49.909719 19.324236 3.113436 31.889756 0 48.23002-4.048727 86.83101 48.4712 95.669269 63.77951"/>
<path transform="matrix(1,0,0,-1,15.636341,78.06085)" d="M45.770757 4.063724C45.770757 4.362092 45.65223 4.64824 45.441255 4.859219 45.230276 5.070197 44.944128 5.188724 44.645757 5.188724 44.34739 5.188724 44.06124 5.070197 43.85026 4.859219 43.639284 4.64824 43.520757 4.362092 43.520757 4.063724 43.520757 3.765355 43.639284 3.479207 43.85026 3.268228 44.06124 3.05725 44.34739 2.938724 44.645757 2.938724 44.944128 2.938724 45.230276 3.05725 45.441255 3.268228 45.65223 3.479207 45.770757 3.765355 45.770757 4.063724Z" fill="#990000"/>
<use data-text="&#x1d707;" xlink:href="#font_0_1" transform="matrix(14.943972,0,0,-14.943918,55.77849,85.09861)"/>
<use data-text="&#x1d454;" xlink:href="#font_0_2" transform="matrix(14.9439339,0,0,-14.9439339,115.80444,18.01593)"/>
<use data-text="(" xlink:href="#font_1_1" transform="matrix(14.9439339,0,0,-14.9439339,123.30217,18.01593)"/>
<use data-text="&#x1d465;" xlink:href="#font_0_3" transform="matrix(14.9439339,0,0,-14.9439339,129.73947,18.01593)"/>
<use data-text=")" xlink:href="#font_1_2" transform="matrix(14.9439339,0,0,-14.9439339,138.28272,18.01593)"/>
<use data-text="&#x1d43f;" xlink:href="#font_0_4" transform="matrix(14.944068,0,0,-14.9439339,117.87382,42.3907)"/>
<use data-text="(" xlink:href="#font_1_1" transform="matrix(14.944068,0,0,-14.9439339,128.04514,42.3907)"/>
<use data-text="&#x1d465;" xlink:href="#font_0_3" transform="matrix(14.944068,0,0,-14.9439339,134.48249,42.3907)"/>
<use data-text=")" xlink:href="#font_1_2" transform="matrix(14.944068,0,0,-14.9439339,143.02579,42.3907)"/>
<use data-text="=" xlink:href="#font_0_5" transform="matrix(14.944068,0,0,-14.9439339,153.61429,42.3907)"/>
<use data-text="&#x1d44e;" xlink:href="#font_0_6" transform="matrix(14.944068,0,0,-14.9439339,169.39194,42.3907)"/>
<use data-text="&#x1d465;" xlink:href="#font_0_3" transform="matrix(14.944068,0,0,-14.9439339,177.29737,42.3907)"/>
<use data-text="+" xlink:href="#font_0_7" transform="matrix(14.944068,0,0,-14.9439339,189.16623,42.3907)"/>
<use data-text="&#x1d44f;" xlink:href="#font_0_8" transform="matrix(14.944068,0,0,-14.9439339,204.11356,42.3907)"/>
</svg>
