<svg xmlns="http://www.w3.org/2000/svg" xmlns:xlink="http://www.w3.org/1999/xlink" xmlns:inkscape="http://www.inkscape.org/namespaces/inkscape" version="1.1" width="319.6513" height="273.78208" viewBox="0 0 319.6513 273.78208">
<defs>
<path id="font_11_1" d="M.3039856-.018005372C.45799256-.018005372 .5569916 .12998963 .5569916 .35899354 .5569916 .59199526 .45899964 .7409973 .3039856 .7409973 .1499939 .7409973 .050994874 .59199526 .050994874 .35899354 .050994874 .12998963 .15098572-.018005372 .3039856-.018005372M.3039856 .011993408C.2539978 .011993408 .20698548 .051986696 .18399048 .114990238 .1599884 .1789856 .15299988 .23298645 .15299988 .36099244 .15299988 .48999024 .16099549 .5499878 .18399048 .60798647 .20899964 .6719971 .2539978 .71099856 .3019867 .71099856 .35398866 .71099856 .40098573 .67099 .4249878 .60798647 .44799806 .54499819 .45498658 .48999024 .45498658 .36099244 .45498658 .23298645 .44799806 .17399597 .4249878 .114990238 .39898683 .049987794 .35499574 .011993408 .3039856 .011993408Z"/>
<path id="font_11_2" d="M.2559967 .57499697V.1269989L.25299073 .07798767C.25099183 .039993287 .24699402 .035995485 .20799256 .032989503L.1749878 .0309906 .116989139 .02999878V0H.4909973V.02999878L.43399049 .0309906 .40098573 .032989503C.3619995 .035995485 .35798646 .039993287 .35499574 .07798767L.35198976 .1269989V.72898867L.116989139 .66999819V.6399994L.1659851 .6489868 .20899964 .6569977C.21699524 .6579895 .22599793 .6589966 .23399353 .6589966 .24899292 .6589966 .25099183 .6549988 .25299073 .6239929L.2559967 .57499697Z"/>
<path id="font_11_6" d="M.4099884 .5469971C.4099884 .5209961 .40499879 .49299623 .397995 .47099305 .37998963 .4229889 .34799195 .3829956 .2599945 .30099488L.20899964 .2519989C.17098999 .21699524 .14898682 .19099427 .1269989 .1559906 .10598755 .12098694 .09599304 .100997928 .07798767 .04798889V0H.5089874V.083999637H.15699768C.16299439 .12998963 .16899109 .147995 .19198609 .18299866 .21998596 .22499085 .24598694 .24899292 .31199647 .29499818L.36999513 .33499146C.47299195 .40499879 .5119934 .46398927 .5119934 .54599 .5119934 .6599884 .4189911 .7409973 .28799439 .7409973 .23098755 .7409973 .1619873 .72499087 .09498596 .69699099V.5649872H.14299011V.57699587C.14698792 .647995 .147995 .6519928 .1539917 .6629944 .1579895 .6689911 .16499329 .6749878 .1749878 .68099978 .20498657 .69898989 .24099732 .70999148 .2769928 .70999148 .35699464 .70999148 .4099884 .6459961 .4099884 .5469971Z"/>
<path id="font_11_9" d="M.15699768 .40098573V.36999513H.21598816C.33799745 .36999513 .4099884 .30499269 .4099884 .19499207 .4099884 .084991458 .35299684 .011993408 .2679901 .011993408 .23498535 .011993408 .19799805 .022994996 .16699219 .040985109 .1459961 .052993776 .14099121 .06199646 .13999939 .08799744L.13899231 .12199402V.1329956H.08999634V.004989624C.12799073-.006011963 .14199829-.009002686 .18899536-.014007568 .21798706-.01701355 .24499512-.018005372 .269989-.018005372 .41799928-.018005372 .5109863 .06498718 .5109863 .19799805 .5109863 .25898744 .48799134 .31199647 .44898988 .34298707 .4189911 .3659973 .39898683 .375 .33699037 .3909912 .43798829 .4269867 .4889984 .48999024 .4889984 .57499697 .4889984 .6779938 .40699769 .7409973 .27198792 .7409973 .21899414 .7409973 .15499878 .7319946 .115997318 .7200012 .11199951 .71899417 .10499573 .71598818 .09599304 .71299746V.60198977H.14399719L.14498902 .6100006C.1459961 .6309967 .14698792 .644989 .147995 .6539917 .14898682 .66600039 .1519928 .673996 .1559906 .67900088 .1579895 .68299868 .16499329 .68699648 .17399597 .69099429 .20298767 .70399478 .23498535 .71099856 .2649994 .71099856 .34599305 .71099856 .3939972 .6569977 .3939972 .56599429 .3939972 .44898988 .33399964 .40098573 .18899536 .40098573H.15699768Z"/>
<path id="font_11_13" d="M.20498657 .11999512H.083999637V0H.20498657V.11999512Z"/>
<path id="font_11_12" d="M.16299439 .36999513C.16499329 .46099855 .16799927 .4889984 .18099976 .54499819 .18899536 .5799866 .20298767 .6119995 .22099304 .6399994 .25099183 .68699648 .2919922 .71099856 .34199525 .71099856 .37399293 .71099856 .4059906 .70098879 .43598939 .6819916 .45498658 .66999819 .45700074 .6649933 .45899964 .6380005L.46199037 .60398867V.59298709H.5109863V.70899966C.46398927 .73098757 .41299439 .7409973 .35198976 .7409973 .25299073 .7409973 .18499756 .70799258 .13598633 .6369934 .084991458 .5629883 .05999756 .46899415 .05999756 .34999085 .05999756 .114990238 .1519928-.018005372 .31498719-.018005372 .44898988-.018005372 .5509949 .09298706 .5509949 .23699951 .5509949 .37098695 .46299745 .46398927 .33699037 .46398927 .2769928 .46398927 .22399903 .44198609 .18899536 .40299989 .18199158 .394989 .17298889 .38398744 .16299439 .36999513M.1659851 .2689972C.1659851 .34399415 .19499207 .3909912 .25698854 .41600038 .2769928 .4249878 .30099488 .42999269 .32199098 .42999269 .40699769 .42999269 .45498658 .35699464 .45498658 .22399903 .45498658 .09098816 .4079895 .0129852299 .32699586 .0129852299 .23098755 .0129852299 .1659851 .116989139 .1659851 .2689972Z"/>
<path id="font_11_16" d="M.5079956 .6329956 .43499757 .5349884C.35299684 .42399598 .3019867 .35398866 .2809906 .32398988 .24699402 .27598573 .21598816 .22200012 .18798828 .1619873 .1579895 .09799194 .1499939 .070999149 .13699341 0H.2519989C.2559967 .07699585 .2630005 .10998535 .2849884 .17298889 .30599977 .23199463 .33299256 .29299928 .3659973 .35398866 .42599488 .46598817 .46299745 .522995 .5649872 .6599884V.72299197H.100997928V.6329956H.5079956Z"/>
<path id="font_11_10" d="M.44599916 .1269989V.20498657H.5419922V.2769928H.44599916V.7350006H.3919983L.02999878 .25299073V.20498657H.36099244V.1269989L.35798646 .07798767C.35598756 .041992189 .34999085 .034988405 .31900025 .032989503L.2679901 .0309906 .25898744 .02999878V0H.5359955V.02999878L.5269928 .0309906 .49398805 .032989503C.45498658 .035995485 .45098878 .039993287 .44898988 .07798767L.44599916 .1269989M.36099244 .6459961V.2769928H.083999637L.36099244 .6459961Z"/>
</defs>
<path transform="matrix(1.5,0,0,-1.5,106.304569,62.184206)" d="M17.92313 4.31947C17.92313 14.21826 9.89879 22.2426 0 22.2426-9.89879 22.2426-17.92313 14.21826-17.92313 4.31947-17.92313-5.57932-9.89879-13.60365 0-13.60365 9.89879-13.60365 17.92313-5.57932 17.92313 4.31947ZM0 4.31947" fill="#d9d9ff"/>
<path transform="matrix(1.5,0,0,-1.5,106.304569,62.184206)" stroke-width="1.5" stroke-linecap="butt" stroke-miterlimit="10" stroke-linejoin="miter" fill="none" stroke="#0000bf" d="M17.92313 4.31947C17.92313 14.21826 9.89879 22.2426 0 22.2426-9.89879 22.2426-17.92313 14.21826-17.92313 4.31947-17.92313-5.57932-9.89879-13.60365 0-13.60365 9.89879-13.60365 17.92313-5.57932 17.92313 4.31947ZM0 4.31947"/>
<use data-text="0" xlink:href="#font_11_1" transform="matrix(17.932755,0,0,-17.932755,100.856,62.184206)" fill="#0000e6"/>
<use data-text="0" xlink:href="#font_11_1" stroke-width=".020074999" stroke-linecap="butt" stroke-miterlimit="10" stroke-linejoin="miter" transform="matrix(17.932755,0,0,-17.932755,100.856,62.184206)" fill="none" stroke="#0000e6"/>
<path transform="matrix(1.5,0,0,-1.5,213.34674,62.184206)" d="M17.92313 4.35532C17.92313 14.2541 9.89879 22.27844 0 22.27844-9.89879 22.27844-17.92313 14.2541-17.92313 4.35532-17.92313-5.54347-9.89879-13.56781 0-13.56781 9.89879-13.56781 17.92313-5.54347 17.92313 4.35532ZM0 4.35532" fill="#d9d9ff"/>
<path transform="matrix(1.5,0,0,-1.5,213.34674,62.184206)" stroke-width="1.5" stroke-linecap="butt" stroke-miterlimit="10" stroke-linejoin="miter" fill="none" stroke="#0000bf" d="M17.92313 4.35532C17.92313 14.2541 9.89879 22.27844 0 22.27844-9.89879 22.27844-17.92313 14.2541-17.92313 4.35532-17.92313-5.54347-9.89879-13.56781 0-13.56781 9.89879-13.56781 17.92313-5.54347 17.92313 4.35532ZM0 4.35532"/>
<use data-text="1" xlink:href="#font_11_2" transform="matrix(17.932755,0,0,-17.932755,207.89818,62.184206)" fill="#0000e6"/>
<use data-text="1" xlink:href="#font_11_2" stroke-width=".020074999" stroke-linecap="butt" stroke-miterlimit="10" stroke-linejoin="miter" transform="matrix(17.932755,0,0,-17.932755,207.89818,62.184206)" fill="none" stroke="#0000e6"/>
<path transform="matrix(1.5,0,0,-1.5,106.304569,224.6634)" d="M17.92313 4.427C17.92313 14.3258 9.89879 22.35014 0 22.35014-9.89879 22.35014-17.92313 14.3258-17.92313 4.427-17.92313-5.47177-9.89879-13.49611 0-13.49611 9.89879-13.49611 17.92313-5.47177 17.92313 4.427ZM0 4.427" fill="#d9d9ff"/>
<path transform="matrix(1.5,0,0,-1.5,106.304569,224.6634)" stroke-width="1.5" stroke-linecap="butt" stroke-miterlimit="10" stroke-linejoin="miter" fill="none" stroke="#0000bf" d="M17.92313 4.427C17.92313 14.3258 9.89879 22.35014 0 22.35014-9.89879 22.35014-17.92313 14.3258-17.92313 4.427-17.92313-5.47177-9.89879-13.49611 0-13.49611 9.89879-13.49611 17.92313-5.47177 17.92313 4.427ZM0 4.427"/>
<use data-text="2" xlink:href="#font_11_6" transform="matrix(17.932755,0,0,-17.932755,100.856,224.6634)" fill="#0000e6"/>
<use data-text="2" xlink:href="#font_11_6" stroke-width=".020074999" stroke-linecap="butt" stroke-miterlimit="10" stroke-linejoin="miter" transform="matrix(17.932755,0,0,-17.932755,100.856,224.6634)" fill="none" stroke="#0000e6"/>
<path transform="matrix(1.5,0,0,-1.5,213.34674,224.6634)" d="M17.92313 4.31947C17.92313 14.21826 9.89879 22.2426 0 22.2426-9.89879 22.2426-17.92313 14.21826-17.92313 4.31947-17.92313-5.57932-9.89879-13.60365 0-13.60365 9.89879-13.60365 17.92313-5.57932 17.92313 4.31947ZM0 4.31947" fill="#d9d9ff"/>
<path transform="matrix(1.5,0,0,-1.5,213.34674,224.6634)" stroke-width="1.5" stroke-linecap="butt" stroke-miterlimit="10" stroke-linejoin="miter" fill="none" stroke="#0000bf" d="M17.92313 4.31947C17.92313 14.21826 9.89879 22.2426 0 22.2426-9.89879 22.2426-17.92313 14.21826-17.92313 4.31947-17.92313-5.57932-9.89879-13.60365 0-13.60365 9.89879-13.60365 17.92313-5.57932 17.92313 4.31947ZM0 4.31947"/>
<use data-text="3" xlink:href="#font_11_9" transform="matrix(17.932755,0,0,-17.932755,207.89818,224.6634)" fill="#0000e6"/>
<use data-text="3" xlink:href="#font_11_9" stroke-width=".020074999" stroke-linecap="butt" stroke-miterlimit="10" stroke-linejoin="miter" transform="matrix(17.932755,0,0,-17.932755,207.89818,224.6634)" fill="none" stroke="#0000e6"/>
<path transform="matrix(1.5,0,0,-1.5,159.82566,136.91779)" stroke-width="1" stroke-linecap="butt" stroke-miterlimit="10" stroke-linejoin="miter" fill="none" stroke="#000000" d=""/>
<path transform="matrix(1.5,0,0,-1.5,159.82566,136.91779)" stroke-width="1" stroke-linecap="butt" stroke-miterlimit="10" stroke-linejoin="miter" fill="none" stroke="#000000" d="M-53.71806 49.3101C-82.84203 41.50629-82.84203 66.7787-55.48619 59.4486"/>
<path transform="matrix(1.448895,.38818497,.38818497,-1.448895,76.59637,47.74489)" stroke-width=".8" stroke-linecap="round" stroke-linejoin="round" fill="none" stroke="#000000" d="M-1.73685 2.3158C-1.59212 1.44737 0 .14473 .4342 0 0-.14473-1.59212-1.44737-1.73685-2.3158"/>
<use data-text="0" xlink:href="#font_11_1" transform="matrix(17.932755,0,0,-17.932755,12.787949,62.18425)"/>
<use data-text="." xlink:href="#font_11_13" transform="matrix(17.932755,0,0,-17.932755,23.691065,62.18425)"/>
<use data-text="6" xlink:href="#font_11_12" transform="matrix(17.932755,0,0,-17.932755,28.873629,62.18425)"/>
<path transform="matrix(1.5,0,0,-1.5,159.82566,136.91779)" stroke-width="1" stroke-linecap="butt" stroke-miterlimit="10" stroke-linejoin="miter" fill="none" stroke="#000000" d="M53.71806 59.01073C82.84203 66.81454 82.84203 41.54213 55.48619 48.87224"/>
<path transform="matrix(-1.448895,-.38818497,-.38818497,1.448895,243.05493,63.60943)" stroke-width=".8" stroke-linecap="round" stroke-linejoin="round" fill="none" stroke="#000000" d="M-1.73685 2.3158C-1.59212 1.44737 0 .14473 .4342 0 0-.14473-1.59212-1.44737-1.73685-2.3158"/>
<use data-text="0" xlink:href="#font_11_1" transform="matrix(17.932755,0,0,-17.932755,279.8894,62.130495)"/>
<use data-text="." xlink:href="#font_11_13" transform="matrix(17.932755,0,0,-17.932755,290.7925,62.130495)"/>
<use data-text="7" xlink:href="#font_11_16" transform="matrix(17.932755,0,0,-17.932755,295.9751,62.130495)"/>
<path transform="matrix(1.5,0,0,-1.5,159.82566,136.91779)" stroke-width="1" stroke-linecap="butt" stroke-miterlimit="10" stroke-linejoin="miter" fill="none" stroke="#000000" d="M-53.71806-58.9032C-82.84203-66.70702-82.84203-41.43462-55.48619-48.76471"/>
<path transform="matrix(1.448895,.38818497,.38818497,-1.448895,76.59637,210.06485)" stroke-width=".8" stroke-linecap="round" stroke-linejoin="round" fill="none" stroke="#000000" d="M-1.73685 2.3158C-1.59212 1.44737 0 .14473 .4342 0 0-.14473-1.59212-1.44737-1.73685-2.3158"/>
<use data-text="0" xlink:href="#font_11_1" transform="matrix(17.932755,0,0,-17.932755,12.787949,224.50205)"/>
<use data-text="." xlink:href="#font_11_13" transform="matrix(17.932755,0,0,-17.932755,23.691065,224.50205)"/>
<use data-text="3" xlink:href="#font_11_9" transform="matrix(17.932755,0,0,-17.932755,28.873629,224.50205)"/>
<path transform="matrix(1.5,0,0,-1.5,159.82566,136.91779)" stroke-width="1" stroke-linecap="butt" stroke-miterlimit="10" stroke-linejoin="miter" fill="none" stroke="#000000" d="M53.71806-49.34596C82.84203-41.54214 82.84203-66.81456 55.48619-59.48445"/>
<path transform="matrix(-1.448895,-.38818497,-.38818497,1.448895,243.05493,226.14447)" stroke-width=".8" stroke-linecap="round" stroke-linejoin="round" fill="none" stroke="#000000" d="M-1.73685 2.3158C-1.59212 1.44737 0 .14473 .4342 0 0-.14473-1.59212-1.44737-1.73685-2.3158"/>
<use data-text="0" xlink:href="#font_11_1" transform="matrix(17.932755,0,0,-17.932755,279.8894,224.66333)"/>
<use data-text="." xlink:href="#font_11_13" transform="matrix(17.932755,0,0,-17.932755,290.7925,224.66333)"/>
<use data-text="4" xlink:href="#font_11_10" transform="matrix(17.932755,0,0,-17.932755,295.9751,224.66333)"/>
<path transform="matrix(1.5,0,0,-1.5,159.82566,136.91779)" stroke-width="1" stroke-linecap="butt" stroke-miterlimit="10" stroke-linejoin="miter" fill="none" stroke="#000000" d="M-19.51486 63.48676C-6.34073 71.1014 6.32361 71.10812 17.9195 64.42078"/>
<path transform="matrix(1.29939,.74934,.74934,-1.29939,186.70487,40.2866)" stroke-width=".8" stroke-linecap="round" stroke-linejoin="round" fill="none" stroke="#000000" d="M-1.73685 2.3158C-1.59212 1.44737 0 .14473 .4342 0 0-.14473-1.59212-1.44737-1.73685-2.3158"/>
<use data-text="0" xlink:href="#font_11_1" transform="matrix(17.932755,0,0,-17.932755,146.32723,26.068818)"/>
<use data-text="." xlink:href="#font_11_13" transform="matrix(17.932755,0,0,-17.932755,157.23033,26.068818)"/>
<use data-text="4" xlink:href="#font_11_10" transform="matrix(17.932755,0,0,-17.932755,162.41292,26.068818)"/>
<path transform="matrix(1.5,0,0,-1.5,159.82566,136.91779)" stroke-width="1" stroke-linecap="butt" stroke-miterlimit="10" stroke-linejoin="miter" fill="none" stroke="#000000" d="M19.51486 44.83408C6.34073 37.21944-6.32361 37.2127-17.9195 43.90005"/>
<path transform="matrix(-1.29939,-.74934,-.74934,1.29939,132.94644,71.067729)" stroke-width=".8" stroke-linecap="round" stroke-linejoin="round" fill="none" stroke="#000000" d="M-1.73685 2.3158C-1.59212 1.44737 0 .14473 .4342 0 0-.14473-1.59212-1.44737-1.73685-2.3158"/>
<use data-text="0" xlink:href="#font_11_1" transform="matrix(17.932755,0,0,-17.932755,146.35012,98.24591)"/>
<use data-text="." xlink:href="#font_11_13" transform="matrix(17.932755,0,0,-17.932755,157.25324,98.24591)"/>
<use data-text="3" xlink:href="#font_11_9" transform="matrix(17.932755,0,0,-17.932755,162.4358,98.24591)"/>
<path transform="matrix(1.5,0,0,-1.5,159.82566,136.91779)" stroke-width="1" stroke-linecap="butt" stroke-miterlimit="10" stroke-linejoin="miter" fill="none" stroke="#000000" d="M-19.49606-44.75903C-6.30676-37.17049 6.3577-37.1896 17.94043-43.89998"/>
<path transform="matrix(1.2978749,.75192,.75192,-1.2978749,186.73627,202.76773)" stroke-width=".8" stroke-linecap="round" stroke-linejoin="round" fill="none" stroke="#000000" d="M-1.73685 2.3158C-1.59212 1.44737 0 .14473 .4342 0 0-.14473-1.59212-1.44737-1.73685-2.3158"/>
<use data-text="0" xlink:href="#font_11_1" transform="matrix(17.932755,0,0,-17.932755,146.37262,188.4939)"/>
<use data-text="." xlink:href="#font_11_13" transform="matrix(17.932755,0,0,-17.932755,157.27574,188.4939)"/>
<use data-text="2" xlink:href="#font_11_6" transform="matrix(17.932755,0,0,-17.932755,162.45832,188.4939)"/>
<path transform="matrix(1.5,0,0,-1.5,159.82566,136.91779)" stroke-width="1" stroke-linecap="butt" stroke-miterlimit="10" stroke-linejoin="miter" fill="none" stroke="#000000" d="M19.49606-63.49013C6.30676-71.07867-6.3577-71.05956-17.94043-64.3492"/>
<path transform="matrix(-1.2978749,-.75192,-.75192,1.2978749,132.91504,233.4416)" stroke-width=".8" stroke-linecap="round" stroke-linejoin="round" fill="none" stroke="#000000" d="M-1.73685 2.3158C-1.59212 1.44737 0 .14473 .4342 0 0-.14473-1.59212-1.44737-1.73685-2.3158"/>
<use data-text="0" xlink:href="#font_11_1" transform="matrix(17.932755,0,0,-17.932755,146.30472,260.6715)"/>
<use data-text="." xlink:href="#font_11_13" transform="matrix(17.932755,0,0,-17.932755,157.20784,260.6715)"/>
<use data-text="1" xlink:href="#font_11_2" transform="matrix(17.932755,0,0,-17.932755,162.39041,260.6715)"/>
<path transform="matrix(1.5,0,0,-1.5,159.82566,136.91779)" stroke-width="1" stroke-linecap="butt" stroke-miterlimit="10" stroke-linejoin="miter" fill="none" stroke="#000000" d="M-35.68118-35.39767V33.63885"/>
<path transform="matrix(0,-1.5,-1.5,-0,106.30389,86.45951)" stroke-width=".8" stroke-linecap="round" stroke-linejoin="round" fill="none" stroke="#000000" d="M-1.73685 2.3158C-1.59212 1.44737 0 .14473 .4342 0 0-.14473-1.59212-1.44737-1.73685-2.3158"/>
<use data-text="0" xlink:href="#font_11_1" transform="matrix(17.932755,0,0,-17.932755,72.60696,143.34317)"/>
<use data-text="." xlink:href="#font_11_13" transform="matrix(17.932755,0,0,-17.932755,83.51007,143.34317)"/>
<use data-text="2" xlink:href="#font_11_6" transform="matrix(17.932755,0,0,-17.932755,88.692638,143.34317)"/>
<path transform="matrix(1.5,0,0,-1.5,159.82566,136.91779)" stroke-width="1" stroke-linecap="butt" stroke-miterlimit="10" stroke-linejoin="miter" fill="none" stroke="#000000" d="M-25.40407-38.48148 24.3966 37.0608"/>
<path transform="matrix(.82555499,-1.252275,-1.252275,-.82555499,196.42057,81.326587)" stroke-width=".8" stroke-linecap="round" stroke-linejoin="round" fill="none" stroke="#000000" d="M-1.73685 2.3158C-1.59212 1.44737 0 .14473 .4342 0 0-.14473-1.59212-1.44737-1.73685-2.3158"/>
<use data-text="0" xlink:href="#font_11_1" transform="matrix(17.932755,0,0,-17.932755,126.128047,129.79091)"/>
<use data-text="." xlink:href="#font_11_13" transform="matrix(17.932755,0,0,-17.932755,137.03116,129.79091)"/>
<use data-text="3" xlink:href="#font_11_9" transform="matrix(17.932755,0,0,-17.932755,142.21375,129.79091)"/>
<path transform="matrix(1.5,0,0,-1.5,159.82566,136.91779)" stroke-width="1" stroke-linecap="butt" stroke-miterlimit="10" stroke-linejoin="miter" fill="none" stroke="#000000" d="M25.40892-38.58588-24.40195 37.02151"/>
<path transform="matrix(-.825165,-1.25253,-1.25253,.825165,123.22276,81.38554)" stroke-width=".8" stroke-linecap="round" stroke-linejoin="round" fill="none" stroke="#000000" d="M-1.73685 2.3158C-1.59212 1.44737 0 .14473 .4342 0 0-.14473-1.59212-1.44737-1.73685-2.3158"/>
<use data-text="0" xlink:href="#font_11_1" transform="matrix(17.932755,0,0,-17.932755,166.5493,129.89844)"/>
<use data-text="." xlink:href="#font_11_13" transform="matrix(17.932755,0,0,-17.932755,177.45241,129.89844)"/>
<use data-text="1" xlink:href="#font_11_2" transform="matrix(17.932755,0,0,-17.932755,182.635,129.89844)"/>
<path transform="matrix(1.5,0,0,-1.5,159.82566,136.91779)" stroke-width="1" stroke-linecap="butt" stroke-miterlimit="10" stroke-linejoin="miter" fill="none" stroke="#000000" d="M35.68118-35.50522V33.6747"/>
<path transform="matrix(0,-1.5,-1.5,-0,213.34741,86.40573)" stroke-width=".8" stroke-linecap="round" stroke-linejoin="round" fill="none" stroke="#000000" d="M-1.73685 2.3158C-1.59212 1.44737 0 .14473 .4342 0 0-.14473-1.59212-1.44737-1.73685-2.3158"/>
<use data-text="0" xlink:href="#font_11_1" transform="matrix(17.932755,0,0,-17.932755,220.07039,143.39694)"/>
<use data-text="." xlink:href="#font_11_13" transform="matrix(17.932755,0,0,-17.932755,230.9735,143.39694)"/>
<use data-text="4" xlink:href="#font_11_10" transform="matrix(17.932755,0,0,-17.932755,236.15607,143.39694)"/>
</svg>
