<svg xmlns="http://www.w3.org/2000/svg" xmlns:xlink="http://www.w3.org/1999/xlink" xmlns:inkscape="http://www.inkscape.org/namespaces/inkscape" version="1.1" width="452.20555" height="235.18164" viewBox="0 0 452.20555 235.18164">
<defs>
<path id="font_4_2" d="M.2559967 .57499697V.1269989L.25299073 .07798767C.25099183 .039993287 .24699402 .035995485 .20799256 .032989503L.1749878 .0309906 .116989139 .02999878V0H.4909973V.02999878L.43399049 .0309906 .40098573 .032989503C.3619995 .035995485 .35798646 .039993287 .35499574 .07798767L.35198976 .1269989V.72898867L.116989139 .66999819V.6399994L.1659851 .6489868 .20899964 .6569977C.21699524 .6579895 .22599793 .6589966 .23399353 .6589966 .24899292 .6589966 .25099183 .6549988 .25299073 .6239929L.2559967 .57499697Z"/>
<path id="font_4_6" d="M.4099884 .5469971C.4099884 .5209961 .40499879 .49299623 .397995 .47099305 .37998963 .4229889 .34799195 .3829956 .2599945 .30099488L.20899964 .2519989C.17098999 .21699524 .14898682 .19099427 .1269989 .1559906 .10598755 .12098694 .09599304 .100997928 .07798767 .04798889V0H.5089874V.083999637H.15699768C.16299439 .12998963 .16899109 .147995 .19198609 .18299866 .21998596 .22499085 .24598694 .24899292 .31199647 .29499818L.36999513 .33499146C.47299195 .40499879 .5119934 .46398927 .5119934 .54599 .5119934 .6599884 .4189911 .7409973 .28799439 .7409973 .23098755 .7409973 .1619873 .72499087 .09498596 .69699099V.5649872H.14299011V.57699587C.14698792 .647995 .147995 .6519928 .1539917 .6629944 .1579895 .6689911 .16499329 .6749878 .1749878 .68099978 .20498657 .69898989 .24099732 .70999148 .2769928 .70999148 .35699464 .70999148 .4099884 .6459961 .4099884 .5469971Z"/>
<path id="font_4_9" d="M.15699768 .40098573V.36999513H.21598816C.33799745 .36999513 .4099884 .30499269 .4099884 .19499207 .4099884 .084991458 .35299684 .011993408 .2679901 .011993408 .23498535 .011993408 .19799805 .022994996 .16699219 .040985109 .1459961 .052993776 .14099121 .06199646 .13999939 .08799744L.13899231 .12199402V.1329956H.08999634V.004989624C.12799073-.006011963 .14199829-.009002686 .18899536-.014007568 .21798706-.01701355 .24499512-.018005372 .269989-.018005372 .41799928-.018005372 .5109863 .06498718 .5109863 .19799805 .5109863 .25898744 .48799134 .31199647 .44898988 .34298707 .4189911 .3659973 .39898683 .375 .33699037 .3909912 .43798829 .4269867 .4889984 .48999024 .4889984 .57499697 .4889984 .6779938 .40699769 .7409973 .27198792 .7409973 .21899414 .7409973 .15499878 .7319946 .115997318 .7200012 .11199951 .71899417 .10499573 .71598818 .09599304 .71299746V.60198977H.14399719L.14498902 .6100006C.1459961 .6309967 .14698792 .644989 .147995 .6539917 .14898682 .66600039 .1519928 .673996 .1559906 .67900088 .1579895 .68299868 .16499329 .68699648 .17399597 .69099429 .20298767 .70399478 .23498535 .71099856 .2649994 .71099856 .34599305 .71099856 .3939972 .6569977 .3939972 .56599429 .3939972 .44898988 .33399964 .40098573 .18899536 .40098573H.15699768Z"/>
<path id="font_4_10" d="M.44599916 .1269989V.20498657H.5419922V.2769928H.44599916V.7350006H.3919983L.02999878 .25299073V.20498657H.36099244V.1269989L.35798646 .07798767C.35598756 .041992189 .34999085 .034988405 .31900025 .032989503L.2679901 .0309906 .25898744 .02999878V0H.5359955V.02999878L.5269928 .0309906 .49398805 .032989503C.45498658 .035995485 .45098878 .039993287 .44898988 .07798767L.44599916 .1269989M.36099244 .6459961V.2769928H.083999637L.36099244 .6459961Z"/>
<path id="font_4_11" d="M.40499879 .20799256C.40499879 .085998538 .34899903 .011993408 .2579956 .011993408 .20098877 .011993408 .16499329 .034988405 .1639862 .07199097L.16299439 .10899353V.11999512H.11399841V-.0020141602C.15098572-.011001587 .16499329-.013000488 .19499207-.01600647 .21099854-.01701355 .22599793-.018005372 .24099732-.018005372 .40699769-.018005372 .5059967 .06498718 .5059967 .20498657 .5059967 .2789917 .47399903 .34599305 .41999818 .3829956 .36698915 .41999818 .2979889 .43699647 .20098877 .43699647H.15699768V.6389923H.4909973V.72299197H.1269989V.40098573H.14399719C.23298645 .40098573 .2639923 .3959961 .31199647 .37399293 .37199403 .34700013 .40499879 .2889862 .40499879 .20799256Z"/>
<path id="font_4_12" d="M.16299439 .36999513C.16499329 .46099855 .16799927 .4889984 .18099976 .54499819 .18899536 .5799866 .20298767 .6119995 .22099304 .6399994 .25099183 .68699648 .2919922 .71099856 .34199525 .71099856 .37399293 .71099856 .4059906 .70098879 .43598939 .6819916 .45498658 .66999819 .45700074 .6649933 .45899964 .6380005L.46199037 .60398867V.59298709H.5109863V.70899966C.46398927 .73098757 .41299439 .7409973 .35198976 .7409973 .25299073 .7409973 .18499756 .70799258 .13598633 .6369934 .084991458 .5629883 .05999756 .46899415 .05999756 .34999085 .05999756 .114990238 .1519928-.018005372 .31498719-.018005372 .44898988-.018005372 .5509949 .09298706 .5509949 .23699951 .5509949 .37098695 .46299745 .46398927 .33699037 .46398927 .2769928 .46398927 .22399903 .44198609 .18899536 .40299989 .18199158 .394989 .17298889 .38398744 .16299439 .36999513M.1659851 .2689972C.1659851 .34399415 .19499207 .3909912 .25698854 .41600038 .2769928 .4249878 .30099488 .42999269 .32199098 .42999269 .40699769 .42999269 .45498658 .35699464 .45498658 .22399903 .45498658 .09098816 .4079895 .0129852299 .32699586 .0129852299 .23098755 .0129852299 .1659851 .116989139 .1659851 .2689972Z"/>
<path id="font_4_1" d="M.3039856-.018005372C.45799256-.018005372 .5569916 .12998963 .5569916 .35899354 .5569916 .59199526 .45899964 .7409973 .3039856 .7409973 .1499939 .7409973 .050994874 .59199526 .050994874 .35899354 .050994874 .12998963 .15098572-.018005372 .3039856-.018005372M.3039856 .011993408C.2539978 .011993408 .20698548 .051986696 .18399048 .114990238 .1599884 .1789856 .15299988 .23298645 .15299988 .36099244 .15299988 .48999024 .16099549 .5499878 .18399048 .60798647 .20899964 .6719971 .2539978 .71099856 .3019867 .71099856 .35398866 .71099856 .40098573 .67099 .4249878 .60798647 .44799806 .54499819 .45498658 .48999024 .45498658 .36099244 .45498658 .23298645 .44799806 .17399597 .4249878 .114990238 .39898683 .049987794 .35499574 .011993408 .3039856 .011993408Z"/>
<path id="font_4_13" d="M.20498657 .11999512H.083999637V0H.20498657V.11999512Z"/>
</defs>
<path transform="matrix(1.5,0,0,-1.5,106.30457,64.13054)" d="M17.92313 4.35532C17.92313 14.2541 9.89879 22.27844 0 22.27844-9.89879 22.27844-17.92313 14.2541-17.92313 4.35532-17.92313-5.54347-9.89879-13.56781 0-13.56781 9.89879-13.56781 17.92313-5.54347 17.92313 4.35532ZM0 4.35532" fill="#d9d9ff"/>
<path transform="matrix(1.5,0,0,-1.5,106.30457,64.13054)" stroke-width="1.5" stroke-linecap="butt" stroke-miterlimit="10" stroke-linejoin="miter" fill="none" stroke="#0000bf" d="M17.92313 4.35532C17.92313 14.2541 9.89879 22.27844 0 22.27844-9.89879 22.27844-17.92313 14.2541-17.92313 4.35532-17.92313-5.54347-9.89879-13.56781 0-13.56781 9.89879-13.56781 17.92313-5.54347 17.92313 4.35532ZM0 4.35532"/>
<use data-text="1" xlink:href="#font_4_2" transform="matrix(17.932755,0,0,-17.932755,100.85601,64.13054)" fill="#0000e6"/>
<use data-text="1" xlink:href="#font_4_2" stroke-width=".020074999" stroke-linecap="butt" stroke-miterlimit="10" stroke-linejoin="miter" transform="matrix(17.932755,0,0,-17.932755,100.85601,64.13054)" fill="none" stroke="#0000e6"/>
<path transform="matrix(1.5,0,0,-1.5,226.10277,64.13054)" d="M17.92313 4.427C17.92313 14.3258 9.89879 22.35014 0 22.35014-9.89879 22.35014-17.92313 14.3258-17.92313 4.427-17.92313-5.47177-9.89879-13.49611 0-13.49611 9.89879-13.49611 17.92313-5.47177 17.92313 4.427ZM0 4.427" fill="#d9d9ff"/>
<path transform="matrix(1.5,0,0,-1.5,226.10277,64.13054)" stroke-width="1.5" stroke-linecap="butt" stroke-miterlimit="10" stroke-linejoin="miter" fill="none" stroke="#0000bf" d="M17.92313 4.427C17.92313 14.3258 9.89879 22.35014 0 22.35014-9.89879 22.35014-17.92313 14.3258-17.92313 4.427-17.92313-5.47177-9.89879-13.49611 0-13.49611 9.89879-13.49611 17.92313-5.47177 17.92313 4.427ZM0 4.427"/>
<use data-text="2" xlink:href="#font_4_6" transform="matrix(17.932755,0,0,-17.932755,220.6542,64.13054)" fill="#0000e6"/>
<use data-text="2" xlink:href="#font_4_6" stroke-width=".020074999" stroke-linecap="butt" stroke-miterlimit="10" stroke-linejoin="miter" transform="matrix(17.932755,0,0,-17.932755,220.6542,64.13054)" fill="none" stroke="#0000e6"/>
<path transform="matrix(1.5,0,0,-1.5,345.90098,64.13054)" d="M17.92313 4.31947C17.92313 14.21826 9.89879 22.2426 0 22.2426-9.89879 22.2426-17.92313 14.21826-17.92313 4.31947-17.92313-5.57932-9.89879-13.60365 0-13.60365 9.89879-13.60365 17.92313-5.57932 17.92313 4.31947ZM0 4.31947" fill="#d9d9ff"/>
<path transform="matrix(1.5,0,0,-1.5,345.90098,64.13054)" stroke-width="1.5" stroke-linecap="butt" stroke-miterlimit="10" stroke-linejoin="miter" fill="none" stroke="#0000bf" d="M17.92313 4.31947C17.92313 14.21826 9.89879 22.2426 0 22.2426-9.89879 22.2426-17.92313 14.21826-17.92313 4.31947-17.92313-5.57932-9.89879-13.60365 0-13.60365 9.89879-13.60365 17.92313-5.57932 17.92313 4.31947ZM0 4.31947"/>
<use data-text="3" xlink:href="#font_4_9" transform="matrix(17.932755,0,0,-17.932755,340.4524,64.13054)" fill="#0000e6"/>
<use data-text="3" xlink:href="#font_4_9" stroke-width=".020074999" stroke-linecap="butt" stroke-miterlimit="10" stroke-linejoin="miter" transform="matrix(17.932755,0,0,-17.932755,340.4524,64.13054)" fill="none" stroke="#0000e6"/>
<path transform="matrix(1.5,0,0,-1.5,106.304569,184.03627)" d="M17.92313 4.39116C17.92313 14.28996 9.89879 22.31429 0 22.31429-9.89879 22.31429-17.92313 14.28996-17.92313 4.39116-17.92313-5.50763-9.89879-13.53195 0-13.53195 9.89879-13.53195 17.92313-5.50763 17.92313 4.39116ZM0 4.39116" fill="#d9d9ff"/>
<path transform="matrix(1.5,0,0,-1.5,106.304569,184.03627)" stroke-width="1.5" stroke-linecap="butt" stroke-miterlimit="10" stroke-linejoin="miter" fill="none" stroke="#0000bf" d="M17.92313 4.39116C17.92313 14.28996 9.89879 22.31429 0 22.31429-9.89879 22.31429-17.92313 14.28996-17.92313 4.39116-17.92313-5.50763-9.89879-13.53195 0-13.53195 9.89879-13.53195 17.92313-5.50763 17.92313 4.39116ZM0 4.39116"/>
<use data-text="4" xlink:href="#font_4_10" transform="matrix(17.932755,0,0,-17.932755,100.856,184.03627)" fill="#0000e6"/>
<use data-text="4" xlink:href="#font_4_10" stroke-width=".020074999" stroke-linecap="butt" stroke-miterlimit="10" stroke-linejoin="miter" transform="matrix(17.932755,0,0,-17.932755,100.856,184.03627)" fill="none" stroke="#0000e6"/>
<path transform="matrix(1.5,0,0,-1.5,226.10276,184.03627)" d="M17.92313 4.21193C17.92313 14.11073 9.89879 22.13506 0 22.13506-9.89879 22.13506-17.92313 14.11073-17.92313 4.21193-17.92313-5.68686-9.89879-13.71118 0-13.71118 9.89879-13.71118 17.92313-5.68686 17.92313 4.21193ZM0 4.21193" fill="#d9d9ff"/>
<path transform="matrix(1.5,0,0,-1.5,226.10276,184.03627)" stroke-width="1.5" stroke-linecap="butt" stroke-miterlimit="10" stroke-linejoin="miter" fill="none" stroke="#0000bf" d="M17.92313 4.21193C17.92313 14.11073 9.89879 22.13506 0 22.13506-9.89879 22.13506-17.92313 14.11073-17.92313 4.21193-17.92313-5.68686-9.89879-13.71118 0-13.71118 9.89879-13.71118 17.92313-5.68686 17.92313 4.21193ZM0 4.21193"/>
<use data-text="5" xlink:href="#font_4_11" transform="matrix(17.932755,0,0,-17.932755,220.65419,184.03627)" fill="#0000e6"/>
<use data-text="5" xlink:href="#font_4_11" stroke-width=".020074999" stroke-linecap="butt" stroke-miterlimit="10" stroke-linejoin="miter" transform="matrix(17.932755,0,0,-17.932755,220.65419,184.03627)" fill="none" stroke="#0000e6"/>
<path transform="matrix(1.5,0,0,-1.5,345.90095,184.03627)" d="M17.92313 4.31947C17.92313 14.21826 9.89879 22.2426 0 22.2426-9.89879 22.2426-17.92313 14.21826-17.92313 4.31947-17.92313-5.57932-9.89879-13.60365 0-13.60365 9.89879-13.60365 17.92313-5.57932 17.92313 4.31947ZM0 4.31947" fill="#d9d9ff"/>
<path transform="matrix(1.5,0,0,-1.5,345.90095,184.03627)" stroke-width="1.5" stroke-linecap="butt" stroke-miterlimit="10" stroke-linejoin="miter" fill="none" stroke="#0000bf" d="M17.92313 4.31947C17.92313 14.21826 9.89879 22.2426 0 22.2426-9.89879 22.2426-17.92313 14.21826-17.92313 4.31947-17.92313-5.57932-9.89879-13.60365 0-13.60365 9.89879-13.60365 17.92313-5.57932 17.92313 4.31947ZM0 4.31947"/>
<use data-text="6" xlink:href="#font_4_12" transform="matrix(17.932755,0,0,-17.932755,340.4524,184.03627)" fill="#0000e6"/>
<use data-text="6" xlink:href="#font_4_12" stroke-width=".020074999" stroke-linecap="butt" stroke-miterlimit="10" stroke-linejoin="miter" transform="matrix(17.932755,0,0,-17.932755,340.4524,184.03627)" fill="none" stroke="#0000e6"/>
<path transform="matrix(1.5,0,0,-1.5,226.10277,117.60426)" stroke-width="1" stroke-linecap="butt" stroke-miterlimit="10" stroke-linejoin="miter" fill="none" stroke="#000000" d=""/>
<path transform="matrix(1.5,0,0,-1.5,226.10277,117.60426)" stroke-width="1" stroke-linecap="butt" stroke-miterlimit="10" stroke-linejoin="miter" fill="none" stroke="#000000" d="M-97.90338 35.17253C-127.02733 27.36873-127.02733 52.64113-99.67151 45.31102"/>
<path transform="matrix(1.448895,.38818497,.38818497,-1.448895,76.595508,49.637735)" stroke-width=".8" stroke-linecap="round" stroke-linejoin="round" fill="none" stroke="#000000" d="M-1.73685 2.3158C-1.59212 1.44737 0 .14473 .4342 0 0-.14473-1.59212-1.44737-1.73685-2.3158"/>
<use data-text="0" xlink:href="#font_4_1" transform="matrix(17.932755,0,0,-17.932755,12.787964,64.07681)"/>
<use data-text="." xlink:href="#font_4_13" transform="matrix(17.932755,0,0,-17.932755,23.69108,64.07681)"/>
<use data-text="5" xlink:href="#font_4_11" transform="matrix(17.932755,0,0,-17.932755,28.873644,64.07681)"/>
<path transform="matrix(1.5,0,0,-1.5,226.10277,117.60426)" stroke-width="1" stroke-linecap="butt" stroke-miterlimit="10" stroke-linejoin="miter" fill="none" stroke="#000000" d="M97.90338 44.80147C127.02733 52.60529 127.02733 27.33287 99.67151 34.66298"/>
<path transform="matrix(-1.448895,-.38818497,-.38818497,1.448895,375.61006,65.609798)" stroke-width=".8" stroke-linecap="round" stroke-linejoin="round" fill="none" stroke="#000000" d="M-1.73685 2.3158C-1.59212 1.44737 0 .14473 .4342 0 0-.14473-1.59212-1.44737-1.73685-2.3158"/>
<use data-text="0" xlink:href="#font_4_1" transform="matrix(17.932755,0,0,-17.932755,412.4436,64.130588)"/>
<use data-text="." xlink:href="#font_4_13" transform="matrix(17.932755,0,0,-17.932755,423.34675,64.130588)"/>
<use data-text="5" xlink:href="#font_4_11" transform="matrix(17.932755,0,0,-17.932755,428.5293,64.130588)"/>
<path transform="matrix(1.5,0,0,-1.5,226.10277,117.60426)" stroke-width="1" stroke-linecap="butt" stroke-miterlimit="10" stroke-linejoin="miter" fill="none" stroke="#000000" d="M97.90338-35.1367C127.02733-27.33289 127.02733-52.6053 99.67151-45.27519"/>
<path transform="matrix(-1.448895,-.38818497,-.38818497,1.448895,375.61006,185.51705)" stroke-width=".8" stroke-linecap="round" stroke-linejoin="round" fill="none" stroke="#000000" d="M-1.73685 2.3158C-1.59212 1.44737 0 .14473 .4342 0 0-.14473-1.59212-1.44737-1.73685-2.3158"/>
<use data-text="0" xlink:href="#font_4_1" transform="matrix(17.932755,0,0,-17.932755,412.4436,184.0362)"/>
<use data-text="." xlink:href="#font_4_13" transform="matrix(17.932755,0,0,-17.932755,423.34675,184.0362)"/>
<use data-text="5" xlink:href="#font_4_11" transform="matrix(17.932755,0,0,-17.932755,428.5293,184.0362)"/>
<path transform="matrix(1.5,0,0,-1.5,226.10277,117.60426)" stroke-width="1" stroke-linecap="butt" stroke-miterlimit="10" stroke-linejoin="miter" fill="none" stroke="#000000" d="M-63.70387 49.35574C-47.66211 58.63635-32.23755 58.65057-17.76546 50.31215"/>
<path transform="matrix(1.29969,.7488,.7488,-1.29969,199.45458,42.136026)" stroke-width=".8" stroke-linecap="round" stroke-linejoin="round" fill="none" stroke="#000000" d="M-1.73685 2.3158C-1.59212 1.44737 0 .14473 .4342 0 0-.14473-1.59212-1.44737-1.73685-2.3158"/>
<use data-text="0" xlink:href="#font_4_1" transform="matrix(17.932755,0,0,-17.932755,152.6949,26.068848)"/>
<use data-text="." xlink:href="#font_4_13" transform="matrix(17.932755,0,0,-17.932755,163.59803,26.068848)"/>
<use data-text="5" xlink:href="#font_4_11" transform="matrix(17.932755,0,0,-17.932755,168.7806,26.068848)"/>
<path transform="matrix(1.5,0,0,-1.5,226.10277,117.60426)" stroke-width="1" stroke-linecap="butt" stroke-miterlimit="10" stroke-linejoin="miter" fill="none" stroke="#000000" d="M-16.16261 30.7258C-32.20436 21.44519-47.62894 21.43097-62.10103 29.7694"/>
<path transform="matrix(-1.29969,-.7488,-.7488,1.29969,132.95124,72.950199)" stroke-width=".8" stroke-linecap="round" stroke-linejoin="round" fill="none" stroke="#000000" d="M-1.73685 2.3158C-1.59212 1.44737 0 .14473 .4342 0 0-.14473-1.59212-1.44737-1.73685-2.3158"/>
<use data-text="0" xlink:href="#font_4_1" transform="matrix(17.932755,0,0,-17.932755,152.73854,101.977237)"/>
<use data-text="." xlink:href="#font_4_13" transform="matrix(17.932755,0,0,-17.932755,163.64165,101.977237)"/>
<use data-text="5" xlink:href="#font_4_11" transform="matrix(17.932755,0,0,-17.932755,168.82422,101.977237)"/>
<path transform="matrix(1.5,0,0,-1.5,226.10277,117.60426)" stroke-width="1" stroke-linecap="butt" stroke-miterlimit="10" stroke-linejoin="miter" fill="none" stroke="#000000" d="M16.1837 49.39096C32.24594 58.63608 47.6705 58.615 62.12416 50.2446"/>
<path transform="matrix(1.29801,.751695,.751695,-1.29801,319.289,42.23735)" stroke-width=".8" stroke-linecap="round" stroke-linejoin="round" fill="none" stroke="#000000" d="M-1.73685 2.3158C-1.59212 1.44737 0 .14473 .4342 0 0-.14473-1.59212-1.44737-1.73685-2.3158"/>
<use data-text="0" xlink:href="#font_4_1" transform="matrix(17.932755,0,0,-17.932755,272.5477,26.095734)"/>
<use data-text="." xlink:href="#font_4_13" transform="matrix(17.932755,0,0,-17.932755,283.4508,26.095734)"/>
<use data-text="5" xlink:href="#font_4_11" transform="matrix(17.932755,0,0,-17.932755,288.63337,26.095734)"/>
<path transform="matrix(1.5,0,0,-1.5,226.10277,117.60426)" stroke-width="1" stroke-linecap="butt" stroke-miterlimit="10" stroke-linejoin="miter" fill="none" stroke="#000000" d="M63.68279 30.65474C47.62054 21.40962 32.19597 21.4307 17.74232 29.8011"/>
<path transform="matrix(-1.29801,-.751695,-.751695,1.29801,252.71628,72.902629)" stroke-width=".8" stroke-linecap="round" stroke-linejoin="round" fill="none" stroke="#000000" d="M-1.73685 2.3158C-1.59212 1.44737 0 .14473 .4342 0 0-.14473-1.59212-1.44737-1.73685-2.3158"/>
<use data-text="0" xlink:href="#font_4_1" transform="matrix(17.932755,0,0,-17.932755,272.48197,102.004138)"/>
<use data-text="." xlink:href="#font_4_13" transform="matrix(17.932755,0,0,-17.932755,283.38508,102.004138)"/>
<use data-text="5" xlink:href="#font_4_11" transform="matrix(17.932755,0,0,-17.932755,288.56767,102.004138)"/>
<path transform="matrix(1.5,0,0,-1.5,226.10277,117.60426)" stroke-width="1" stroke-linecap="butt" stroke-miterlimit="10" stroke-linejoin="miter" fill="none" stroke="#000000" d="M-63.67482-30.5976C-47.54163-21.33096-32.24182-21.36577-17.73323-29.78545"/>
<path transform="matrix(1.29732,.75285008,.75285008,-1.29732,199.50293,162.28241)" stroke-width=".8" stroke-linecap="round" stroke-linejoin="round" fill="none" stroke="#000000" d="M-1.73685 2.3158C-1.59212 1.44737 0 .14473 .4342 0 0-.14473-1.59212-1.44737-1.73685-2.3158"/>
<use data-text="0" xlink:href="#font_4_1" transform="matrix(17.932755,0,0,-17.932755,152.77121,146.06851)"/>
<use data-text="." xlink:href="#font_4_13" transform="matrix(17.932755,0,0,-17.932755,163.67432,146.06851)"/>
<use data-text="5" xlink:href="#font_4_11" transform="matrix(17.932755,0,0,-17.932755,168.85689,146.06851)"/>
<path transform="matrix(1.5,0,0,-1.5,226.10277,117.60426)" stroke-width="1" stroke-linecap="butt" stroke-miterlimit="10" stroke-linejoin="miter" fill="none" stroke="#000000" d="M-16.19167-49.37645C-32.32486-58.64307-47.62466-58.60828-62.13324-50.1886"/>
<path transform="matrix(-1.29732,-.75285008,-.75285008,1.29732,132.90291,192.88718)" stroke-width=".8" stroke-linecap="round" stroke-linejoin="round" fill="none" stroke="#000000" d="M-1.73685 2.3158C-1.59212 1.44737 0 .14473 .4342 0 0-.14473-1.59212-1.44737-1.73685-2.3158"/>
<use data-text="0" xlink:href="#font_4_1" transform="matrix(17.932755,0,0,-17.932755,152.66222,222.05773)"/>
<use data-text="." xlink:href="#font_4_13" transform="matrix(17.932755,0,0,-17.932755,163.56533,222.05773)"/>
<use data-text="5" xlink:href="#font_4_11" transform="matrix(17.932755,0,0,-17.932755,168.74791,222.05773)"/>
<path transform="matrix(1.5,0,0,-1.5,226.10277,117.60426)" stroke-width="1" stroke-linecap="butt" stroke-miterlimit="10" stroke-linejoin="miter" fill="none" stroke="#000000" d="M16.15833-30.71841C32.19597-21.43071 47.62054-21.40964 62.09634-29.74162"/>
<path transform="matrix(1.300005,.74826,.74826,-1.300005,319.24729,162.21669)" stroke-width=".8" stroke-linecap="round" stroke-linejoin="round" fill="none" stroke="#000000" d="M-1.73685 2.3158C-1.59212 1.44737 0 .14473 .4342 0 0-.14473-1.59212-1.44737-1.73685-2.3158"/>
<use data-text="0" xlink:href="#font_4_1" transform="matrix(17.932755,0,0,-17.932755,272.48197,146.16269)"/>
<use data-text="." xlink:href="#font_4_13" transform="matrix(17.932755,0,0,-17.932755,283.38508,146.16269)"/>
<use data-text="5" xlink:href="#font_4_11" transform="matrix(17.932755,0,0,-17.932755,288.56767,146.16269)"/>
<path transform="matrix(1.5,0,0,-1.5,226.10277,117.60426)" stroke-width="1" stroke-linecap="butt" stroke-miterlimit="10" stroke-linejoin="miter" fill="none" stroke="#000000" d="M63.70816-49.32732C47.6705-58.61502 32.24594-58.6361 17.77013-50.3041"/>
<path transform="matrix(-1.300005,-.74826,-.74826,1.300005,252.75797,193.06041)" stroke-width=".8" stroke-linecap="round" stroke-linejoin="round" fill="none" stroke="#000000" d="M-1.73685 2.3158C-1.59212 1.44737 0 .14473 .4342 0 0-.14473-1.59212-1.44737-1.73685-2.3158"/>
<use data-text="0" xlink:href="#font_4_1" transform="matrix(17.932755,0,0,-17.932755,272.5477,222.07108)"/>
<use data-text="." xlink:href="#font_4_13" transform="matrix(17.932755,0,0,-17.932755,283.4508,222.07108)"/>
<use data-text="5" xlink:href="#font_4_11" transform="matrix(17.932755,0,0,-17.932755,288.63337,222.07108)"/>
<path transform="matrix(1.5,0,0,-1.5,226.10277,117.60426)" stroke-width="1" stroke-linecap="butt" stroke-miterlimit="10" stroke-linejoin="miter" fill="none" stroke="#000000" d="M-79.86649-21.22426V19.50128"/>
<path transform="matrix(0,-1.5,-1.5,-0,106.303028,88.35234)" stroke-width=".8" stroke-linecap="round" stroke-linejoin="round" fill="none" stroke="#000000" d="M-1.73685 2.3158C-1.59212 1.44737 0 .14473 .4342 0 0-.14473-1.59212-1.44737-1.73685-2.3158"/>
<use data-text="0" xlink:href="#font_4_1" transform="matrix(17.932755,0,0,-17.932755,72.60695,124.00276)"/>
<use data-text="." xlink:href="#font_4_13" transform="matrix(17.932755,0,0,-17.932755,83.51006,124.00276)"/>
<use data-text="5" xlink:href="#font_4_11" transform="matrix(17.932755,0,0,-17.932755,88.69263,124.00276)"/>
</svg>
