<svg xmlns="http://www.w3.org/2000/svg" xmlns:xlink="http://www.w3.org/1999/xlink" xmlns:inkscape="http://www.inkscape.org/namespaces/inkscape" version="1.1" width="321.51347" height="81.64836" viewBox="0 0 321.51347 81.64836">
<defs>
<path id="font_9_1" d="M.3039856-.018005372C.45799256-.018005372 .5569916 .12998963 .5569916 .35899354 .5569916 .59199526 .45899964 .7409973 .3039856 .7409973 .1499939 .7409973 .050994874 .59199526 .050994874 .35899354 .050994874 .12998963 .15098572-.018005372 .3039856-.018005372M.3039856 .011993408C.2539978 .011993408 .20698548 .051986696 .18399048 .114990238 .1599884 .1789856 .15299988 .23298645 .15299988 .36099244 .15299988 .48999024 .16099549 .5499878 .18399048 .60798647 .20899964 .6719971 .2539978 .71099856 .3019867 .71099856 .35398866 .71099856 .40098573 .67099 .4249878 .60798647 .44799806 .54499819 .45498658 .48999024 .45498658 .36099244 .45498658 .23298645 .44799806 .17399597 .4249878 .114990238 .39898683 .049987794 .35499574 .011993408 .3039856 .011993408Z"/>
<path id="font_9_2" d="M.2559967 .57499697V.1269989L.25299073 .07798767C.25099183 .039993287 .24699402 .035995485 .20799256 .032989503L.1749878 .0309906 .116989139 .02999878V0H.4909973V.02999878L.43399049 .0309906 .40098573 .032989503C.3619995 .035995485 .35798646 .039993287 .35499574 .07798767L.35198976 .1269989V.72898867L.116989139 .66999819V.6399994L.1659851 .6489868 .20899964 .6569977C.21699524 .6579895 .22599793 .6589966 .23399353 .6589966 .24899292 .6589966 .25099183 .6549988 .25299073 .6239929L.2559967 .57499697Z"/>
</defs>
<path transform="matrix(1.5,0,0,-1.5,90.227718,47.33019)" d="M17.92313 4.31947C17.92313 14.21826 9.89879 22.2426 0 22.2426-9.89879 22.2426-17.92313 14.21826-17.92313 4.31947-17.92313-5.57932-9.89879-13.60365 0-13.60365 9.89879-13.60365 17.92313-5.57932 17.92313 4.31947ZM0 4.31947" fill="#d9d9ff"/>
<path transform="matrix(1.5,0,0,-1.5,90.227718,47.33019)" stroke-width="1.5" stroke-linecap="butt" stroke-miterlimit="10" stroke-linejoin="miter" fill="none" stroke="#0000bf" d="M17.92313 4.31947C17.92313 14.21826 9.89879 22.2426 0 22.2426-9.89879 22.2426-17.92313 14.21826-17.92313 4.31947-17.92313-5.57932-9.89879-13.60365 0-13.60365 9.89879-13.60365 17.92313-5.57932 17.92313 4.31947ZM0 4.31947"/>
<use data-text="0" xlink:href="#font_9_1" transform="matrix(17.932755,0,0,-17.932755,84.77915,47.33019)" fill="#0000e6"/>
<use data-text="0" xlink:href="#font_9_1" stroke-width=".020074999" stroke-linecap="butt" stroke-miterlimit="10" stroke-linejoin="miter" transform="matrix(17.932755,0,0,-17.932755,84.77915,47.33019)" fill="none" stroke="#0000e6"/>
<path transform="matrix(1.5,0,0,-1.5,231.28577,47.33019)" d="M17.92313 4.35532C17.92313 14.2541 9.89879 22.27844 0 22.27844-9.89879 22.27844-17.92313 14.2541-17.92313 4.35532-17.92313-5.54347-9.89879-13.56781 0-13.56781 9.89879-13.56781 17.92313-5.54347 17.92313 4.35532ZM0 4.35532" fill="#d9d9ff"/>
<path transform="matrix(1.5,0,0,-1.5,231.28577,47.33019)" stroke-width="1.5" stroke-linecap="butt" stroke-miterlimit="10" stroke-linejoin="miter" fill="none" stroke="#0000bf" d="M17.92313 4.35532C17.92313 14.2541 9.89879 22.27844 0 22.27844-9.89879 22.27844-17.92313 14.2541-17.92313 4.35532-17.92313-5.54347-9.89879-13.56781 0-13.56781 9.89879-13.56781 17.92313-5.54347 17.92313 4.35532ZM0 4.35532"/>
<use data-text="1" xlink:href="#font_9_2" transform="matrix(17.932755,0,0,-17.932755,225.8372,47.33019)" fill="#0000e6"/>
<use data-text="1" xlink:href="#font_9_2" stroke-width=".020074999" stroke-linecap="butt" stroke-miterlimit="10" stroke-linejoin="miter" transform="matrix(17.932755,0,0,-17.932755,225.8372,47.33019)" fill="none" stroke="#0000e6"/>
<path transform="matrix(1.5,0,0,-1.5,160.75673,40.824178)" stroke-width="1" stroke-linecap="butt" stroke-miterlimit="10" stroke-linejoin="miter" fill="none" stroke="#000000" d=""/>
<path transform="matrix(1.5,0,0,-1.5,160.75673,40.824178)" stroke-width="1" stroke-linecap="butt" stroke-miterlimit="10" stroke-linejoin="miter" fill="none" stroke="#000000" d="M-65.05682-4.85031C-94.18079-12.65411-94.18079 12.61827-66.82495 5.28816"/>
<path transform="matrix(1.448895,.38818497,.38818497,-1.448895,60.519304,32.891939)" stroke-width=".8" stroke-linecap="round" stroke-linejoin="round" fill="none" stroke="#000000" d="M-1.73685 2.3158C-1.59212 1.44737 0 .14473 .4342 0 0-.14473-1.59212-1.44737-1.73685-2.3158"/>
<use data-text="1" xlink:href="#font_9_2" transform="matrix(17.932755,0,0,-17.932755,12.787949,47.383939)"/>
<path transform="matrix(1.5,0,0,-1.5,160.75673,40.824178)" stroke-width="1" stroke-linecap="butt" stroke-miterlimit="10" stroke-linejoin="miter" fill="none" stroke="#000000" d="M65.05684 4.85031C94.1808 12.65411 94.1808-12.61827 66.82497-5.28816"/>
<path transform="matrix(-1.448895,-.38818497,-.38818497,1.448895,260.99418,48.756418)" stroke-width=".8" stroke-linecap="round" stroke-linejoin="round" fill="none" stroke="#000000" d="M-1.73685 2.3158C-1.59212 1.44737 0 .14473 .4342 0 0-.14473-1.59212-1.44737-1.73685-2.3158"/>
<use data-text="1" xlink:href="#font_9_2" transform="matrix(17.932755,0,0,-17.932755,297.82838,47.33021)"/>
</svg>
