<svg xmlns="http://www.w3.org/2000/svg" xmlns:xlink="http://www.w3.org/1999/xlink" xmlns:inkscape="http://www.inkscape.org/namespaces/inkscape" version="1.1" width="791.2581" height="170.73957" viewBox="0 0 791.2581 170.73957">
<defs>
<path id="font_1_1" d="M.3039856-.018005372C.45799256-.018005372 .5569916 .12998963 .5569916 .35899354 .5569916 .59199526 .45899964 .7409973 .3039856 .7409973 .1499939 .7409973 .050994874 .59199526 .050994874 .35899354 .050994874 .12998963 .15098572-.018005372 .3039856-.018005372M.3039856 .011993408C.2539978 .011993408 .20698548 .051986696 .18399048 .114990238 .1599884 .1789856 .15299988 .23298645 .15299988 .36099244 .15299988 .48999024 .16099549 .5499878 .18399048 .60798647 .20899964 .6719971 .2539978 .71099856 .3019867 .71099856 .35398866 .71099856 .40098573 .67099 .4249878 .60798647 .44799806 .54499819 .45498658 .48999024 .45498658 .36099244 .45498658 .23298645 .44799806 .17399597 .4249878 .114990238 .39898683 .049987794 .35499574 .011993408 .3039856 .011993408Z"/>
<path id="font_1_2" d="M.2559967 .57499697V.1269989L.25299073 .07798767C.25099183 .039993287 .24699402 .035995485 .20799256 .032989503L.1749878 .0309906 .116989139 .02999878V0H.4909973V.02999878L.43399049 .0309906 .40098573 .032989503C.3619995 .035995485 .35798646 .039993287 .35499574 .07798767L.35198976 .1269989V.72898867L.116989139 .66999819V.6399994L.1659851 .6489868 .20899964 .6569977C.21699524 .6579895 .22599793 .6589966 .23399353 .6589966 .24899292 .6589966 .25099183 .6549988 .25299073 .6239929L.2559967 .57499697Z"/>
<path id="font_1_6" d="M.4099884 .5469971C.4099884 .5209961 .40499879 .49299623 .397995 .47099305 .37998963 .4229889 .34799195 .3829956 .2599945 .30099488L.20899964 .2519989C.17098999 .21699524 .14898682 .19099427 .1269989 .1559906 .10598755 .12098694 .09599304 .100997928 .07798767 .04798889V0H.5089874V.083999637H.15699768C.16299439 .12998963 .16899109 .147995 .19198609 .18299866 .21998596 .22499085 .24598694 .24899292 .31199647 .29499818L.36999513 .33499146C.47299195 .40499879 .5119934 .46398927 .5119934 .54599 .5119934 .6599884 .4189911 .7409973 .28799439 .7409973 .23098755 .7409973 .1619873 .72499087 .09498596 .69699099V.5649872H.14299011V.57699587C.14698792 .647995 .147995 .6519928 .1539917 .6629944 .1579895 .6689911 .16499329 .6749878 .1749878 .68099978 .20498657 .69898989 .24099732 .70999148 .2769928 .70999148 .35699464 .70999148 .4099884 .6459961 .4099884 .5469971Z"/>
<path id="font_1_7" d="M.1329956 .26098634H.2769928V.4059906H.1329956V.26098634Z"/>
<path id="font_1_8" d="M.43199159 .12799073 .45799256 .08299255C.47299195 .056991579 .47799684 .04798889 .47799684 .042999269 .47799684 .032989503 .46398927 .02999878 .42099 .02999878H.4099884L.4039917 0H.66999819L.6759949 .02999878 .6669922 .0309906C.6230011 .033996583 .61099246 .039993287 .59098818 .068984989L.5549927 .12399292 .36299134 .4039917 .58499148 .59298709 .66799929 .6669922C.6879883 .68499758 .70098879 .69099429 .72698977 .69099429L.7480011 .69200137 .7569885 .69299319 .7630005 .72299197H.55400088L.5479889 .69299319H.5589905L.58999636 .69200137C.6139984 .69200137 .621994 .6899872 .621994 .68699648 .621994 .68299868 .6100006 .6689911 .5799866 .6389923 .5609894 .6199951 .5469971 .6049957 .5359955 .59599307L.27198792 .36799623 .31698609 .59599307 .32998658 .644989C.33999635 .68299868 .34498597 .68699648 .38398744 .6899872L.41799928 .69200137 .4269867 .69299319 .43299867 .72299197H.1499939L.14399719 .69299319 .15299988 .69200137 .18499756 .6899872C.21899414 .68699648 .22299195 .68499758 .22299195 .6649933 .22299195 .6579895 .22200012 .651001 .22200012 .644989L.21499634 .59599307 .12199402 .12599182 .10899353 .07798767C.09899902 .039993287 .09399414 .035995485 .054992677 .032989503L.020996094 .0309906 .011993408 .02999878 .005996704 0H.2829895L.2889862 .02999878 .27999879 .0309906 .25 .032989503C.21998596 .034988405 .21598816 .038986207 .21598816 .057998659 .21598816 .06498718 .21598816 .07199097 .21699524 .07798767L.22399903 .12599182 .2709961 .36499024 .43199159 .12799073Z"/>
<path id="font_1_3" d="M.10798645 .2979889H.7589874V.35198976H.10798645V.2979889Z"/>
<g id="font_2_1">
<clipPath id="clip_3">
<path transform="matrix(.08364584,0,0,.08364584,0,-.03518041)" d="M-1-1H11V2H-1Z"/>
</clipPath>
<g clip-path="url(#clip_3)">
<use data-text="&#x2212;" xlink:href="#font_1_3" transform="matrix(1.0000002,0,0,1.0000002,-.10398282,-.3254212)"/>
<use data-text="&#x2212;" xlink:href="#font_1_3" transform="matrix(1.0000002,0,0,1.0000002,.041497217,-.3254212)"/>
</g>
</g>
<path id="font_1_9" d="M.15699768 .40098573V.36999513H.21598816C.33799745 .36999513 .4099884 .30499269 .4099884 .19499207 .4099884 .084991458 .35299684 .011993408 .2679901 .011993408 .23498535 .011993408 .19799805 .022994996 .16699219 .040985109 .1459961 .052993776 .14099121 .06199646 .13999939 .08799744L.13899231 .12199402V.1329956H.08999634V.004989624C.12799073-.006011963 .14199829-.009002686 .18899536-.014007568 .21798706-.01701355 .24499512-.018005372 .269989-.018005372 .41799928-.018005372 .5109863 .06498718 .5109863 .19799805 .5109863 .25898744 .48799134 .31199647 .44898988 .34298707 .4189911 .3659973 .39898683 .375 .33699037 .3909912 .43798829 .4269867 .4889984 .48999024 .4889984 .57499697 .4889984 .6779938 .40699769 .7409973 .27198792 .7409973 .21899414 .7409973 .15499878 .7319946 .115997318 .7200012 .11199951 .71899417 .10499573 .71598818 .09599304 .71299746V.60198977H.14399719L.14498902 .6100006C.1459961 .6309967 .14698792 .644989 .147995 .6539917 .14898682 .66600039 .1519928 .673996 .1559906 .67900088 .1579895 .68299868 .16499329 .68699648 .17399597 .69099429 .20298767 .70399478 .23498535 .71099856 .2649994 .71099856 .34599305 .71099856 .3939972 .6569977 .3939972 .56599429 .3939972 .44898988 .33399964 .40098573 .18899536 .40098573H.15699768Z"/>
</defs>
<path transform="matrix(1.5,0,0,-1.5,50.13375,91.273)" d="M23.8975 4.31947C23.8975 17.51785 13.19838 28.21698 0 28.21698-13.19838 28.21698-23.8975 17.51785-23.8975 4.31947-23.8975-8.8789-13.19838-19.57803 0-19.57803 13.19838-19.57803 23.8975-8.8789 23.8975 4.31947ZM0 4.31947" fill="#bfbfff"/>
<path transform="matrix(1.5,0,0,-1.5,50.13375,91.273)" stroke-width="2.00002" stroke-linecap="butt" stroke-miterlimit="10" stroke-linejoin="miter" fill="none" stroke="#2626ff" d="M23.8975 4.31947C23.8975 17.51785 13.19838 28.21698 0 28.21698-13.19838 28.21698-23.8975 17.51785-23.8975 4.31947-23.8975-8.8789-13.19838-19.57803 0-19.57803 13.19838-19.57803 23.8975-8.8789 23.8975 4.31947ZM0 4.31947"/>
<use data-text="0" xlink:href="#font_1_1" transform="matrix(17.932755,0,0,-17.932755,44.68519,91.27301)"/>
<path transform="matrix(1.5,0,0,-1.5,188.60483,91.273)" d="M23.8975 4.35532C23.8975 17.5537 13.19838 28.25282 0 28.25282-13.19838 28.25282-23.8975 17.5537-23.8975 4.35532-23.8975-8.84306-13.19838-19.54218 0-19.54218 13.19838-19.54218 23.8975-8.84306 23.8975 4.35532ZM0 4.35532" fill="#bfbfff"/>
<path transform="matrix(1.5,0,0,-1.5,188.60483,91.273)" stroke-width="2.00002" stroke-linecap="butt" stroke-miterlimit="10" stroke-linejoin="miter" fill="none" stroke="#2626ff" d="M23.8975 4.35532C23.8975 17.5537 13.19838 28.25282 0 28.25282-13.19838 28.25282-23.8975 17.5537-23.8975 4.35532-23.8975-8.84306-13.19838-19.54218 0-19.54218 13.19838-19.54218 23.8975-8.84306 23.8975 4.35532ZM0 4.35532"/>
<use data-text="1" xlink:href="#font_1_2" transform="matrix(17.932755,0,0,-17.932755,183.15627,91.27301)"/>
<path transform="matrix(1.5,0,0,-1.5,327.07594,91.273)" d="M23.8975 4.427C23.8975 17.6254 13.19838 28.32451 0 28.32451-13.19838 28.32451-23.8975 17.6254-23.8975 4.427-23.8975-8.77136-13.19838-19.47049 0-19.47049 13.19838-19.47049 23.8975-8.77136 23.8975 4.427ZM0 4.427" fill="#bfbfff"/>
<path transform="matrix(1.5,0,0,-1.5,327.07594,91.273)" stroke-width="2.00002" stroke-linecap="butt" stroke-miterlimit="10" stroke-linejoin="miter" fill="none" stroke="#2626ff" d="M23.8975 4.427C23.8975 17.6254 13.19838 28.32451 0 28.32451-13.19838 28.32451-23.8975 17.6254-23.8975 4.427-23.8975-8.77136-13.19838-19.47049 0-19.47049 13.19838-19.47049 23.8975-8.77136 23.8975 4.427ZM0 4.427"/>
<use data-text="2" xlink:href="#font_1_6" transform="matrix(17.932755,0,0,-17.932755,321.62739,91.27301)"/>
<use data-text="&#x22c5;" xlink:href="#font_1_7" transform="matrix(17.932755,0,0,-17.932755,415.0389,91.27301)"/>
<use data-text="&#x22c5;" xlink:href="#font_1_7" transform="matrix(17.932755,0,0,-17.932755,426.3763,91.27301)"/>
<use data-text="&#x22c5;" xlink:href="#font_1_7" transform="matrix(17.932755,0,0,-17.932755,437.71379,91.27301)"/>
<use data-text="&#x22c5;" xlink:href="#font_1_7" transform="matrix(17.932755,0,0,-17.932755,449.05119,91.27301)"/>
<use data-text="&#x22c5;" xlink:href="#font_1_7" transform="matrix(17.932755,0,0,-17.932755,460.38865,91.27301)"/>
<use data-text="&#x22c5;" xlink:href="#font_1_7" transform="matrix(17.932755,0,0,-17.932755,471.72605,91.27301)"/>
<use data-text="&#x22c5;" xlink:href="#font_1_7" transform="matrix(17.932755,0,0,-17.932755,483.0635,91.27301)"/>
<use data-text="&#x22c5;" xlink:href="#font_1_7" transform="matrix(17.932755,0,0,-17.932755,494.4009,91.27301)"/>
<use data-text="&#x22c5;" xlink:href="#font_1_7" transform="matrix(17.932755,0,0,-17.932755,505.73838,91.27301)"/>
<path transform="matrix(1.5,0,0,-1.5,601.83578,91.273)" d="M24.44258 4.35532C24.44258 17.85475 13.49942 28.79791 0 28.79791-13.49942 28.79791-24.44258 17.85475-24.44258 4.35532-24.44258-9.1441-13.49942-20.08727 0-20.08727 13.49942-20.08727 24.44258-9.1441 24.44258 4.35532ZM0 4.35532" fill="#bfbfff"/>
<path transform="matrix(1.5,0,0,-1.5,601.83578,91.273)" stroke-width="2.00002" stroke-linecap="butt" stroke-miterlimit="10" stroke-linejoin="miter" fill="none" stroke="#2626ff" d="M24.44258 4.35532C24.44258 17.85475 13.49942 28.79791 0 28.79791-13.49942 28.79791-24.44258 17.85475-24.44258 4.35532-24.44258-9.1441-13.49942-20.08727 0-20.08727 13.49942-20.08727 24.44258-9.1441 24.44258 4.35532ZM0 4.35532"/>
<use data-text="&#x1d43e;" xlink:href="#font_1_8" transform="matrix(17.932755,0,0,-17.932755,577.4275,91.27301)"/>
<use data-text="&#x2212;" xlink:href="#font_1_3" transform="matrix(17.932755,0,0,-17.932755,595.8305,91.27301)"/>
<use data-text="1" xlink:href="#font_1_2" transform="matrix(17.932755,0,0,-17.932755,615.3632,91.27301)"/>
<path transform="matrix(1.5,0,0,-1.5,741.12448,91.273)" d="M23.8975 4.31947C23.8975 17.51785 13.19838 28.21698 0 28.21698-13.19838 28.21698-23.8975 17.51785-23.8975 4.31947-23.8975-8.8789-13.19838-19.57803 0-19.57803 13.19838-19.57803 23.8975-8.8789 23.8975 4.31947ZM0 4.31947" fill="#bfbfff"/>
<path transform="matrix(1.5,0,0,-1.5,741.12448,91.273)" stroke-width="2.00002" stroke-linecap="butt" stroke-miterlimit="10" stroke-linejoin="miter" fill="none" stroke="#2626ff" d="M23.8975 4.31947C23.8975 17.51785 13.19838 28.21698 0 28.21698-13.19838 28.21698-23.8975 17.51785-23.8975 4.31947-23.8975-8.8789-13.19838-19.57803 0-19.57803 13.19838-19.57803 23.8975-8.8789 23.8975 4.31947ZM0 4.31947"/>
<use data-text="&#x1d43e;" xlink:href="#font_1_8" transform="matrix(17.932755,0,0,-17.932755,733.91946,91.27301)"/>
<path transform="matrix(1.5,0,0,-1.5,395.62907,85.02858)" stroke-width="1" stroke-linecap="butt" stroke-miterlimit="10" stroke-linejoin="miter" fill="none" stroke="#000000" d=""/>
<path transform="matrix(1.5,0,0,-1.5,395.62907,85.02858)" stroke-width="1" stroke-linecap="butt" stroke-miterlimit="10" stroke-linejoin="miter" fill="none" stroke="#000000" d="M-208.77657 12.61319C-192.16716 22.21138-176.20142 22.21733-161.17005 13.54689"/>
<path transform="matrix(1.299345,.749445,.749445,-1.299345,153.874,64.708248)" stroke-width=".8" stroke-linecap="round" stroke-linejoin="round" fill="none" stroke="#000000" d="M-1.73685 2.3158C-1.59212 1.44737 0 .14473 .4342 0 0-.14473-1.59212-1.44737-1.73685-2.3158"/>
<use data-text="1" xlink:href="#font_1_2" transform="matrix(17.932755,0,0,-17.932755,113.90909,48.580659)"/>
<path transform="matrix(1.5,0,0,-1.5,395.62907,85.02858)" stroke-width="1" stroke-linecap="butt" stroke-miterlimit="10" stroke-linejoin="miter" fill="none" stroke="#000000" d="M-159.57456-12.2644C-176.18395-21.86258-192.1497-21.86855-207.18106-13.19809"/>
<path transform="matrix(-1.299345,-.749445,-.749445,1.299345,84.85745,104.825717)" stroke-width=".8" stroke-linecap="round" stroke-linejoin="round" fill="none" stroke="#000000" d="M-1.73685 2.3158C-1.59212 1.44737 0 .14473 .4342 0 0-.14473-1.59212-1.44737-1.73685-2.3158"/>
<use data-text="1" xlink:href="#font_1_2" transform="matrix(17.932755,0,0,-17.932755,113.932437,134.98696)"/>
<use data-text="&#x2044;" xlink:href="#font_2_1" transform="matrix(17.932755,0,0,-17.932755,112.175998,138.71849)"/>
<use data-text="&#x1d43e;" xlink:href="#font_1_8" transform="matrix(17.932755,0,0,-17.932755,112.175998,154.09993)"/>
<path transform="matrix(1.5,0,0,-1.5,395.62907,85.02858)" stroke-width="1" stroke-linecap="butt" stroke-miterlimit="10" stroke-linejoin="miter" fill="none" stroke="#000000" d="M-116.46588 12.65741C-99.86015 22.26192-83.8944 22.27432-68.85966 13.60963"/>
<path transform="matrix(1.2996,.74896499,.74896499,-1.2996,292.33958,64.614109)" stroke-width=".8" stroke-linecap="round" stroke-linejoin="round" fill="none" stroke="#000000" d="M-1.73685 2.3158C-1.59212 1.44737 0 .14473 .4342 0 0-.14473-1.59212-1.44737-1.73685-2.3158"/>
<use data-text="1" xlink:href="#font_1_2" transform="matrix(17.932755,0,0,-17.932755,233.40952,36.559755)"/>
<use data-text="&#x2212;" xlink:href="#font_1_3" transform="matrix(17.932755,0,0,-17.932755,248.29764,36.559755)"/>
<use data-text="1" xlink:href="#font_1_2" transform="matrix(17.932755,0,0,-17.932755,269.5724,27.003266)"/>
<use data-text="&#x2044;" xlink:href="#font_2_1" transform="matrix(17.932755,0,0,-17.932755,267.81599,30.734803)"/>
<use data-text="&#x1d43e;" xlink:href="#font_1_8" transform="matrix(17.932755,0,0,-17.932755,267.81599,46.116228)"/>
<path transform="matrix(1.5,0,0,-1.5,395.62907,85.02858)" stroke-width="1" stroke-linecap="butt" stroke-miterlimit="10" stroke-linejoin="miter" fill="none" stroke="#000000" d="M-67.25475-12.20107C-83.86047-21.80559-99.82623-21.818-114.86096-13.1533"/>
<path transform="matrix(-1.2996,-.74896499,-.74896499,1.2996,223.33762,104.75856)" stroke-width=".8" stroke-linecap="round" stroke-linejoin="round" fill="none" stroke="#000000" d="M-1.73685 2.3158C-1.59212 1.44737 0 .14473 .4342 0 0-.14473-1.59212-1.44737-1.73685-2.3158"/>
<use data-text="2" xlink:href="#font_1_6" transform="matrix(17.932755,0,0,-17.932755,252.41449,134.90631)"/>
<use data-text="&#x2044;" xlink:href="#font_2_1" transform="matrix(17.932755,0,0,-17.932755,250.65805,138.63785)"/>
<use data-text="&#x1d43e;" xlink:href="#font_1_8" transform="matrix(17.932755,0,0,-17.932755,250.65805,154.01929)"/>
<path transform="matrix(1.5,0,0,-1.5,395.62907,85.02858)" stroke-width="1" stroke-linecap="butt" stroke-miterlimit="10" stroke-linejoin="miter" fill="none" stroke="#000000" d="M159.51113 12.90506C176.27036 22.44913 192.13152 22.35504 207.19686 13.53777"/>
<path transform="matrix(1.2945,.75765,.75765,-1.2945,706.4243,64.72191)" stroke-width=".8" stroke-linecap="round" stroke-linejoin="round" fill="none" stroke="#000000" d="M-1.73685 2.3158C-1.59212 1.44737 0 .14473 .4342 0 0-.14473-1.59212-1.44737-1.73685-2.3158"/>
<use data-text="1" xlink:href="#font_1_2" transform="matrix(17.932755,0,0,-17.932755,666.45687,26.821579)"/>
<use data-text="&#x2044;" xlink:href="#font_2_1" transform="matrix(17.932755,0,0,-17.932755,664.70046,30.553132)"/>
<use data-text="&#x1d43e;" xlink:href="#font_1_8" transform="matrix(17.932755,0,0,-17.932755,664.70046,45.934556)"/>
<path transform="matrix(1.5,0,0,-1.5,395.62907,85.02858)" stroke-width="1" stroke-linecap="butt" stroke-miterlimit="10" stroke-linejoin="miter" fill="none" stroke="#000000" d="M208.76709-12.2839C192.11403-22.01268 176.25334-22.09462 161.09125-13.44417"/>
<path transform="matrix(-1.3027949,-.743295,-.743295,1.3027949,637.266,105.19484)" stroke-width=".8" stroke-linecap="round" stroke-linejoin="round" fill="none" stroke="#000000" d="M-1.73685 2.3158C-1.59212 1.44737 0 .14473 .4342 0 0-.14473-1.59212-1.44737-1.73685-2.3158"/>
<use data-text="1" xlink:href="#font_1_2" transform="matrix(17.932755,0,0,-17.932755,666.4339,134.28189)"/>
<path transform="matrix(1.5,0,0,-1.5,395.62907,85.02858)" stroke-width="1" stroke-linecap="butt" stroke-miterlimit="10" stroke-linejoin="miter" fill="none" stroke="#000000" d="M-23.87444 12.23674C-7.32915 21.31168 8.19766 20.97127 22.76471 12.12985"/>
<path transform="matrix(1.282245,.778245,.778245,-1.282245,429.77613,66.8338)" stroke-width=".8" stroke-linecap="round" stroke-linejoin="round" fill="none" stroke="#000000" d="M-1.73685 2.3158C-1.59212 1.44737 0 .14473 .4342 0 0-.14473-1.59212-1.44737-1.73685-2.3158"/>
<use data-text="1" xlink:href="#font_1_2" transform="matrix(17.932755,0,0,-17.932755,371.79469,38.190248)"/>
<use data-text="&#x2212;" xlink:href="#font_1_3" transform="matrix(17.932755,0,0,-17.932755,386.6828,38.190248)"/>
<use data-text="2" xlink:href="#font_1_6" transform="matrix(17.932755,0,0,-17.932755,407.95759,28.633774)"/>
<use data-text="&#x2044;" xlink:href="#font_2_1" transform="matrix(17.932755,0,0,-17.932755,406.2011,32.36531)"/>
<use data-text="&#x1d43e;" xlink:href="#font_1_8" transform="matrix(17.932755,0,0,-17.932755,406.2011,47.74675)"/>
<path transform="matrix(1.5,0,0,-1.5,395.62907,85.02858)" stroke-width="1" stroke-linecap="butt" stroke-miterlimit="10" stroke-linejoin="miter" fill="none" stroke="#000000" d="M23.78429-13.71013C7.239-22.78506-8.28781-22.44467-22.85486-13.60324"/>
<path transform="matrix(-1.282245,-.778245,-.778245,1.282245,361.3468,105.43344)" stroke-width=".8" stroke-linecap="round" stroke-linejoin="round" fill="none" stroke="#000000" d="M-1.73685 2.3158C-1.59212 1.44737 0 .14473 .4342 0 0-.14473-1.59212-1.44737-1.73685-2.3158"/>
<use data-text="3" xlink:href="#font_1_9" transform="matrix(17.932755,0,0,-17.932755,389.47138,136.17037)"/>
<use data-text="&#x2044;" xlink:href="#font_2_1" transform="matrix(17.932755,0,0,-17.932755,387.71498,139.9019)"/>
<use data-text="&#x1d43e;" xlink:href="#font_1_8" transform="matrix(17.932755,0,0,-17.932755,387.71498,155.28333)"/>
<path transform="matrix(1.5,0,0,-1.5,395.62907,85.02858)" stroke-width="1" stroke-linecap="butt" stroke-miterlimit="10" stroke-linejoin="miter" fill="none" stroke="#000000" d="M66.90701 11.16077C83.0144 21.04134 98.56667 21.45642 113.56822 13.31999"/>
<path transform="matrix(1.3185,.715095,.715095,-1.3185,565.9813,65.0486)" stroke-width=".8" stroke-linecap="round" stroke-linejoin="round" fill="none" stroke="#000000" d="M-1.73685 2.3158C-1.59212 1.44737 0 .14473 .4342 0 0-.14473-1.59212-1.44737-1.73685-2.3158"/>
<use data-text="2" xlink:href="#font_1_6" transform="matrix(17.932755,0,0,-17.932755,526.4588,28.477082)"/>
<use data-text="&#x2044;" xlink:href="#font_2_1" transform="matrix(17.932755,0,0,-17.932755,524.7024,32.20862)"/>
<use data-text="&#x1d43e;" xlink:href="#font_1_8" transform="matrix(17.932755,0,0,-17.932755,524.7024,47.59005)"/>
<path transform="matrix(1.5,0,0,-1.5,395.62907,85.02858)" stroke-width="1" stroke-linecap="butt" stroke-miterlimit="10" stroke-linejoin="miter" fill="none" stroke="#000000" d="M115.71219-12.98824C99.49005-22.6894 83.94308-22.92801 69.0296-14.62062"/>
<path transform="matrix(-1.31037,-.72993007,-.72993007,1.31037,499.1735,106.95954)" stroke-width=".8" stroke-linecap="round" stroke-linejoin="round" fill="none" stroke="#000000" d="M-1.73685 2.3158C-1.59212 1.44737 0 .14473 .4342 0 0-.14473-1.59212-1.44737-1.73685-2.3158"/>
<use data-text="1" xlink:href="#font_1_2" transform="matrix(17.932755,0,0,-17.932755,508.7394,146.01139)"/>
<use data-text="&#x2212;" xlink:href="#font_1_3" transform="matrix(17.932755,0,0,-17.932755,523.62759,146.01139)"/>
<use data-text="1" xlink:href="#font_1_2" transform="matrix(17.932755,0,0,-17.932755,544.90237,136.4549)"/>
<use data-text="&#x2044;" xlink:href="#font_2_1" transform="matrix(17.932755,0,0,-17.932755,543.1459,140.18643)"/>
<use data-text="&#x1d43e;" xlink:href="#font_1_8" transform="matrix(17.932755,0,0,-17.932755,543.1459,155.56787)"/>
</svg>
