<svg xmlns="http://www.w3.org/2000/svg" xmlns:xlink="http://www.w3.org/1999/xlink" xmlns:inkscape="http://www.inkscape.org/namespaces/inkscape" version="1.1" width="322.44548" height="101.369579" viewBox="0 0 322.44548 101.369579">
<defs>
<path id="font_7_1" d="M.3039856-.018005372C.45799256-.018005372 .5569916 .12998963 .5569916 .35899354 .5569916 .59199526 .45899964 .7409973 .3039856 .7409973 .1499939 .7409973 .050994874 .59199526 .050994874 .35899354 .050994874 .12998963 .15098572-.018005372 .3039856-.018005372M.3039856 .011993408C.2539978 .011993408 .20698548 .051986696 .18399048 .114990238 .1599884 .1789856 .15299988 .23298645 .15299988 .36099244 .15299988 .48999024 .16099549 .5499878 .18399048 .60798647 .20899964 .6719971 .2539978 .71099856 .3019867 .71099856 .35398866 .71099856 .40098573 .67099 .4249878 .60798647 .44799806 .54499819 .45498658 .48999024 .45498658 .36099244 .45498658 .23298645 .44799806 .17399597 .4249878 .114990238 .39898683 .049987794 .35499574 .011993408 .3039856 .011993408Z"/>
<path id="font_7_2" d="M.2559967 .57499697V.1269989L.25299073 .07798767C.25099183 .039993287 .24699402 .035995485 .20799256 .032989503L.1749878 .0309906 .116989139 .02999878V0H.4909973V.02999878L.43399049 .0309906 .40098573 .032989503C.3619995 .035995485 .35798646 .039993287 .35499574 .07798767L.35198976 .1269989V.72898867L.116989139 .66999819V.6399994L.1659851 .6489868 .20899964 .6569977C.21699524 .6579895 .22599793 .6589966 .23399353 .6589966 .24899292 .6589966 .25099183 .6549988 .25299073 .6239929L.2559967 .57499697Z"/>
<path id="font_7_15" d="M.33799745-.2110138 .57499697-.14001465 .58200076-.10600281C.5529938-.11500549 .5169983-.1230011 .5009918-.1230011 .47698976-.1230011 .46798707-.11100769 .46798707-.08000183 .46798707-.053009035 .47399903-.010009766 .48799134 .05899048L.58200076 .5299988C.5569916 .5329895 .5529938 .5329895 .5019989 .5349884 .47499085 .5359955 .45599366 .5359955 .44400025 .5359955 .33599855 .5359955 .2599945 .5019989 .18399048 .42199708 .099990848 .33198548 .04798889 .21499634 .04798889 .115997318 .04798889 .037994386 .08799744-.012008667 .1499939-.012008667 .21499634-.012008667 .2939911 .04899597 .36299134 .1519928 .38598634 .18598938 .3959961 .20498657 .42599488 .2649994H.43299867L.33799745-.2110138M.44898988 .34899903C.43299867 .30999757 .42799378 .30299378 .38198854 .23999024 .34399415 .18699646 .31599427 .14898682 .29699708 .12599182 .2659912 .08799744 .22399903 .05999756 .19499207 .05999756 .16699219 .05999756 .15098572 .08699036 .15098572 .13598633 .15098572 .21099854 .19198609 .34498597 .23799134 .41999818 .2639923 .46299745 .30699159 .48799134 .35299684 .48799134 .3809967 .48799134 .4269867 .47898866 .45199586 .46899415 .45599366 .46798707 .46199037 .46499635 .47099305 .45999146L.44898988 .34899903Z"/>
<path id="font_7_14" d="M.23999024 .17999268C.26098634 .21899414 .2669983 .22799683 .30999757 .2899933 .34298707 .33599855 .37098695 .37399293 .3959961 .40299989 .42900086 .44299317 .47099305 .46998597 .49899293 .46998597 .5289917 .46998597 .54499819 .44299317 .54499819 .3929901 .54499819 .31799317 .5039978 .18598938 .45799256 .10998535 .43099977 .066986087 .3880005 .041992189 .33999635 .041992189 .31199647 .041992189 .2669983 .049987794 .23999024 .05999756 .23498535 .06199646 .22799683 .06498718 .21798706 .068984989L.23999024 .17999268M.20498657 0C.21199036-.0010070801 .21699524-.0020141602 .22099304-.0020141602 .23999024-.0040130617 .25-.006011963 .2519989-.006011963 .2599945-.007003784 .2669983-.007003784 .2749939-.007003784 .35499574-.007003784 .44099427 .034988405 .5119934 .10798645 .59399417 .19400025 .647995 .31399537 .647995 .4139862 .647995 .49198915 .6069946 .5419922 .5439911 .5419922 .5009918 .5419922 .46199037 .522995 .4139862 .47898866 .35598756 .42599488 .33999635 .40299989 .2749939 .2869873L.2630005 .2649994H.25698854L.31199647 .5419922 .07998657 .46398927 .07398987 .43399049C.11199951 .44499208 .13798523 .45098878 .15299988 .45098878 .17298889 .45098878 .18399048 .43499757 .18399048 .40899659 .18399048 .397995 .18199158 .38398744 .17999268 .36799623L.17098999 .31298829 .06599426-.2110138H.16299439L.20498657 0Z"/>
</defs>
<path transform="matrix(1.5,0,0,-1.5,91.159709,67.05141)" d="M17.92313 4.31947C17.92313 14.21826 9.89879 22.2426 0 22.2426-9.89879 22.2426-17.92313 14.21826-17.92313 4.31947-17.92313-5.57932-9.89879-13.60365 0-13.60365 9.89879-13.60365 17.92313-5.57932 17.92313 4.31947ZM0 4.31947" fill="#d9d9ff"/>
<path transform="matrix(1.5,0,0,-1.5,91.159709,67.05141)" stroke-width="1.5" stroke-linecap="butt" stroke-miterlimit="10" stroke-linejoin="miter" fill="none" stroke="#0000bf" d="M17.92313 4.31947C17.92313 14.21826 9.89879 22.2426 0 22.2426-9.89879 22.2426-17.92313 14.21826-17.92313 4.31947-17.92313-5.57932-9.89879-13.60365 0-13.60365 9.89879-13.60365 17.92313-5.57932 17.92313 4.31947ZM0 4.31947"/>
<use data-text="0" xlink:href="#font_7_1" transform="matrix(17.932755,0,0,-17.932755,85.71114,67.05141)" fill="#0000e6"/>
<use data-text="0" xlink:href="#font_7_1" stroke-width=".020074999" stroke-linecap="butt" stroke-miterlimit="10" stroke-linejoin="miter" transform="matrix(17.932755,0,0,-17.932755,85.71114,67.05141)" fill="none" stroke="#0000e6"/>
<path transform="matrix(1.5,0,0,-1.5,232.21775,67.05141)" d="M17.92313 4.35532C17.92313 14.2541 9.89879 22.27844 0 22.27844-9.89879 22.27844-17.92313 14.2541-17.92313 4.35532-17.92313-5.54347-9.89879-13.56781 0-13.56781 9.89879-13.56781 17.92313-5.54347 17.92313 4.35532ZM0 4.35532" fill="#d9d9ff"/>
<path transform="matrix(1.5,0,0,-1.5,232.21775,67.05141)" stroke-width="1.5" stroke-linecap="butt" stroke-miterlimit="10" stroke-linejoin="miter" fill="none" stroke="#0000bf" d="M17.92313 4.35532C17.92313 14.2541 9.89879 22.27844 0 22.27844-9.89879 22.27844-17.92313 14.2541-17.92313 4.35532-17.92313-5.54347-9.89879-13.56781 0-13.56781 9.89879-13.56781 17.92313-5.54347 17.92313 4.35532ZM0 4.35532"/>
<use data-text="1" xlink:href="#font_7_2" transform="matrix(17.932755,0,0,-17.932755,226.76918,67.05141)" fill="#0000e6"/>
<use data-text="1" xlink:href="#font_7_2" stroke-width=".020074999" stroke-linecap="butt" stroke-miterlimit="10" stroke-linejoin="miter" transform="matrix(17.932755,0,0,-17.932755,226.76918,67.05141)" fill="none" stroke="#0000e6"/>
<path transform="matrix(1.5,0,0,-1.5,161.68872,60.54539)" stroke-width="1" stroke-linecap="butt" stroke-miterlimit="10" stroke-linejoin="miter" fill="none" stroke="#000000" d=""/>
<path transform="matrix(1.5,0,0,-1.5,161.68872,60.54539)" stroke-width="1" stroke-linecap="butt" stroke-miterlimit="10" stroke-linejoin="miter" fill="none" stroke="#000000" d="M-65.05682-4.85031C-94.18079-12.65411-94.18079 12.61827-66.82495 5.28816"/>
<path transform="matrix(1.448895,.38818497,.38818497,-1.448895,61.451295,52.61315)" stroke-width=".8" stroke-linecap="round" stroke-linejoin="round" fill="none" stroke="#000000" d="M-1.73685 2.3158C-1.59212 1.44737 0 .14473 .4342 0 0-.14473-1.59212-1.44737-1.73685-2.3158"/>
<use data-text="&#x1d45e;" xlink:href="#font_7_15" transform="matrix(17.932755,0,0,-17.932755,12.787949,63.484727)"/>
<path transform="matrix(1.5,0,0,-1.5,161.68872,60.54539)" stroke-width="1" stroke-linecap="butt" stroke-miterlimit="10" stroke-linejoin="miter" fill="none" stroke="#000000" d="M65.05684 4.85031C94.1808 12.65411 94.1808-12.61827 66.82497-5.28816"/>
<path transform="matrix(-1.448895,-.38818497,-.38818497,1.448895,261.92619,68.47763)" stroke-width=".8" stroke-linecap="round" stroke-linejoin="round" fill="none" stroke="#000000" d="M-1.73685 2.3158C-1.59212 1.44737 0 .14473 .4342 0 0-.14473-1.59212-1.44737-1.73685-2.3158"/>
<use data-text="1" xlink:href="#font_7_2" transform="matrix(17.932755,0,0,-17.932755,298.76039,67.05142)"/>
<path transform="matrix(1.5,0,0,-1.5,161.68872,60.54539)" stroke-width="1" stroke-linecap="butt" stroke-miterlimit="10" stroke-linejoin="miter" fill="none" stroke="#000000" d="M-30.85219 9.32462C-10.0201 21.36214 10.00449 21.3705 29.2598 10.26286"/>
<path transform="matrix(1.2993,.74952,.74952,-1.2993,205.5784,45.1511)" stroke-width=".8" stroke-linecap="round" stroke-linejoin="round" fill="none" stroke="#000000" d="M-1.73685 2.3158C-1.59212 1.44737 0 .14473 .4342 0 0-.14473-1.59212-1.44737-1.73685-2.3158"/>
<use data-text="&#x1d45d;" xlink:href="#font_7_14" transform="matrix(17.932755,0,0,-17.932755,155.28018,22.50216)"/>
</svg>
