<svg xmlns="http://www.w3.org/2000/svg" xmlns:xlink="http://www.w3.org/1999/xlink" xmlns:inkscape="http://www.inkscape.org/namespaces/inkscape" version="1.1" width="371.96995" height="111.628589" viewBox="0 0 371.96995 111.628589">
<defs>
<path id="font_0_1" d="M.3039856-.018005372C.45799256-.018005372 .5569916 .12998963 .5569916 .35899354 .5569916 .59199526 .45899964 .7409973 .3039856 .7409973 .1499939 .7409973 .050994874 .59199526 .050994874 .35899354 .050994874 .12998963 .15098572-.018005372 .3039856-.018005372M.3039856 .011993408C.2539978 .011993408 .20698548 .051986696 .18399048 .114990238 .1599884 .1789856 .15299988 .23298645 .15299988 .36099244 .15299988 .48999024 .16099549 .5499878 .18399048 .60798647 .20899964 .6719971 .2539978 .71099856 .3019867 .71099856 .35398866 .71099856 .40098573 .67099 .4249878 .60798647 .44799806 .54499819 .45498658 .48999024 .45498658 .36099244 .45498658 .23298645 .44799806 .17399597 .4249878 .114990238 .39898683 .049987794 .35499574 .011993408 .3039856 .011993408Z"/>
<path id="font_0_2" d="M.2559967 .57499697V.1269989L.25299073 .07798767C.25099183 .039993287 .24699402 .035995485 .20799256 .032989503L.1749878 .0309906 .116989139 .02999878V0H.4909973V.02999878L.43399049 .0309906 .40098573 .032989503C.3619995 .035995485 .35798646 .039993287 .35499574 .07798767L.35198976 .1269989V.72898867L.116989139 .66999819V.6399994L.1659851 .6489868 .20899964 .6569977C.21699524 .6579895 .22599793 .6589966 .23399353 .6589966 .24899292 .6589966 .25099183 .6549988 .25299073 .6239929L.2559967 .57499697Z"/>
<path id="font_0_3" d="M.10798645 .2979889H.7589874V.35198976H.10798645V.2979889Z"/>
<path id="font_0_4" d="M.43899537 .2649994 .4149933 .14498902C.40699769 .10598755 .40299989 .07699585 .40299989 .06098938 .40299989 .01399231 .42799378-.012008667 .47299195-.012008667 .5309906-.012008667 .59199526 .023986817 .6649933 .102996829L.673996 .147995C.61499026 .08198547 .5589905 .040985109 .5309906 .040985109 .5099945 .040985109 .5 .050994874 .5 .07299805 .5 .07998657 .5009918 .08799744 .5019989 .09700012L.5109863 .14498902 .58799746 .5299988C.5329895 .5339966 .48399354 .5359955 .44999696 .5359955 .33898927 .5359955 .2630005 .5029907 .18499756 .42199708 .099990848 .33198548 .04798889 .21598816 .04798889 .115997318 .04798889 .037994386 .08898926-.012008667 .15098572-.012008667 .19400025-.012008667 .23498535 .0079956059 .2809906 .050994874 .33599855 .102996829 .37298585 .15299988 .42099 .24299622L.43199159 .2649994H.43899537M.47698976 .45999146 .45498658 .34999085C.43499757 .30999757 .42999269 .3019867 .3849945 .23999024 .35198976 .19400025 .32398988 .1559906 .29899598 .12599182 .2669983 .08699036 .22499085 .05999756 .19599915 .05999756 .16699219 .05999756 .15098572 .08699036 .15098572 .13699341 .15098572 .21199036 .19198609 .34498597 .23799134 .41999818 .2649994 .46299745 .30799867 .48799134 .35598756 .48799134 .3849945 .48799134 .42900086 .47999574 .45599366 .46998597 .46099855 .46798707 .46798707 .46499635 .47698976 .45999146Z"/>
<path id="font_0_5" d="M.31599427 .7709961H.1289978L.12298584 .7409973 .13198853 .73999026 .16499329 .73799136C.19799805 .73599246 .20199585 .73298647 .20199585 .71299746 .20199585 .70599368 .20199585 .69898989 .20098877 .69299319L.19499207 .644989 .06599426 0 .14698792-.0040130617C.16999817-.005004883 .18998719-.006011963 .20799256-.006011963 .32099916-.006011963 .3909912 .023986817 .46998597 .10798645 .55400088 .19699097 .60598757 .31399537 .60598757 .4139862 .60598757 .49198915 .5649872 .5419922 .5019989 .5419922 .43598939 .5419922 .35798646 .48298646 .2869873 .37799073 .2659912 .34700013 .2519989 .32299806 .22200012 .2649994H.21499634L.31599427 .7709961M.19898987 .17999268C.21899414 .21998596 .22399903 .22799683 .2689972 .2899933 .30099488 .33699037 .32998658 .37399293 .35398866 .4039917 .3869934 .44299317 .42900086 .46998597 .45799256 .46998597 .4869995 .46998597 .5029907 .44299317 .5029907 .3929901 .5029907 .31799317 .46199037 .18598938 .41600038 .10998535 .3889923 .066986087 .34599305 .041992189 .2979889 .041992189 .2689972 .041992189 .22499085 .049987794 .19799805 .06098938 .19299317 .06199646 .18598938 .06498718 .1769867 .069992069L.19898987 .17999268Z"/>
</defs>
<path transform="matrix(1.5,0,0,-1.5,126.39057,60.26813)" d="M17.92313 4.31947C17.92313 14.21826 9.89879 22.2426 0 22.2426-9.89879 22.2426-17.92313 14.21826-17.92313 4.31947-17.92313-5.57932-9.89879-13.60365 0-13.60365 9.89879-13.60365 17.92313-5.57932 17.92313 4.31947ZM0 4.31947" fill="#d9d9ff"/>
<path transform="matrix(1.5,0,0,-1.5,126.39057,60.26813)" stroke-width="1.5" stroke-linecap="butt" stroke-miterlimit="10" stroke-linejoin="miter" fill="none" stroke="#0000bf" d="M17.92313 4.31947C17.92313 14.21826 9.89879 22.2426 0 22.2426-9.89879 22.2426-17.92313 14.21826-17.92313 4.31947-17.92313-5.57932-9.89879-13.60365 0-13.60365 9.89879-13.60365 17.92313-5.57932 17.92313 4.31947ZM0 4.31947"/>
<use data-text="0" xlink:href="#font_0_1" transform="matrix(17.932755,0,0,-17.932755,120.94201,60.268129)" fill="#0000e6"/>
<use data-text="0" xlink:href="#font_0_1" stroke-width=".020074999" stroke-linecap="butt" stroke-miterlimit="10" stroke-linejoin="miter" transform="matrix(17.932755,0,0,-17.932755,120.94201,60.268129)" fill="none" stroke="#0000e6"/>
<path transform="matrix(1.5,0,0,-1.5,246.18877,60.26813)" d="M17.92313 4.35532C17.92313 14.2541 9.89879 22.27844 0 22.27844-9.89879 22.27844-17.92313 14.2541-17.92313 4.35532-17.92313-5.54347-9.89879-13.56781 0-13.56781 9.89879-13.56781 17.92313-5.54347 17.92313 4.35532ZM0 4.35532" fill="#d9d9ff"/>
<path transform="matrix(1.5,0,0,-1.5,246.18877,60.26813)" stroke-width="1.5" stroke-linecap="butt" stroke-miterlimit="10" stroke-linejoin="miter" fill="none" stroke="#0000bf" d="M17.92313 4.35532C17.92313 14.2541 9.89879 22.27844 0 22.27844-9.89879 22.27844-17.92313 14.2541-17.92313 4.35532-17.92313-5.54347-9.89879-13.56781 0-13.56781 9.89879-13.56781 17.92313-5.54347 17.92313 4.35532ZM0 4.35532"/>
<use data-text="1" xlink:href="#font_0_2" transform="matrix(17.932755,0,0,-17.932755,240.7402,60.268129)" fill="#0000e6"/>
<use data-text="1" xlink:href="#font_0_2" stroke-width=".020074999" stroke-linecap="butt" stroke-miterlimit="10" stroke-linejoin="miter" transform="matrix(17.932755,0,0,-17.932755,240.7402,60.268129)" fill="none" stroke="#0000e6"/>
<path transform="matrix(1.5,0,0,-1.5,186.28966,53.76212)" stroke-width="1" stroke-linecap="butt" stroke-miterlimit="10" stroke-linejoin="miter" fill="none" stroke="#000000" d=""/>
<path transform="matrix(1.5,0,0,-1.5,186.28966,53.76212)" stroke-width="1" stroke-linecap="butt" stroke-miterlimit="10" stroke-linejoin="miter" fill="none" stroke="#000000" d="M-57.97012-4.85031C-87.09407-12.65411-87.09407 12.61827-59.73825 5.28816"/>
<path transform="matrix(1.448895,.38818497,.38818497,-1.448895,96.68228,45.82988)" stroke-width=".8" stroke-linecap="round" stroke-linejoin="round" fill="none" stroke="#000000" d="M-1.73685 2.3158C-1.59212 1.44737 0 .14473 .4342 0 0-.14473-1.59212-1.44737-1.73685-2.3158"/>
<use data-text="1" xlink:href="#font_0_2" transform="matrix(17.932755,0,0,-17.932755,12.787949,60.21434)"/>
<use data-text="&#x2212;" xlink:href="#font_0_3" transform="matrix(17.932755,0,0,-17.932755,27.67608,60.21434)"/>
<use data-text="&#x1d44e;" xlink:href="#font_0_4" transform="matrix(17.932755,0,0,-17.932755,47.208795,60.21434)"/>
<path transform="matrix(1.5,0,0,-1.5,186.28966,53.76212)" stroke-width="1" stroke-linecap="butt" stroke-miterlimit="10" stroke-linejoin="miter" fill="none" stroke="#000000" d="M57.97014 4.85031C87.09409 12.65411 87.09409-12.61827 59.73827-5.28816"/>
<path transform="matrix(-1.448895,-.38818497,-.38818497,1.448895,275.89707,61.69436)" stroke-width=".8" stroke-linecap="round" stroke-linejoin="round" fill="none" stroke="#000000" d="M-1.73685 2.3158C-1.59212 1.44737 0 .14473 .4342 0 0-.14473-1.59212-1.44737-1.73685-2.3158"/>
<use data-text="1" xlink:href="#font_0_2" transform="matrix(17.932755,0,0,-17.932755,312.73139,60.590768)"/>
<use data-text="&#x2212;" xlink:href="#font_0_3" transform="matrix(17.932755,0,0,-17.932755,327.6195,60.590768)"/>
<use data-text="&#x1d44f;" xlink:href="#font_0_5" transform="matrix(17.932755,0,0,-17.932755,347.15223,60.590768)"/>
<path transform="matrix(1.5,0,0,-1.5,186.28966,53.76212)" stroke-width="1" stroke-linecap="butt" stroke-miterlimit="10" stroke-linejoin="miter" fill="none" stroke="#000000" d="M-23.76634 9.32547C-7.72064 18.59921 7.70392 18.60614 22.17245 10.26155"/>
<path transform="matrix(1.29936,.749385,.749385,-1.29936,219.54831,38.369798)" stroke-width=".8" stroke-linecap="round" stroke-linejoin="round" fill="none" stroke="#000000" d="M-1.73685 2.3158C-1.59212 1.44737 0 .14473 .4342 0 0-.14473-1.59212-1.44737-1.73685-2.3158"/>
<use data-text="&#x1d44e;" xlink:href="#font_0_4" transform="matrix(17.932755,0,0,-17.932755,179.95194,22.394623)"/>
<path transform="matrix(1.5,0,0,-1.5,186.28966,53.76212)" stroke-width="1" stroke-linecap="butt" stroke-miterlimit="10" stroke-linejoin="miter" fill="none" stroke="#000000" d="M23.76636-9.32547C7.72066-18.59921-7.7039-18.60614-22.17244-10.26155"/>
<path transform="matrix(-1.29936,-.749385,-.749385,1.29936,153.03104,69.15444)" stroke-width=".8" stroke-linecap="round" stroke-linejoin="round" fill="none" stroke="#000000" d="M-1.73685 2.3158C-1.59212 1.44737 0 .14473 .4342 0 0-.14473-1.59212-1.44737-1.73685-2.3158"/>
<use data-text="&#x1d44f;" xlink:href="#font_0_5" transform="matrix(17.932755,0,0,-17.932755,180.27854,98.73309)"/>
</svg>
