<svg xmlns="http://www.w3.org/2000/svg" xmlns:xlink="http://www.w3.org/1999/xlink" xmlns:inkscape="http://www.inkscape.org/namespaces/inkscape" version="1.1" width="462.57154" height="153.61389" viewBox="0 0 462.57154 153.61389">
<defs>
<path id="font_12_1" d="M.3039856-.018005372C.45799256-.018005372 .5569916 .12998963 .5569916 .35899354 .5569916 .59199526 .45899964 .7409973 .3039856 .7409973 .1499939 .7409973 .050994874 .59199526 .050994874 .35899354 .050994874 .12998963 .15098572-.018005372 .3039856-.018005372M.3039856 .011993408C.2539978 .011993408 .20698548 .051986696 .18399048 .114990238 .1599884 .1789856 .15299988 .23298645 .15299988 .36099244 .15299988 .48999024 .16099549 .5499878 .18399048 .60798647 .20899964 .6719971 .2539978 .71099856 .3019867 .71099856 .35398866 .71099856 .40098573 .67099 .4249878 .60798647 .44799806 .54499819 .45498658 .48999024 .45498658 .36099244 .45498658 .23298645 .44799806 .17399597 .4249878 .114990238 .39898683 .049987794 .35499574 .011993408 .3039856 .011993408Z"/>
<path id="font_12_2" d="M.2559967 .57499697V.1269989L.25299073 .07798767C.25099183 .039993287 .24699402 .035995485 .20799256 .032989503L.1749878 .0309906 .116989139 .02999878V0H.4909973V.02999878L.43399049 .0309906 .40098573 .032989503C.3619995 .035995485 .35798646 .039993287 .35499574 .07798767L.35198976 .1269989V.72898867L.116989139 .66999819V.6399994L.1659851 .6489868 .20899964 .6569977C.21699524 .6579895 .22599793 .6589966 .23399353 .6589966 .24899292 .6589966 .25099183 .6549988 .25299073 .6239929L.2559967 .57499697Z"/>
<path id="font_12_6" d="M.4099884 .5469971C.4099884 .5209961 .40499879 .49299623 .397995 .47099305 .37998963 .4229889 .34799195 .3829956 .2599945 .30099488L.20899964 .2519989C.17098999 .21699524 .14898682 .19099427 .1269989 .1559906 .10598755 .12098694 .09599304 .100997928 .07798767 .04798889V0H.5089874V.083999637H.15699768C.16299439 .12998963 .16899109 .147995 .19198609 .18299866 .21998596 .22499085 .24598694 .24899292 .31199647 .29499818L.36999513 .33499146C.47299195 .40499879 .5119934 .46398927 .5119934 .54599 .5119934 .6599884 .4189911 .7409973 .28799439 .7409973 .23098755 .7409973 .1619873 .72499087 .09498596 .69699099V.5649872H.14299011V.57699587C.14698792 .647995 .147995 .6519928 .1539917 .6629944 .1579895 .6689911 .16499329 .6749878 .1749878 .68099978 .20498657 .69898989 .24099732 .70999148 .2769928 .70999148 .35699464 .70999148 .4099884 .6459961 .4099884 .5469971Z"/>
<path id="font_12_13" d="M.20498657 .11999512H.083999637V0H.20498657V.11999512Z"/>
<path id="font_12_10" d="M.44599916 .1269989V.20498657H.5419922V.2769928H.44599916V.7350006H.3919983L.02999878 .25299073V.20498657H.36099244V.1269989L.35798646 .07798767C.35598756 .041992189 .34999085 .034988405 .31900025 .032989503L.2679901 .0309906 .25898744 .02999878V0H.5359955V.02999878L.5269928 .0309906 .49398805 .032989503C.45498658 .035995485 .45098878 .039993287 .44898988 .07798767L.44599916 .1269989M.36099244 .6459961V.2769928H.083999637L.36099244 .6459961Z"/>
</defs>
<path transform="matrix(1.5,0,0,-1.5,90.227748,99.46698)" d="M17.92313 4.31947C17.92313 14.21826 9.89879 22.2426 0 22.2426-9.89879 22.2426-17.92313 14.21826-17.92313 4.31947-17.92313-5.57932-9.89879-13.60365 0-13.60365 9.89879-13.60365 17.92313-5.57932 17.92313 4.31947ZM0 4.31947" fill="#d9d9ff"/>
<path transform="matrix(1.5,0,0,-1.5,90.227748,99.46698)" stroke-width="1.5" stroke-linecap="butt" stroke-miterlimit="10" stroke-linejoin="miter" fill="none" stroke="#0000bf" d="M17.92313 4.31947C17.92313 14.21826 9.89879 22.2426 0 22.2426-9.89879 22.2426-17.92313 14.21826-17.92313 4.31947-17.92313-5.57932-9.89879-13.60365 0-13.60365 9.89879-13.60365 17.92313-5.57932 17.92313 4.31947ZM0 4.31947"/>
<use data-text="0" xlink:href="#font_12_1" transform="matrix(17.932755,0,0,-17.932755,84.77918,99.46698)" fill="#0000e6"/>
<use data-text="0" xlink:href="#font_12_1" stroke-width=".020074999" stroke-linecap="butt" stroke-miterlimit="10" stroke-linejoin="miter" transform="matrix(17.932755,0,0,-17.932755,84.77918,99.46698)" fill="none" stroke="#0000e6"/>
<path transform="matrix(1.5,0,0,-1.5,231.2858,99.46698)" d="M17.92313 4.35532C17.92313 14.2541 9.89879 22.27844 0 22.27844-9.89879 22.27844-17.92313 14.2541-17.92313 4.35532-17.92313-5.54347-9.89879-13.56781 0-13.56781 9.89879-13.56781 17.92313-5.54347 17.92313 4.35532ZM0 4.35532" fill="#d9d9ff"/>
<path transform="matrix(1.5,0,0,-1.5,231.2858,99.46698)" stroke-width="1.5" stroke-linecap="butt" stroke-miterlimit="10" stroke-linejoin="miter" fill="none" stroke="#0000bf" d="M17.92313 4.35532C17.92313 14.2541 9.89879 22.27844 0 22.27844-9.89879 22.27844-17.92313 14.2541-17.92313 4.35532-17.92313-5.54347-9.89879-13.56781 0-13.56781 9.89879-13.56781 17.92313-5.54347 17.92313 4.35532ZM0 4.35532"/>
<use data-text="1" xlink:href="#font_12_2" transform="matrix(17.932755,0,0,-17.932755,225.83724,99.46698)" fill="#0000e6"/>
<use data-text="1" xlink:href="#font_12_2" stroke-width=".020074999" stroke-linecap="butt" stroke-miterlimit="10" stroke-linejoin="miter" transform="matrix(17.932755,0,0,-17.932755,225.83724,99.46698)" fill="none" stroke="#0000e6"/>
<path transform="matrix(1.5,0,0,-1.5,372.34385,99.46698)" d="M17.92313 4.427C17.92313 14.3258 9.89879 22.35014 0 22.35014-9.89879 22.35014-17.92313 14.3258-17.92313 4.427-17.92313-5.47177-9.89879-13.49611 0-13.49611 9.89879-13.49611 17.92313-5.47177 17.92313 4.427ZM0 4.427" fill="#d9d9ff"/>
<path transform="matrix(1.5,0,0,-1.5,372.34385,99.46698)" stroke-width="1.5" stroke-linecap="butt" stroke-miterlimit="10" stroke-linejoin="miter" fill="none" stroke="#0000bf" d="M17.92313 4.427C17.92313 14.3258 9.89879 22.35014 0 22.35014-9.89879 22.35014-17.92313 14.3258-17.92313 4.427-17.92313-5.47177-9.89879-13.49611 0-13.49611 9.89879-13.49611 17.92313-5.47177 17.92313 4.427ZM0 4.427"/>
<use data-text="2" xlink:href="#font_12_6" transform="matrix(17.932755,0,0,-17.932755,366.89527,99.46698)" fill="#0000e6"/>
<use data-text="2" xlink:href="#font_12_6" stroke-width=".020074999" stroke-linecap="butt" stroke-miterlimit="10" stroke-linejoin="miter" transform="matrix(17.932755,0,0,-17.932755,366.89527,99.46698)" fill="none" stroke="#0000e6"/>
<path transform="matrix(1.5,0,0,-1.5,231.28578,92.907199)" stroke-width="1" stroke-linecap="butt" stroke-miterlimit="10" stroke-linejoin="miter" fill="none" stroke="#000000" d=""/>
<path transform="matrix(1.5,0,0,-1.5,231.28578,92.907199)" stroke-width="1" stroke-linecap="butt" stroke-miterlimit="10" stroke-linejoin="miter" fill="none" stroke="#000000" d="M-112.0768-4.88615C-141.20075-12.68997-141.20075 12.58243-113.84492 5.25232"/>
<path transform="matrix(1.448895,.38818497,.38818497,-1.448895,60.518404,85.02872)" stroke-width=".8" stroke-linecap="round" stroke-linejoin="round" fill="none" stroke="#000000" d="M-1.73685 2.3158C-1.59212 1.44737 0 .14473 .4342 0 0-.14473-1.59212-1.44737-1.73685-2.3158"/>
<use data-text="1" xlink:href="#font_12_2" transform="matrix(17.932755,0,0,-17.932755,12.787979,99.52072)"/>
<path transform="matrix(1.5,0,0,-1.5,231.28578,92.907199)" stroke-width="1" stroke-linecap="butt" stroke-miterlimit="10" stroke-linejoin="miter" fill="none" stroke="#000000" d="M-4.83238 18.01895C-12.6362 47.14291 12.6362 47.14291 5.30609 19.78708"/>
<path transform="matrix(-.38818497,1.448895,1.448895,.38818497,239.24492,63.226575)" stroke-width=".8" stroke-linecap="round" stroke-linejoin="round" fill="none" stroke="#000000" d="M-1.73685 2.3158C-1.59212 1.44737 0 .14473 .4342 0 0-.14473-1.59212-1.44737-1.73685-2.3158"/>
<use data-text="0" xlink:href="#font_12_1" transform="matrix(17.932755,0,0,-17.932755,217.7988,26.068818)"/>
<use data-text="." xlink:href="#font_12_13" transform="matrix(17.932755,0,0,-17.932755,228.7019,26.068818)"/>
<use data-text="4" xlink:href="#font_12_10" transform="matrix(17.932755,0,0,-17.932755,233.88449,26.068818)"/>
<path transform="matrix(1.5,0,0,-1.5,231.28578,92.907199)" stroke-width="1" stroke-linecap="butt" stroke-miterlimit="10" stroke-linejoin="miter" fill="none" stroke="#000000" d="M112.0768 4.88615C141.20075 12.68997 141.20075-12.58243 113.84492-5.25232"/>
<path transform="matrix(-1.448895,-.38818497,-.38818497,1.448895,402.05317,100.785678)" stroke-width=".8" stroke-linecap="round" stroke-linejoin="round" fill="none" stroke="#000000" d="M-1.73685 2.3158C-1.59212 1.44737 0 .14473 .4342 0 0-.14473-1.59212-1.44737-1.73685-2.3158"/>
<use data-text="1" xlink:href="#font_12_2" transform="matrix(17.932755,0,0,-17.932755,438.88648,99.35947)"/>
<path transform="matrix(1.5,0,0,-1.5,231.28578,92.907199)" stroke-width="1" stroke-linecap="butt" stroke-miterlimit="10" stroke-linejoin="miter" fill="none" stroke="#000000" d="M-16.16774-9.36046C-36.99983-21.39798-57.02444-21.40634-76.27975-10.2987"/>
<path transform="matrix(-1.2993,-.74952,-.74952,1.2993,116.86617,108.35525)" stroke-width=".8" stroke-linecap="round" stroke-linejoin="round" fill="none" stroke="#000000" d="M-1.73685 2.3158C-1.59212 1.44737 0 .14473 .4342 0 0-.14473-1.59212-1.44737-1.73685-2.3158"/>
<use data-text="0" xlink:href="#font_12_1" transform="matrix(17.932755,0,0,-17.932755,147.27989,140.50333)"/>
<use data-text="." xlink:href="#font_12_13" transform="matrix(17.932755,0,0,-17.932755,158.18302,140.50333)"/>
<use data-text="2" xlink:href="#font_12_6" transform="matrix(17.932755,0,0,-17.932755,163.36557,140.50333)"/>
<path transform="matrix(1.5,0,0,-1.5,231.28578,92.907199)" stroke-width="1" stroke-linecap="butt" stroke-miterlimit="10" stroke-linejoin="miter" fill="none" stroke="#000000" d="M16.16403 9.33087C36.99153 21.37634 57.01616 21.39183 76.27573 10.29152"/>
<path transform="matrix(1.29957,.748995,.748995,-1.29957,345.69938,77.46992)" stroke-width=".8" stroke-linecap="round" stroke-linejoin="round" fill="none" stroke="#000000" d="M-1.73685 2.3158C-1.59212 1.44737 0 .14473 .4342 0 0-.14473-1.59212-1.44737-1.73685-2.3158"/>
<use data-text="0" xlink:href="#font_12_1" transform="matrix(17.932755,0,0,-17.932755,288.30699,58.29641)"/>
<use data-text="." xlink:href="#font_12_13" transform="matrix(17.932755,0,0,-17.932755,299.21009,58.29641)"/>
<use data-text="4" xlink:href="#font_12_10" transform="matrix(17.932755,0,0,-17.932755,304.39265,58.29641)"/>
</svg>
