<svg xmlns="http://www.w3.org/2000/svg" xmlns:xlink="http://www.w3.org/1999/xlink" xmlns:inkscape="http://www.inkscape.org/namespaces/inkscape" version="1.1" width="357.16487" height="103.107189" viewBox="0 0 357.16487 103.107189">
<defs>
<path id="font_1_1" d="M.33799745-.2110138 .57499697-.14001465 .58200076-.10600281C.5529938-.11500549 .5169983-.1230011 .5009918-.1230011 .47698976-.1230011 .46798707-.11100769 .46798707-.08000183 .46798707-.053009035 .47399903-.010009766 .48799134 .05899048L.58200076 .5299988C.5569916 .5329895 .5529938 .5329895 .5019989 .5349884 .47499085 .5359955 .45599366 .5359955 .44400025 .5359955 .33599855 .5359955 .2599945 .5019989 .18399048 .42199708 .099990848 .33198548 .04798889 .21499634 .04798889 .115997318 .04798889 .037994386 .08799744-.012008667 .1499939-.012008667 .21499634-.012008667 .2939911 .04899597 .36299134 .1519928 .38598634 .18598938 .3959961 .20498657 .42599488 .2649994H.43299867L.33799745-.2110138M.44898988 .34899903C.43299867 .30999757 .42799378 .30299378 .38198854 .23999024 .34399415 .18699646 .31599427 .14898682 .29699708 .12599182 .2659912 .08799744 .22399903 .05999756 .19499207 .05999756 .16699219 .05999756 .15098572 .08699036 .15098572 .13598633 .15098572 .21099854 .19198609 .34498597 .23799134 .41999818 .2639923 .46299745 .30699159 .48799134 .35299684 .48799134 .3809967 .48799134 .4269867 .47898866 .45199586 .46899415 .45599366 .46798707 .46199037 .46499635 .47099305 .45999146L.44898988 .34899903Z"/>
<path id="font_1_2" d="M.2559967 .57499697V.1269989L.25299073 .07798767C.25099183 .039993287 .24699402 .035995485 .20799256 .032989503L.1749878 .0309906 .116989139 .02999878V0H.4909973V.02999878L.43399049 .0309906 .40098573 .032989503C.3619995 .035995485 .35798646 .039993287 .35499574 .07798767L.35198976 .1269989V.72898867L.116989139 .66999819V.6399994L.1659851 .6489868 .20899964 .6569977C.21699524 .6579895 .22599793 .6589966 .23399353 .6589966 .24899292 .6589966 .25099183 .6549988 .25299073 .6239929L.2559967 .57499697Z"/>
<path id="font_1_3" d="M.23999024 .17999268C.26098634 .21899414 .2669983 .22799683 .30999757 .2899933 .34298707 .33599855 .37098695 .37399293 .3959961 .40299989 .42900086 .44299317 .47099305 .46998597 .49899293 .46998597 .5289917 .46998597 .54499819 .44299317 .54499819 .3929901 .54499819 .31799317 .5039978 .18598938 .45799256 .10998535 .43099977 .066986087 .3880005 .041992189 .33999635 .041992189 .31199647 .041992189 .2669983 .049987794 .23999024 .05999756 .23498535 .06199646 .22799683 .06498718 .21798706 .068984989L.23999024 .17999268M.20498657 0C.21199036-.0010070801 .21699524-.0020141602 .22099304-.0020141602 .23999024-.0040130617 .25-.006011963 .2519989-.006011963 .2599945-.007003784 .2669983-.007003784 .2749939-.007003784 .35499574-.007003784 .44099427 .034988405 .5119934 .10798645 .59399417 .19400025 .647995 .31399537 .647995 .4139862 .647995 .49198915 .6069946 .5419922 .5439911 .5419922 .5009918 .5419922 .46199037 .522995 .4139862 .47898866 .35598756 .42599488 .33999635 .40299989 .2749939 .2869873L.2630005 .2649994H.25698854L.31199647 .5419922 .07998657 .46398927 .07398987 .43399049C.11199951 .44499208 .13798523 .45098878 .15299988 .45098878 .17298889 .45098878 .18399048 .43499757 .18399048 .40899659 .18399048 .397995 .18199158 .38398744 .17999268 .36799623L.17098999 .31298829 .06599426-.2110138H.16299439L.20498657 0Z"/>
<path id="font_1_4" d="M.3039856-.018005372C.45799256-.018005372 .5569916 .12998963 .5569916 .35899354 .5569916 .59199526 .45899964 .7409973 .3039856 .7409973 .1499939 .7409973 .050994874 .59199526 .050994874 .35899354 .050994874 .12998963 .15098572-.018005372 .3039856-.018005372M.3039856 .011993408C.2539978 .011993408 .20698548 .051986696 .18399048 .114990238 .1599884 .1789856 .15299988 .23298645 .15299988 .36099244 .15299988 .48999024 .16099549 .5499878 .18399048 .60798647 .20899964 .6719971 .2539978 .71099856 .3019867 .71099856 .35398866 .71099856 .40098573 .67099 .4249878 .60798647 .44799806 .54499819 .45498658 .48999024 .45498658 .36099244 .45498658 .23298645 .44799806 .17399597 .4249878 .114990238 .39898683 .049987794 .35499574 .011993408 .3039856 .011993408Z"/>
<path id="font_1_5" d="M.4099884 .5469971C.4099884 .5209961 .40499879 .49299623 .397995 .47099305 .37998963 .4229889 .34799195 .3829956 .2599945 .30099488L.20899964 .2519989C.17098999 .21699524 .14898682 .19099427 .1269989 .1559906 .10598755 .12098694 .09599304 .100997928 .07798767 .04798889V0H.5089874V.083999637H.15699768C.16299439 .12998963 .16899109 .147995 .19198609 .18299866 .21998596 .22499085 .24598694 .24899292 .31199647 .29499818L.36999513 .33499146C.47299195 .40499879 .5119934 .46398927 .5119934 .54599 .5119934 .6599884 .4189911 .7409973 .28799439 .7409973 .23098755 .7409973 .1619873 .72499087 .09498596 .69699099V.5649872H.14299011V.57699587C.14698792 .647995 .147995 .6519928 .1539917 .6629944 .1579895 .6689911 .16499329 .6749878 .1749878 .68099978 .20498657 .69898989 .24099732 .70999148 .2769928 .70999148 .35699464 .70999148 .4099884 .6459961 .4099884 .5469971Z"/>
</defs>
<path transform="matrix(1.25,0,0,-1.25,72.67279,51.598398)" stroke-width="1.5" stroke-linecap="round" stroke-linejoin="round" fill="none" stroke="#000000" d="M-13.458755 6.495395C-28.96427 12.486607-42.519678 12.275027-42.519678 0-42.519678-10.867265-31.895186-12.27941-18.699055-8.303112"/>
<path transform="matrix(1.25,0,0,-1.25,72.67279,51.598398)" d="M-17.96355-10.459156C-16.463997-9.250998-14.956941-7.923403-13.458755-6.495395-15.527886-6.445771-17.532286-6.318874-19.44693-6.112825L-17.96355-10.459156Z"/>
<path transform="matrix(1.25,0,0,-1.25,72.67279,51.598398)" stroke-width="1.5" stroke-linecap="round" stroke-linejoin="round" fill="none" stroke="#000000" d="M-17.96355-10.459156C-16.463997-9.250998-14.956941-7.923403-13.458755-6.495395-15.527886-6.445771-17.532286-6.318874-19.44693-6.112825L-17.96355-10.459156Z"/>
<use data-text="&#x1d45e;" xlink:href="#font_1_1" transform="matrix(14.943985,0,0,-14.943971,4.04142,54.025377)"/>
<path transform="matrix(1.25,0,0,-1.25,72.67279,51.598398)" stroke-width="1.5" stroke-linecap="round" stroke-linejoin="round" fill="none" stroke="#000000" d="M184.66417-3.254058C197.4964-9.672128 212.59838-19.766236 212.59838 0 212.59838 17.273137 201.06575 11.743415 189.5932 5.790725"/>
<path transform="matrix(1.25,0,0,-1.25,72.67279,51.598398)" d="M188.54158 7.833389C187.2417 6.291271 185.94652 4.732975 184.66417 3.254058 186.61669 3.393058 188.6344 3.579104 190.64398 3.750399L188.54158 7.833389Z"/>
<path transform="matrix(1.25,0,0,-1.25,72.67279,51.598398)" stroke-width="1.5" stroke-linecap="round" stroke-linejoin="round" fill="none" stroke="#000000" d="M188.54158 7.833389C187.2417 6.291271 185.94652 4.732975 184.66417 3.254058 186.61669 3.393058 188.6344 3.579104 190.64398 3.750399L188.54158 7.833389Z"/>
<use data-text="1" xlink:href="#font_1_2" transform="matrix(14.94392,0,0,-14.943925,344.04264,57.04242)"/>
<path transform="matrix(1.25,0,0,-1.25,72.67279,51.598398)" stroke-width="1.5" stroke-linecap="round" stroke-linejoin="round" fill="none" stroke="#000000" d="M9.307067 11.692847C26.496264 27.567278 52.89891 28.740429 71.44989 15.2123"/>
<path transform="matrix(1.25,0,0,-1.25,72.67279,51.598398)" d="M69.984088 13.410641C71.91517 12.962882 73.83486 12.391475 75.73299 11.6922 74.88527 13.528837 73.931888 15.290311 72.88302 16.972405L69.984088 13.410641Z"/>
<path transform="matrix(1.25,0,0,-1.25,72.67279,51.598398)" stroke-width="1.5" stroke-linecap="round" stroke-linejoin="round" fill="none" stroke="#000000" d="M69.984088 13.410641C71.91517 12.962882 73.83486 12.391475 75.73299 11.6922 74.88527 13.528837 73.931888 15.290311 72.88302 16.972405L69.984088 13.410641Z"/>
<use data-text="&#x1d45d;" xlink:href="#font_1_3" transform="matrix(14.943945,0,0,-14.94398,120.48977,12.136429)"/>
<path transform="matrix(1.25,0,0,-1.25,72.67279,51.598398)" stroke-width="1.5" stroke-linecap="round" stroke-linejoin="round" fill="none" stroke="#000000" d="M94.34642 11.692847C111.535617 27.567278 137.93827 28.740429 156.48925 15.2123"/>
<path transform="matrix(1.25,0,0,-1.25,72.67279,51.598398)" d="M155.02344 13.410641C156.95452 12.962882 158.8742 12.391475 160.77234 11.6922 159.92462 13.528837 158.97124 15.290311 157.92238 16.972405L155.02344 13.410641Z"/>
<path transform="matrix(1.25,0,0,-1.25,72.67279,51.598398)" stroke-width="1.5" stroke-linecap="round" stroke-linejoin="round" fill="none" stroke="#000000" d="M155.02344 13.410641C156.95452 12.962882 158.8742 12.391475 160.77234 11.6922 159.92462 13.528837 158.97124 15.290311 157.92238 16.972405L155.02344 13.410641Z"/>
<use data-text="&#x1d45d;" xlink:href="#font_1_3" transform="matrix(14.943945,0,0,-14.94398,226.78772,12.136429)"/>
<path transform="matrix(1.25,0,0,-1.25,72.67279,51.598398)" stroke-width="1.5" stroke-linecap="round" stroke-linejoin="round" fill="none" stroke="#000000" d="M75.732288-11.692847C58.543088-27.567278 32.14044-28.740429 13.589462-15.2123"/>
<path transform="matrix(1.25,0,0,-1.25,72.67279,51.598398)" d="M15.055263-13.410641C13.124182-12.962882 11.204488-12.391475 9.306367-11.6922 10.154079-13.528837 11.107463-15.290311 12.156329-16.972405L15.055263-13.410641Z"/>
<path transform="matrix(1.25,0,0,-1.25,72.67279,51.598398)" stroke-width="1.5" stroke-linecap="round" stroke-linejoin="round" fill="none" stroke="#000000" d="M15.055263-13.410641C13.124182-12.962882 11.204488-12.391475 9.306367-11.6922 10.154079-13.528837 11.107463-15.290311 12.156329-16.972405L15.055263-13.410641Z"/>
<use data-text="&#x1d45e;" xlink:href="#font_1_1" transform="matrix(14.943985,0,0,-14.943971,120.89301,95.91433)"/>
<path transform="matrix(1.25,0,0,-1.25,72.67279,51.598398)" stroke-width="1.5" stroke-linecap="round" stroke-linejoin="round" fill="none" stroke="#000000" d="M14.94396 0C14.94396 3.963385 13.369512 7.764439 10.566976 10.566976 7.764439 13.369512 3.963385 14.94396 0 14.94396-3.963385 14.94396-7.764439 13.369512-10.566976 10.566976-13.369512 7.764439-14.94396 3.963385-14.94396 0-14.94396-3.963385-13.369512-7.764439-10.566976-10.566976-7.764439-13.369512-3.963385-14.94396 0-14.94396 3.963385-14.94396 7.764439-13.369512 10.566976-10.566976 13.369512-7.764439 14.94396-3.963385 14.94396 0Z"/>
<path transform="matrix(1.25,0,0,-1.25,72.67279,51.598398)" stroke-width="1.5" stroke-linecap="round" stroke-linejoin="round" fill="none" stroke="#000000" d="M99.98331 0C99.98331 3.963385 98.40886 7.764439 95.60632 10.566976 92.80379 13.369512 89.00273 14.94396 85.03935 14.94396 81.075969 14.94396 77.27491 13.369512 74.472377 10.566976 71.66984 7.764439 70.09539 3.963385 70.09539 0 70.09539-3.963385 71.66984-7.764439 74.472377-10.566976 77.27491-13.369512 81.075969-14.94396 85.03935-14.94396 89.00273-14.94396 92.80379-13.369512 95.60632-10.566976 98.40886-7.764439 99.98331-3.963385 99.98331 0Z"/>
<path transform="matrix(1.25,0,0,-1.25,72.67279,51.598398)" stroke-width="1.5" stroke-linecap="round" stroke-linejoin="round" fill="none" stroke="#000000" d="M185.02266 0C185.02266 3.963385 183.44821 7.764439 180.64568 10.566976 177.84314 13.369512 174.04209 14.94396 170.0787 14.94396 166.11531 14.94396 162.31426 13.369512 159.51172 10.566976 156.70919 7.764439 155.13474 3.963385 155.13474 0 155.13474-3.963385 156.70919-7.764439 159.51172-10.566976 162.31426-13.369512 166.11531-14.94396 170.0787-14.94396 174.04209-14.94396 177.84314-13.369512 180.64568-10.566976 183.44821-7.764439 185.02266-3.963385 185.02266 0Z"/>
<use data-text="0" xlink:href="#font_1_4" transform="matrix(22.415944,0,0,-22.415966,65.86218,59.697206)"/>
<use data-text="1" xlink:href="#font_1_2" transform="matrix(22.415944,0,0,-22.416026,172.16011,59.764413)"/>
<use data-text="2" xlink:href="#font_1_5" transform="matrix(22.415944,0,0,-22.415862,278.45808,59.898836)"/>
</svg>
