<svg xmlns="http://www.w3.org/2000/svg" xmlns:xlink="http://www.w3.org/1999/xlink" xmlns:inkscape="http://www.inkscape.org/namespaces/inkscape" version="1.1" width="452.20555" height="167.97" viewBox="0 0 452.20555 167.97">
<defs>
<path id="font_10_1" d="M.3039856-.018005372C.45799256-.018005372 .5569916 .12998963 .5569916 .35899354 .5569916 .59199526 .45899964 .7409973 .3039856 .7409973 .1499939 .7409973 .050994874 .59199526 .050994874 .35899354 .050994874 .12998963 .15098572-.018005372 .3039856-.018005372M.3039856 .011993408C.2539978 .011993408 .20698548 .051986696 .18399048 .114990238 .1599884 .1789856 .15299988 .23298645 .15299988 .36099244 .15299988 .48999024 .16099549 .5499878 .18399048 .60798647 .20899964 .6719971 .2539978 .71099856 .3019867 .71099856 .35398866 .71099856 .40098573 .67099 .4249878 .60798647 .44799806 .54499819 .45498658 .48999024 .45498658 .36099244 .45498658 .23298645 .44799806 .17399597 .4249878 .114990238 .39898683 .049987794 .35499574 .011993408 .3039856 .011993408Z"/>
<path id="font_10_2" d="M.2559967 .57499697V.1269989L.25299073 .07798767C.25099183 .039993287 .24699402 .035995485 .20799256 .032989503L.1749878 .0309906 .116989139 .02999878V0H.4909973V.02999878L.43399049 .0309906 .40098573 .032989503C.3619995 .035995485 .35798646 .039993287 .35499574 .07798767L.35198976 .1269989V.72898867L.116989139 .66999819V.6399994L.1659851 .6489868 .20899964 .6569977C.21699524 .6579895 .22599793 .6589966 .23399353 .6589966 .24899292 .6589966 .25099183 .6549988 .25299073 .6239929L.2559967 .57499697Z"/>
<path id="font_10_6" d="M.4099884 .5469971C.4099884 .5209961 .40499879 .49299623 .397995 .47099305 .37998963 .4229889 .34799195 .3829956 .2599945 .30099488L.20899964 .2519989C.17098999 .21699524 .14898682 .19099427 .1269989 .1559906 .10598755 .12098694 .09599304 .100997928 .07798767 .04798889V0H.5089874V.083999637H.15699768C.16299439 .12998963 .16899109 .147995 .19198609 .18299866 .21998596 .22499085 .24598694 .24899292 .31199647 .29499818L.36999513 .33499146C.47299195 .40499879 .5119934 .46398927 .5119934 .54599 .5119934 .6599884 .4189911 .7409973 .28799439 .7409973 .23098755 .7409973 .1619873 .72499087 .09498596 .69699099V.5649872H.14299011V.57699587C.14698792 .647995 .147995 .6519928 .1539917 .6629944 .1579895 .6689911 .16499329 .6749878 .1749878 .68099978 .20498657 .69898989 .24099732 .70999148 .2769928 .70999148 .35699464 .70999148 .4099884 .6459961 .4099884 .5469971Z"/>
<path id="font_10_13" d="M.20498657 .11999512H.083999637V0H.20498657V.11999512Z"/>
<path id="font_10_9" d="M.15699768 .40098573V.36999513H.21598816C.33799745 .36999513 .4099884 .30499269 .4099884 .19499207 .4099884 .084991458 .35299684 .011993408 .2679901 .011993408 .23498535 .011993408 .19799805 .022994996 .16699219 .040985109 .1459961 .052993776 .14099121 .06199646 .13999939 .08799744L.13899231 .12199402V.1329956H.08999634V.004989624C.12799073-.006011963 .14199829-.009002686 .18899536-.014007568 .21798706-.01701355 .24499512-.018005372 .269989-.018005372 .41799928-.018005372 .5109863 .06498718 .5109863 .19799805 .5109863 .25898744 .48799134 .31199647 .44898988 .34298707 .4189911 .3659973 .39898683 .375 .33699037 .3909912 .43798829 .4269867 .4889984 .48999024 .4889984 .57499697 .4889984 .6779938 .40699769 .7409973 .27198792 .7409973 .21899414 .7409973 .15499878 .7319946 .115997318 .7200012 .11199951 .71899417 .10499573 .71598818 .09599304 .71299746V.60198977H.14399719L.14498902 .6100006C.1459961 .6309967 .14698792 .644989 .147995 .6539917 .14898682 .66600039 .1519928 .673996 .1559906 .67900088 .1579895 .68299868 .16499329 .68699648 .17399597 .69099429 .20298767 .70399478 .23498535 .71099856 .2649994 .71099856 .34599305 .71099856 .3939972 .6569977 .3939972 .56599429 .3939972 .44898988 .33399964 .40098573 .18899536 .40098573H.15699768Z"/>
<path id="font_10_16" d="M.5079956 .6329956 .43499757 .5349884C.35299684 .42399598 .3019867 .35398866 .2809906 .32398988 .24699402 .27598573 .21598816 .22200012 .18798828 .1619873 .1579895 .09799194 .1499939 .070999149 .13699341 0H.2519989C.2559967 .07699585 .2630005 .10998535 .2849884 .17298889 .30599977 .23199463 .33299256 .29299928 .3659973 .35398866 .42599488 .46598817 .46299745 .522995 .5649872 .6599884V.72299197H.100997928V.6329956H.5079956Z"/>
</defs>
<path transform="matrix(1.5,0,0,-1.5,106.30457,99.46698)" d="M17.92313 4.31947C17.92313 14.21826 9.89879 22.2426 0 22.2426-9.89879 22.2426-17.92313 14.21826-17.92313 4.31947-17.92313-5.57932-9.89879-13.60365 0-13.60365 9.89879-13.60365 17.92313-5.57932 17.92313 4.31947ZM0 4.31947" fill="#d9d9ff"/>
<path transform="matrix(1.5,0,0,-1.5,106.30457,99.46698)" stroke-width="1.5" stroke-linecap="butt" stroke-miterlimit="10" stroke-linejoin="miter" fill="none" stroke="#0000bf" d="M17.92313 4.31947C17.92313 14.21826 9.89879 22.2426 0 22.2426-9.89879 22.2426-17.92313 14.21826-17.92313 4.31947-17.92313-5.57932-9.89879-13.60365 0-13.60365 9.89879-13.60365 17.92313-5.57932 17.92313 4.31947ZM0 4.31947"/>
<use data-text="0" xlink:href="#font_10_1" transform="matrix(17.932755,0,0,-17.932755,100.85601,99.46698)" fill="#0000e6"/>
<use data-text="0" xlink:href="#font_10_1" stroke-width=".020074999" stroke-linecap="butt" stroke-miterlimit="10" stroke-linejoin="miter" transform="matrix(17.932755,0,0,-17.932755,100.85601,99.46698)" fill="none" stroke="#0000e6"/>
<path transform="matrix(1.5,0,0,-1.5,226.10277,99.46698)" d="M17.92313 4.35532C17.92313 14.2541 9.89879 22.27844 0 22.27844-9.89879 22.27844-17.92313 14.2541-17.92313 4.35532-17.92313-5.54347-9.89879-13.56781 0-13.56781 9.89879-13.56781 17.92313-5.54347 17.92313 4.35532ZM0 4.35532" fill="#d9d9ff"/>
<path transform="matrix(1.5,0,0,-1.5,226.10277,99.46698)" stroke-width="1.5" stroke-linecap="butt" stroke-miterlimit="10" stroke-linejoin="miter" fill="none" stroke="#0000bf" d="M17.92313 4.35532C17.92313 14.2541 9.89879 22.27844 0 22.27844-9.89879 22.27844-17.92313 14.2541-17.92313 4.35532-17.92313-5.54347-9.89879-13.56781 0-13.56781 9.89879-13.56781 17.92313-5.54347 17.92313 4.35532ZM0 4.35532"/>
<use data-text="1" xlink:href="#font_10_2" transform="matrix(17.932755,0,0,-17.932755,220.6542,99.46698)" fill="#0000e6"/>
<use data-text="1" xlink:href="#font_10_2" stroke-width=".020074999" stroke-linecap="butt" stroke-miterlimit="10" stroke-linejoin="miter" transform="matrix(17.932755,0,0,-17.932755,220.6542,99.46698)" fill="none" stroke="#0000e6"/>
<path transform="matrix(1.5,0,0,-1.5,345.90098,99.46698)" d="M17.92313 4.427C17.92313 14.3258 9.89879 22.35014 0 22.35014-9.89879 22.35014-17.92313 14.3258-17.92313 4.427-17.92313-5.47177-9.89879-13.49611 0-13.49611 9.89879-13.49611 17.92313-5.47177 17.92313 4.427ZM0 4.427" fill="#d9d9ff"/>
<path transform="matrix(1.5,0,0,-1.5,345.90098,99.46698)" stroke-width="1.5" stroke-linecap="butt" stroke-miterlimit="10" stroke-linejoin="miter" fill="none" stroke="#0000bf" d="M17.92313 4.427C17.92313 14.3258 9.89879 22.35014 0 22.35014-9.89879 22.35014-17.92313 14.3258-17.92313 4.427-17.92313-5.47177-9.89879-13.49611 0-13.49611 9.89879-13.49611 17.92313-5.47177 17.92313 4.427ZM0 4.427"/>
<use data-text="2" xlink:href="#font_10_6" transform="matrix(17.932755,0,0,-17.932755,340.4524,99.46698)" fill="#0000e6"/>
<use data-text="2" xlink:href="#font_10_6" stroke-width=".020074999" stroke-linecap="butt" stroke-miterlimit="10" stroke-linejoin="miter" transform="matrix(17.932755,0,0,-17.932755,340.4524,99.46698)" fill="none" stroke="#0000e6"/>
<path transform="matrix(1.5,0,0,-1.5,226.10277,92.907199)" stroke-width="1" stroke-linecap="butt" stroke-miterlimit="10" stroke-linejoin="miter" fill="none" stroke="#000000" d=""/>
<path transform="matrix(1.5,0,0,-1.5,226.10277,92.907199)" stroke-width="1" stroke-linecap="butt" stroke-miterlimit="10" stroke-linejoin="miter" fill="none" stroke="#000000" d="M-97.90338-4.88615C-127.02733-12.68997-127.02733 12.58243-99.67151 5.25232"/>
<path transform="matrix(1.448895,.38818497,.38818497,-1.448895,76.595508,85.02872)" stroke-width=".8" stroke-linecap="round" stroke-linejoin="round" fill="none" stroke="#000000" d="M-1.73685 2.3158C-1.59212 1.44737 0 .14473 .4342 0 0-.14473-1.59212-1.44737-1.73685-2.3158"/>
<use data-text="0" xlink:href="#font_10_1" transform="matrix(17.932755,0,0,-17.932755,12.787964,99.46696)"/>
<use data-text="." xlink:href="#font_10_13" transform="matrix(17.932755,0,0,-17.932755,23.69108,99.46696)"/>
<use data-text="3" xlink:href="#font_10_9" transform="matrix(17.932755,0,0,-17.932755,28.873644,99.46696)"/>
<path transform="matrix(1.5,0,0,-1.5,226.10277,92.907199)" stroke-width="1" stroke-linecap="butt" stroke-miterlimit="10" stroke-linejoin="miter" fill="none" stroke="#000000" d="M-4.83238 18.01895C-12.6362 47.14291 12.6362 47.14291 5.30609 19.78708"/>
<path transform="matrix(-.38818497,1.448895,1.448895,.38818497,234.0619,63.226575)" stroke-width=".8" stroke-linecap="round" stroke-linejoin="round" fill="none" stroke="#000000" d="M-1.73685 2.3158C-1.59212 1.44737 0 .14473 .4342 0 0-.14473-1.59212-1.44737-1.73685-2.3158"/>
<use data-text="0" xlink:href="#font_10_1" transform="matrix(17.932755,0,0,-17.932755,212.61579,26.068818)"/>
<use data-text="." xlink:href="#font_10_13" transform="matrix(17.932755,0,0,-17.932755,223.51889,26.068818)"/>
<use data-text="3" xlink:href="#font_10_9" transform="matrix(17.932755,0,0,-17.932755,228.70146,26.068818)"/>
<path transform="matrix(1.5,0,0,-1.5,226.10277,92.907199)" stroke-width="1" stroke-linecap="butt" stroke-miterlimit="10" stroke-linejoin="miter" fill="none" stroke="#000000" d="M97.90338 4.88615C127.02733 12.68997 127.02733-12.58243 99.67151-5.25232"/>
<path transform="matrix(-1.448895,-.38818497,-.38818497,1.448895,375.61006,100.785678)" stroke-width=".8" stroke-linecap="round" stroke-linejoin="round" fill="none" stroke="#000000" d="M-1.73685 2.3158C-1.59212 1.44737 0 .14473 .4342 0 0-.14473-1.59212-1.44737-1.73685-2.3158"/>
<use data-text="0" xlink:href="#font_10_1" transform="matrix(17.932755,0,0,-17.932755,412.4436,99.30569)"/>
<use data-text="." xlink:href="#font_10_13" transform="matrix(17.932755,0,0,-17.932755,423.34675,99.30569)"/>
<use data-text="3" xlink:href="#font_10_9" transform="matrix(17.932755,0,0,-17.932755,428.5293,99.30569)"/>
<path transform="matrix(1.5,0,0,-1.5,226.10277,92.907199)" stroke-width="1" stroke-linecap="butt" stroke-miterlimit="10" stroke-linejoin="miter" fill="none" stroke="#000000" d="M-63.6996 9.28961C-47.65388 18.56337-32.22932 18.57028-17.76079 10.22571"/>
<path transform="matrix(1.29936,.749385,.749385,-1.29936,199.46157,77.568637)" stroke-width=".8" stroke-linecap="round" stroke-linejoin="round" fill="none" stroke="#000000" d="M-1.73685 2.3158C-1.59212 1.44737 0 .14473 .4342 0 0-.14473-1.59212-1.44737-1.73685-2.3158"/>
<use data-text="0" xlink:href="#font_10_1" transform="matrix(17.932755,0,0,-17.932755,152.70578,61.48593)"/>
<use data-text="." xlink:href="#font_10_13" transform="matrix(17.932755,0,0,-17.932755,163.6089,61.48593)"/>
<use data-text="7" xlink:href="#font_10_16" transform="matrix(17.932755,0,0,-17.932755,168.79148,61.48593)"/>
<path transform="matrix(1.5,0,0,-1.5,226.10277,92.907199)" stroke-width="1" stroke-linecap="butt" stroke-miterlimit="10" stroke-linejoin="miter" fill="none" stroke="#000000" d="M16.16261 9.33289C32.20436 18.6135 47.62894 18.62772 62.10103 10.2893"/>
<path transform="matrix(1.29969,.7488,.7488,-1.29969,319.2543,77.47321)" stroke-width=".8" stroke-linecap="round" stroke-linejoin="round" fill="none" stroke="#000000" d="M-1.73685 2.3158C-1.59212 1.44737 0 .14473 .4342 0 0-.14473-1.59212-1.44737-1.73685-2.3158"/>
<use data-text="0" xlink:href="#font_10_1" transform="matrix(17.932755,0,0,-17.932755,272.49305,61.405275)"/>
<use data-text="." xlink:href="#font_10_13" transform="matrix(17.932755,0,0,-17.932755,283.39616,61.405275)"/>
<use data-text="7" xlink:href="#font_10_16" transform="matrix(17.932755,0,0,-17.932755,288.57875,61.405275)"/>
<path transform="matrix(1.5,0,0,-1.5,226.10277,92.907199)" stroke-width="1" stroke-linecap="butt" stroke-miterlimit="10" stroke-linejoin="miter" fill="none" stroke="#000000" d="M63.70158-9.29361C20.69534-34.16084-20.6505-34.18973-62.10353-10.29312"/>
<path transform="matrix(-1.299495,-.74913,-.74913,1.299495,132.94748,108.34691)" stroke-width=".8" stroke-linecap="round" stroke-linejoin="round" fill="none" stroke="#000000" d="M-1.73685 2.3158C-1.59212 1.44737 0 .14473 .4342 0 0-.14473-1.59212-1.44737-1.73685-2.3158"/>
<use data-text="0" xlink:href="#font_10_1" transform="matrix(17.932755,0,0,-17.932755,212.64328,154.85944)"/>
<use data-text="." xlink:href="#font_10_13" transform="matrix(17.932755,0,0,-17.932755,223.54639,154.85944)"/>
<use data-text="7" xlink:href="#font_10_16" transform="matrix(17.932755,0,0,-17.932755,228.72898,154.85944)"/>
</svg>
