<svg xmlns="http://www.w3.org/2000/svg" xmlns:xlink="http://www.w3.org/1999/xlink" xmlns:inkscape="http://www.inkscape.org/namespaces/inkscape" version="1.1" width="455.30735" height="236.33573" viewBox="0 0 455.30735 236.33573">
<defs>
<path id="font_4_2" d="M.2559967 .57499697V.1269989L.25299073 .07798767C.25099183 .039993287 .24699402 .035995485 .20799256 .032989503L.1749878 .0309906 .116989139 .02999878V0H.4909973V.02999878L.43399049 .0309906 .40098573 .032989503C.3619995 .035995485 .35798646 .039993287 .35499574 .07798767L.35198976 .1269989V.72898867L.116989139 .66999819V.6399994L.1659851 .6489868 .20899964 .6569977C.21699524 .6579895 .22599793 .6589966 .23399353 .6589966 .24899292 .6589966 .25099183 .6549988 .25299073 .6239929L.2559967 .57499697Z"/>
<path id="font_4_6" d="M.4099884 .5469971C.4099884 .5209961 .40499879 .49299623 .397995 .47099305 .37998963 .4229889 .34799195 .3829956 .2599945 .30099488L.20899964 .2519989C.17098999 .21699524 .14898682 .19099427 .1269989 .1559906 .10598755 .12098694 .09599304 .100997928 .07798767 .04798889V0H.5089874V.083999637H.15699768C.16299439 .12998963 .16899109 .147995 .19198609 .18299866 .21998596 .22499085 .24598694 .24899292 .31199647 .29499818L.36999513 .33499146C.47299195 .40499879 .5119934 .46398927 .5119934 .54599 .5119934 .6599884 .4189911 .7409973 .28799439 .7409973 .23098755 .7409973 .1619873 .72499087 .09498596 .69699099V.5649872H.14299011V.57699587C.14698792 .647995 .147995 .6519928 .1539917 .6629944 .1579895 .6689911 .16499329 .6749878 .1749878 .68099978 .20498657 .69898989 .24099732 .70999148 .2769928 .70999148 .35699464 .70999148 .4099884 .6459961 .4099884 .5469971Z"/>
<path id="font_4_9" d="M.15699768 .40098573V.36999513H.21598816C.33799745 .36999513 .4099884 .30499269 .4099884 .19499207 .4099884 .084991458 .35299684 .011993408 .2679901 .011993408 .23498535 .011993408 .19799805 .022994996 .16699219 .040985109 .1459961 .052993776 .14099121 .06199646 .13999939 .08799744L.13899231 .12199402V.1329956H.08999634V.004989624C.12799073-.006011963 .14199829-.009002686 .18899536-.014007568 .21798706-.01701355 .24499512-.018005372 .269989-.018005372 .41799928-.018005372 .5109863 .06498718 .5109863 .19799805 .5109863 .25898744 .48799134 .31199647 .44898988 .34298707 .4189911 .3659973 .39898683 .375 .33699037 .3909912 .43798829 .4269867 .4889984 .48999024 .4889984 .57499697 .4889984 .6779938 .40699769 .7409973 .27198792 .7409973 .21899414 .7409973 .15499878 .7319946 .115997318 .7200012 .11199951 .71899417 .10499573 .71598818 .09599304 .71299746V.60198977H.14399719L.14498902 .6100006C.1459961 .6309967 .14698792 .644989 .147995 .6539917 .14898682 .66600039 .1519928 .673996 .1559906 .67900088 .1579895 .68299868 .16499329 .68699648 .17399597 .69099429 .20298767 .70399478 .23498535 .71099856 .2649994 .71099856 .34599305 .71099856 .3939972 .6569977 .3939972 .56599429 .3939972 .44898988 .33399964 .40098573 .18899536 .40098573H.15699768Z"/>
<path id="font_4_10" d="M.44599916 .1269989V.20498657H.5419922V.2769928H.44599916V.7350006H.3919983L.02999878 .25299073V.20498657H.36099244V.1269989L.35798646 .07798767C.35598756 .041992189 .34999085 .034988405 .31900025 .032989503L.2679901 .0309906 .25898744 .02999878V0H.5359955V.02999878L.5269928 .0309906 .49398805 .032989503C.45498658 .035995485 .45098878 .039993287 .44898988 .07798767L.44599916 .1269989M.36099244 .6459961V.2769928H.083999637L.36099244 .6459961Z"/>
<path id="font_4_11" d="M.40499879 .20799256C.40499879 .085998538 .34899903 .011993408 .2579956 .011993408 .20098877 .011993408 .16499329 .034988405 .1639862 .07199097L.16299439 .10899353V.11999512H.11399841V-.0020141602C.15098572-.011001587 .16499329-.013000488 .19499207-.01600647 .21099854-.01701355 .22599793-.018005372 .24099732-.018005372 .40699769-.018005372 .5059967 .06498718 .5059967 .20498657 .5059967 .2789917 .47399903 .34599305 .41999818 .3829956 .36698915 .41999818 .2979889 .43699647 .20098877 .43699647H.15699768V.6389923H.4909973V.72299197H.1269989V.40098573H.14399719C.23298645 .40098573 .2639923 .3959961 .31199647 .37399293 .37199403 .34700013 .40499879 .2889862 .40499879 .20799256Z"/>
<path id="font_4_12" d="M.16299439 .36999513C.16499329 .46099855 .16799927 .4889984 .18099976 .54499819 .18899536 .5799866 .20298767 .6119995 .22099304 .6399994 .25099183 .68699648 .2919922 .71099856 .34199525 .71099856 .37399293 .71099856 .4059906 .70098879 .43598939 .6819916 .45498658 .66999819 .45700074 .6649933 .45899964 .6380005L.46199037 .60398867V.59298709H.5109863V.70899966C.46398927 .73098757 .41299439 .7409973 .35198976 .7409973 .25299073 .7409973 .18499756 .70799258 .13598633 .6369934 .084991458 .5629883 .05999756 .46899415 .05999756 .34999085 .05999756 .114990238 .1519928-.018005372 .31498719-.018005372 .44898988-.018005372 .5509949 .09298706 .5509949 .23699951 .5509949 .37098695 .46299745 .46398927 .33699037 .46398927 .2769928 .46398927 .22399903 .44198609 .18899536 .40299989 .18199158 .394989 .17298889 .38398744 .16299439 .36999513M.1659851 .2689972C.1659851 .34399415 .19499207 .3909912 .25698854 .41600038 .2769928 .4249878 .30099488 .42999269 .32199098 .42999269 .40699769 .42999269 .45498658 .35699464 .45498658 .22399903 .45498658 .09098816 .4079895 .0129852299 .32699586 .0129852299 .23098755 .0129852299 .1659851 .116989139 .1659851 .2689972Z"/>
<path id="font_4_1" d="M.3039856-.018005372C.45799256-.018005372 .5569916 .12998963 .5569916 .35899354 .5569916 .59199526 .45899964 .7409973 .3039856 .7409973 .1499939 .7409973 .050994874 .59199526 .050994874 .35899354 .050994874 .12998963 .15098572-.018005372 .3039856-.018005372M.3039856 .011993408C.2539978 .011993408 .20698548 .051986696 .18399048 .114990238 .1599884 .1789856 .15299988 .23298645 .15299988 .36099244 .15299988 .48999024 .16099549 .5499878 .18399048 .60798647 .20899964 .6719971 .2539978 .71099856 .3019867 .71099856 .35398866 .71099856 .40098573 .67099 .4249878 .60798647 .44799806 .54499819 .45498658 .48999024 .45498658 .36099244 .45498658 .23298645 .44799806 .17399597 .4249878 .114990238 .39898683 .049987794 .35499574 .011993408 .3039856 .011993408Z"/>
<path id="font_4_13" d="M.20498657 .11999512H.083999637V0H.20498657V.11999512Z"/>
</defs>
<path transform="matrix(1.5,0,0,-1.5,107.105487,64.33269)" d="M17.92313 4.35532C17.92313 14.2541 9.89879 22.27844 0 22.27844-9.89879 22.27844-17.92313 14.2541-17.92313 4.35532-17.92313-5.54347-9.89879-13.56781 0-13.56781 9.89879-13.56781 17.92313-5.54347 17.92313 4.35532ZM0 4.35532" fill="#bfbfff"/>
<path transform="matrix(1.5,0,0,-1.5,107.105487,64.33269)" stroke-width="2.00002" stroke-linecap="butt" stroke-miterlimit="10" stroke-linejoin="miter" fill="none" stroke="#2626ff" d="M17.92313 4.35532C17.92313 14.2541 9.89879 22.27844 0 22.27844-9.89879 22.27844-17.92313 14.2541-17.92313 4.35532-17.92313-5.54347-9.89879-13.56781 0-13.56781 9.89879-13.56781 17.92313-5.54347 17.92313 4.35532ZM0 4.35532"/>
<use data-text="1" xlink:href="#font_4_2" transform="matrix(17.932755,0,0,-17.932755,101.65692,64.33269)"/>
<path transform="matrix(1.5,0,0,-1.5,227.65367,64.33269)" d="M17.92313 4.427C17.92313 14.3258 9.89879 22.35014 0 22.35014-9.89879 22.35014-17.92313 14.3258-17.92313 4.427-17.92313-5.47177-9.89879-13.49611 0-13.49611 9.89879-13.49611 17.92313-5.47177 17.92313 4.427ZM0 4.427" fill="#bfbfff"/>
<path transform="matrix(1.5,0,0,-1.5,227.65367,64.33269)" stroke-width="2.00002" stroke-linecap="butt" stroke-miterlimit="10" stroke-linejoin="miter" fill="none" stroke="#2626ff" d="M17.92313 4.427C17.92313 14.3258 9.89879 22.35014 0 22.35014-9.89879 22.35014-17.92313 14.3258-17.92313 4.427-17.92313-5.47177-9.89879-13.49611 0-13.49611 9.89879-13.49611 17.92313-5.47177 17.92313 4.427ZM0 4.427"/>
<use data-text="2" xlink:href="#font_4_6" transform="matrix(17.932755,0,0,-17.932755,222.20511,64.33269)"/>
<path transform="matrix(1.5,0,0,-1.5,348.20185,64.33269)" d="M17.92313 4.31947C17.92313 14.21826 9.89879 22.2426 0 22.2426-9.89879 22.2426-17.92313 14.21826-17.92313 4.31947-17.92313-5.57932-9.89879-13.60365 0-13.60365 9.89879-13.60365 17.92313-5.57932 17.92313 4.31947ZM0 4.31947" fill="#bfbfff"/>
<path transform="matrix(1.5,0,0,-1.5,348.20185,64.33269)" stroke-width="2.00002" stroke-linecap="butt" stroke-miterlimit="10" stroke-linejoin="miter" fill="none" stroke="#2626ff" d="M17.92313 4.31947C17.92313 14.21826 9.89879 22.2426 0 22.2426-9.89879 22.2426-17.92313 14.21826-17.92313 4.31947-17.92313-5.57932-9.89879-13.60365 0-13.60365 9.89879-13.60365 17.92313-5.57932 17.92313 4.31947ZM0 4.31947"/>
<use data-text="3" xlink:href="#font_4_9" transform="matrix(17.932755,0,0,-17.932755,342.7533,64.33269)"/>
<path transform="matrix(1.5,0,0,-1.5,107.10547,184.9884)" d="M17.92313 4.39116C17.92313 14.28996 9.89879 22.31429 0 22.31429-9.89879 22.31429-17.92313 14.28996-17.92313 4.39116-17.92313-5.50763-9.89879-13.53195 0-13.53195 9.89879-13.53195 17.92313-5.50763 17.92313 4.39116ZM0 4.39116" fill="#bfbfff"/>
<path transform="matrix(1.5,0,0,-1.5,107.10547,184.9884)" stroke-width="2.00002" stroke-linecap="butt" stroke-miterlimit="10" stroke-linejoin="miter" fill="none" stroke="#2626ff" d="M17.92313 4.39116C17.92313 14.28996 9.89879 22.31429 0 22.31429-9.89879 22.31429-17.92313 14.28996-17.92313 4.39116-17.92313-5.50763-9.89879-13.53195 0-13.53195 9.89879-13.53195 17.92313-5.50763 17.92313 4.39116ZM0 4.39116"/>
<use data-text="4" xlink:href="#font_4_10" transform="matrix(17.932755,0,0,-17.932755,101.656909,184.9884)"/>
<path transform="matrix(1.5,0,0,-1.5,227.65366,184.9884)" d="M17.92313 4.21193C17.92313 14.11073 9.89879 22.13506 0 22.13506-9.89879 22.13506-17.92313 14.11073-17.92313 4.21193-17.92313-5.68686-9.89879-13.71118 0-13.71118 9.89879-13.71118 17.92313-5.68686 17.92313 4.21193ZM0 4.21193" fill="#bfbfff"/>
<path transform="matrix(1.5,0,0,-1.5,227.65366,184.9884)" stroke-width="2.00002" stroke-linecap="butt" stroke-miterlimit="10" stroke-linejoin="miter" fill="none" stroke="#2626ff" d="M17.92313 4.21193C17.92313 14.11073 9.89879 22.13506 0 22.13506-9.89879 22.13506-17.92313 14.11073-17.92313 4.21193-17.92313-5.68686-9.89879-13.71118 0-13.71118 9.89879-13.71118 17.92313-5.68686 17.92313 4.21193ZM0 4.21193"/>
<use data-text="5" xlink:href="#font_4_11" transform="matrix(17.932755,0,0,-17.932755,222.2051,184.9884)"/>
<path transform="matrix(1.5,0,0,-1.5,348.20185,184.9884)" d="M17.92313 4.31947C17.92313 14.21826 9.89879 22.2426 0 22.2426-9.89879 22.2426-17.92313 14.21826-17.92313 4.31947-17.92313-5.57932-9.89879-13.60365 0-13.60365 9.89879-13.60365 17.92313-5.57932 17.92313 4.31947ZM0 4.31947" fill="#bfbfff"/>
<path transform="matrix(1.5,0,0,-1.5,348.20185,184.9884)" stroke-width="2.00002" stroke-linecap="butt" stroke-miterlimit="10" stroke-linejoin="miter" fill="none" stroke="#2626ff" d="M17.92313 4.31947C17.92313 14.21826 9.89879 22.2426 0 22.2426-9.89879 22.2426-17.92313 14.21826-17.92313 4.31947-17.92313-5.57932-9.89879-13.60365 0-13.60365 9.89879-13.60365 17.92313-5.57932 17.92313 4.31947ZM0 4.31947"/>
<use data-text="6" xlink:href="#font_4_12" transform="matrix(17.932755,0,0,-17.932755,342.7533,184.9884)"/>
<path transform="matrix(1.5,0,0,-1.5,227.65367,118.181438)" stroke-width="1" stroke-linecap="butt" stroke-miterlimit="10" stroke-linejoin="miter" fill="none" stroke="#000000" d=""/>
<path transform="matrix(1.5,0,0,-1.5,227.65367,118.181438)" stroke-width="1" stroke-linecap="butt" stroke-miterlimit="10" stroke-linejoin="miter" fill="none" stroke="#000000" d="M-98.64484 35.35785C-128.1588 27.44952-128.1588 53.06035-100.41296 45.62573"/>
<path transform="matrix(1.448895,.38818497,.38818497,-1.448895,77.03424,49.742845)" stroke-width=".8" stroke-linecap="round" stroke-linejoin="round" fill="none" stroke="#000000" d="M-1.73685 2.3158C-1.59212 1.44737 0 .14473 .4342 0 0-.14473-1.59212-1.44737-1.73685-2.3158"/>
<use data-text="0" xlink:href="#font_4_1" transform="matrix(17.932755,0,0,-17.932755,12.787964,64.278949)"/>
<use data-text="." xlink:href="#font_4_13" transform="matrix(17.932755,0,0,-17.932755,23.69108,64.278949)"/>
<use data-text="5" xlink:href="#font_4_11" transform="matrix(17.932755,0,0,-17.932755,28.873644,64.278949)"/>
<path transform="matrix(1.5,0,0,-1.5,227.65367,118.181438)" stroke-width="1" stroke-linecap="butt" stroke-miterlimit="10" stroke-linejoin="miter" fill="none" stroke="#000000" d="M98.64484 45.11618C128.1588 53.0245 128.1588 27.41368 100.41296 34.8483"/>
<path transform="matrix(-1.448895,-.38818497,-.38818497,1.448895,378.2731,65.90898)" stroke-width=".8" stroke-linecap="round" stroke-linejoin="round" fill="none" stroke="#000000" d="M-1.73685 2.3158C-1.59212 1.44737 0 .14473 .4342 0 0-.14473-1.59212-1.44737-1.73685-2.3158"/>
<use data-text="0" xlink:href="#font_4_1" transform="matrix(17.932755,0,0,-17.932755,415.5454,64.33272)"/>
<use data-text="." xlink:href="#font_4_13" transform="matrix(17.932755,0,0,-17.932755,426.44853,64.33272)"/>
<use data-text="5" xlink:href="#font_4_11" transform="matrix(17.932755,0,0,-17.932755,431.63108,64.33272)"/>
<path transform="matrix(1.5,0,0,-1.5,227.65367,118.181438)" stroke-width="1" stroke-linecap="butt" stroke-miterlimit="10" stroke-linejoin="miter" fill="none" stroke="#000000" d="M98.64484-35.32199C128.1588-27.41367 128.1588-53.02449 100.41296-45.58987"/>
<path transform="matrix(-1.448895,-.38818497,-.38818497,1.448895,378.2731,186.56624)" stroke-width=".8" stroke-linecap="round" stroke-linejoin="round" fill="none" stroke="#000000" d="M-1.73685 2.3158C-1.59212 1.44737 0 .14473 .4342 0 0-.14473-1.59212-1.44737-1.73685-2.3158"/>
<use data-text="0" xlink:href="#font_4_1" transform="matrix(17.932755,0,0,-17.932755,415.5454,184.98839)"/>
<use data-text="." xlink:href="#font_4_13" transform="matrix(17.932755,0,0,-17.932755,426.44853,184.98839)"/>
<use data-text="5" xlink:href="#font_4_11" transform="matrix(17.932755,0,0,-17.932755,431.63108,184.98839)"/>
<path transform="matrix(1.5,0,0,-1.5,227.65367,118.181438)" stroke-width="1" stroke-linecap="butt" stroke-miterlimit="10" stroke-linejoin="miter" fill="none" stroke="#000000" d="M-63.98747 49.73094C-47.92314 59.02461-32.47679 59.0384-17.98206 50.68697"/>
<path transform="matrix(1.29969,.7488,.7488,-1.29969,200.68059,42.150964)" stroke-width=".8" stroke-linecap="round" stroke-linejoin="round" fill="none" stroke="#000000" d="M-1.73685 2.3158C-1.59212 1.44737 0 .14473 .4342 0 0-.14473-1.59212-1.44737-1.73685-2.3158"/>
<use data-text="0" xlink:href="#font_4_1" transform="matrix(17.932755,0,0,-17.932755,153.87062,26.068833)"/>
<use data-text="." xlink:href="#font_4_13" transform="matrix(17.932755,0,0,-17.932755,164.77373,26.068833)"/>
<use data-text="5" xlink:href="#font_4_11" transform="matrix(17.932755,0,0,-17.932755,169.95632,26.068833)"/>
<path transform="matrix(1.5,0,0,-1.5,227.65367,118.181438)" stroke-width="1" stroke-linecap="butt" stroke-miterlimit="10" stroke-linejoin="miter" fill="none" stroke="#000000" d="M-16.379 30.85063C-32.44334 21.55696-47.8897 21.54315-62.38441 29.8946"/>
<path transform="matrix(-1.29969,-.7488,-.7488,1.29969,134.07706,73.339557)" stroke-width=".8" stroke-linecap="round" stroke-linejoin="round" fill="none" stroke="#000000" d="M-1.73685 2.3158C-1.59212 1.44737 0 .14473 .4342 0 0-.14473-1.59212-1.44737-1.73685-2.3158"/>
<use data-text="0" xlink:href="#font_4_1" transform="matrix(17.932755,0,0,-17.932755,153.91464,102.381549)"/>
<use data-text="." xlink:href="#font_4_13" transform="matrix(17.932755,0,0,-17.932755,164.81777,102.381549)"/>
<use data-text="5" xlink:href="#font_4_11" transform="matrix(17.932755,0,0,-17.932755,170.00034,102.381549)"/>
<path transform="matrix(1.5,0,0,-1.5,227.65367,118.181438)" stroke-width="1" stroke-linecap="butt" stroke-miterlimit="10" stroke-linejoin="miter" fill="none" stroke="#000000" d="M16.40036 49.76566C32.48521 59.02379 47.93156 59.0031 62.4078 50.61961"/>
<path transform="matrix(1.29801,.751695,.751695,-1.29801,321.26536,42.25199)" stroke-width=".8" stroke-linecap="round" stroke-linejoin="round" fill="none" stroke="#000000" d="M-1.73685 2.3158C-1.59212 1.44737 0 .14473 .4342 0 0-.14473-1.59212-1.44737-1.73685-2.3158"/>
<use data-text="0" xlink:href="#font_4_1" transform="matrix(17.932755,0,0,-17.932755,274.47386,26.095917)"/>
<use data-text="." xlink:href="#font_4_13" transform="matrix(17.932755,0,0,-17.932755,285.37699,26.095917)"/>
<use data-text="5" xlink:href="#font_4_11" transform="matrix(17.932755,0,0,-17.932755,290.55955,26.095917)"/>
<path transform="matrix(1.5,0,0,-1.5,227.65367,118.181438)" stroke-width="1" stroke-linecap="butt" stroke-miterlimit="10" stroke-linejoin="miter" fill="none" stroke="#000000" d="M63.96611 30.78006C47.88126 21.52194 32.4349 21.54262 17.95866 29.9261"/>
<path transform="matrix(-1.29801,-.751695,-.751695,1.29801,254.59169,73.2923)" stroke-width=".8" stroke-linecap="round" stroke-linejoin="round" fill="none" stroke="#000000" d="M-1.73685 2.3158C-1.59212 1.44737 0 .14473 .4342 0 0-.14473-1.59212-1.44737-1.73685-2.3158"/>
<use data-text="0" xlink:href="#font_4_1" transform="matrix(17.932755,0,0,-17.932755,274.40763,102.4082)"/>
<use data-text="." xlink:href="#font_4_13" transform="matrix(17.932755,0,0,-17.932755,285.31074,102.4082)"/>
<use data-text="5" xlink:href="#font_4_11" transform="matrix(17.932755,0,0,-17.932755,290.49333,102.4082)"/>
<path transform="matrix(1.5,0,0,-1.5,227.65367,118.181438)" stroke-width="1" stroke-linecap="butt" stroke-miterlimit="10" stroke-linejoin="miter" fill="none" stroke="#000000" d="M-63.95773-30.72307C-47.80185-21.4434-32.48068-21.47742-17.94945-29.91023"/>
<path transform="matrix(1.29732,.75285008,.75285008,-1.29732,200.72949,163.04677)" stroke-width=".8" stroke-linecap="round" stroke-linejoin="round" fill="none" stroke="#000000" d="M-1.73685 2.3158C-1.59212 1.44737 0 .14473 .4342 0 0-.14473-1.59212-1.44737-1.73685-2.3158"/>
<use data-text="0" xlink:href="#font_4_1" transform="matrix(17.932755,0,0,-17.932755,153.94782,146.81865)"/>
<use data-text="." xlink:href="#font_4_13" transform="matrix(17.932755,0,0,-17.932755,164.85094,146.81865)"/>
<use data-text="5" xlink:href="#font_4_11" transform="matrix(17.932755,0,0,-17.932755,170.03351,146.81865)"/>
<path transform="matrix(1.5,0,0,-1.5,227.65367,118.181438)" stroke-width="1" stroke-linecap="butt" stroke-miterlimit="10" stroke-linejoin="miter" fill="none" stroke="#000000" d="M-16.40874-49.75093C-32.56462-59.0306-47.8858-58.99658-62.41702-50.56377"/>
<path transform="matrix(-1.29732,-.75285008,-.75285008,1.29732,134.02814,194.0271)" stroke-width=".8" stroke-linecap="round" stroke-linejoin="round" fill="none" stroke="#000000" d="M-1.73685 2.3158C-1.59212 1.44737 0 .14473 .4342 0 0-.14473-1.59212-1.44737-1.73685-2.3158"/>
<use data-text="0" xlink:href="#font_4_1" transform="matrix(17.932755,0,0,-17.932755,153.83747,223.21186)"/>
<use data-text="." xlink:href="#font_4_13" transform="matrix(17.932755,0,0,-17.932755,164.74059,223.21186)"/>
<use data-text="5" xlink:href="#font_4_11" transform="matrix(17.932755,0,0,-17.932755,169.92316,223.21186)"/>
<path transform="matrix(1.5,0,0,-1.5,227.65367,118.181438)" stroke-width="1" stroke-linecap="butt" stroke-miterlimit="10" stroke-linejoin="miter" fill="none" stroke="#000000" d="M16.37466-30.8434C32.4349-21.5426 47.88126-21.52193 62.37968-29.86693"/>
<path transform="matrix(1.300005,.74826,.74826,-1.300005,321.2232,162.98183)" stroke-width=".8" stroke-linecap="round" stroke-linejoin="round" fill="none" stroke="#000000" d="M-1.73685 2.3158C-1.59212 1.44737 0 .14473 .4342 0 0-.14473-1.59212-1.44737-1.73685-2.3158"/>
<use data-text="0" xlink:href="#font_4_1" transform="matrix(17.932755,0,0,-17.932755,274.40763,146.9129)"/>
<use data-text="." xlink:href="#font_4_13" transform="matrix(17.932755,0,0,-17.932755,285.31074,146.9129)"/>
<use data-text="5" xlink:href="#font_4_11" transform="matrix(17.932755,0,0,-17.932755,290.49333,146.9129)"/>
<path transform="matrix(1.5,0,0,-1.5,227.65367,118.181438)" stroke-width="1" stroke-linecap="butt" stroke-miterlimit="10" stroke-linejoin="miter" fill="none" stroke="#000000" d="M63.9918-49.7023C47.93156-59.00308 32.48521-59.02377 17.98679-50.67877"/>
<path transform="matrix(-1.300005,-.74826,-.74826,1.300005,254.63385,194.19959)" stroke-width=".8" stroke-linecap="round" stroke-linejoin="round" fill="none" stroke="#000000" d="M-1.73685 2.3158C-1.59212 1.44737 0 .14473 .4342 0 0-.14473-1.59212-1.44737-1.73685-2.3158"/>
<use data-text="0" xlink:href="#font_4_1" transform="matrix(17.932755,0,0,-17.932755,274.47386,223.22516)"/>
<use data-text="." xlink:href="#font_4_13" transform="matrix(17.932755,0,0,-17.932755,285.37699,223.22516)"/>
<use data-text="5" xlink:href="#font_4_11" transform="matrix(17.932755,0,0,-17.932755,290.55955,223.22516)"/>
<path transform="matrix(1.5,0,0,-1.5,227.65367,118.181438)" stroke-width="1" stroke-linecap="butt" stroke-miterlimit="10" stroke-linejoin="miter" fill="none" stroke="#000000" d="M-80.36649-21.22424V19.5013"/>
<path transform="matrix(0,-1.5,-1.5,-0,107.10393,88.92948)" stroke-width=".8" stroke-linecap="round" stroke-linejoin="round" fill="none" stroke="#000000" d="M-1.73685 2.3158C-1.59212 1.44737 0 .14473 .4342 0 0-.14473-1.59212-1.44737-1.73685-2.3158"/>
<use data-text="0" xlink:href="#font_4_1" transform="matrix(17.932755,0,0,-17.932755,73.40788,124.57991)"/>
<use data-text="." xlink:href="#font_4_13" transform="matrix(17.932755,0,0,-17.932755,84.311008,124.57991)"/>
<use data-text="5" xlink:href="#font_4_11" transform="matrix(17.932755,0,0,-17.932755,89.49357,124.57991)"/>
</svg>
