<svg xmlns="http://www.w3.org/2000/svg" xmlns:xlink="http://www.w3.org/1999/xlink" xmlns:inkscape="http://www.inkscape.org/namespaces/inkscape" version="1.1" width="234.53874" height="149.5004" viewBox="0 0 234.53874 149.5004">
<defs>
<path id="font_0_1" d="M.33499146 .6899872H.35499574C.42399598 .6899872 .45599366 .68299868 .48298646 .6639862 .5079956 .6459961 .5189972 .6199951 .5189972 .58200076 .5189972 .5249939 .49198915 .46699525 .44898988 .43299867 .41299439 .40299989 .36999513 .3909912 .3019867 .3909912H.27598573L.33499146 .6899872M.40899659 .36999513C.47299195 .38598634 .49699403 .39698792 .5369873 .42999269 .58999636 .47299195 .62098696 .5309906 .62098696 .58699038 .62098696 .6319885 .5970001 .6719971 .55599978 .69499209 .5130005 .71798709 .48399354 .72299197 .37998963 .72299197H.1499939L.14399719 .69299319 .15299988 .69200137 .18499756 .6899872C.21899414 .68699648 .22299195 .68499758 .22299195 .6649933 .22299195 .6579895 .22200012 .651001 .22200012 .644989L.21499634 .59599307 .12199402 .12599182 .10899353 .07798767C.09899902 .039993287 .09399414 .035995485 .054992677 .032989503L.020996094 .0309906 .011993408 .02999878 .005996704 0H.32099916C.4149933 0 .47499085 .019989014 .522995 .068984989 .5609894 .10699463 .58200076 .15499878 .58200076 .20599365 .58200076 .29100038 .522995 .34700013 .40899659 .36999513M.269989 .35798646H.29599C.4079895 .35798646 .47698976 .3039856 .47698976 .21598816 .47698976 .115997318 .3919983 .035995485 .2869873 .035995485 .24299622 .035995485 .21099854 .04598999 .21099854 .05899048 .21099854 .066986087 .21199036 .07699585 .21398926 .08699036L.22099304 .1289978 .269989 .35798646Z"/>
<path id="font_0_2" d="M.2559967 .57499697V.1269989L.25299073 .07798767C.25099183 .039993287 .24699402 .035995485 .20799256 .032989503L.1749878 .0309906 .116989139 .02999878V0H.4909973V.02999878L.43399049 .0309906 .40098573 .032989503C.3619995 .035995485 .35798646 .039993287 .35499574 .07798767L.35198976 .1269989V.72898867L.116989139 .66999819V.6399994L.1659851 .6489868 .20899964 .6569977C.21699524 .6579895 .22599793 .6589966 .23399353 .6589966 .24899292 .6589966 .25099183 .6549988 .25299073 .6239929L.2559967 .57499697Z"/>
<path id="font_0_3" d="M.4099884 .5469971C.4099884 .5209961 .40499879 .49299623 .397995 .47099305 .37998963 .4229889 .34799195 .3829956 .2599945 .30099488L.20899964 .2519989C.17098999 .21699524 .14898682 .19099427 .1269989 .1559906 .10598755 .12098694 .09599304 .100997928 .07798767 .04798889V0H.5089874V.083999637H.15699768C.16299439 .12998963 .16899109 .147995 .19198609 .18299866 .21998596 .22499085 .24598694 .24899292 .31199647 .29499818L.36999513 .33499146C.47299195 .40499879 .5119934 .46398927 .5119934 .54599 .5119934 .6599884 .4189911 .7409973 .28799439 .7409973 .23098755 .7409973 .1619873 .72499087 .09498596 .69699099V.5649872H.14299011V.57699587C.14698792 .647995 .147995 .6519928 .1539917 .6629944 .1579895 .6689911 .16499329 .6749878 .1749878 .68099978 .20498657 .69898989 .24099732 .70999148 .2769928 .70999148 .35699464 .70999148 .4099884 .6459961 .4099884 .5469971Z"/>
<path id="font_0_4" d="M.15699768 .40098573V.36999513H.21598816C.33799745 .36999513 .4099884 .30499269 .4099884 .19499207 .4099884 .084991458 .35299684 .011993408 .2679901 .011993408 .23498535 .011993408 .19799805 .022994996 .16699219 .040985109 .1459961 .052993776 .14099121 .06199646 .13999939 .08799744L.13899231 .12199402V.1329956H.08999634V.004989624C.12799073-.006011963 .14199829-.009002686 .18899536-.014007568 .21798706-.01701355 .24499512-.018005372 .269989-.018005372 .41799928-.018005372 .5109863 .06498718 .5109863 .19799805 .5109863 .25898744 .48799134 .31199647 .44898988 .34298707 .4189911 .3659973 .39898683 .375 .33699037 .3909912 .43798829 .4269867 .4889984 .48999024 .4889984 .57499697 .4889984 .6779938 .40699769 .7409973 .27198792 .7409973 .21899414 .7409973 .15499878 .7319946 .115997318 .7200012 .11199951 .71899417 .10499573 .71598818 .09599304 .71299746V.60198977H.14399719L.14498902 .6100006C.1459961 .6309967 .14698792 .644989 .147995 .6539917 .14898682 .66600039 .1519928 .673996 .1559906 .67900088 .1579895 .68299868 .16499329 .68699648 .17399597 .69099429 .20298767 .70399478 .23498535 .71099856 .2649994 .71099856 .34599305 .71099856 .3939972 .6569977 .3939972 .56599429 .3939972 .44898988 .33399964 .40098573 .18899536 .40098573H.15699768Z"/>
<path id="font_0_5" d="M.44599916 .1269989V.20498657H.5419922V.2769928H.44599916V.7350006H.3919983L.02999878 .25299073V.20498657H.36099244V.1269989L.35798646 .07798767C.35598756 .041992189 .34999085 .034988405 .31900025 .032989503L.2679901 .0309906 .25898744 .02999878V0H.5359955V.02999878L.5269928 .0309906 .49398805 .032989503C.45498658 .035995485 .45098878 .039993287 .44898988 .07798767L.44599916 .1269989M.36099244 .6459961V.2769928H.083999637L.36099244 .6459961Z"/>
<path id="font_0_6" d="M.40499879 .20799256C.40499879 .085998538 .34899903 .011993408 .2579956 .011993408 .20098877 .011993408 .16499329 .034988405 .1639862 .07199097L.16299439 .10899353V.11999512H.11399841V-.0020141602C.15098572-.011001587 .16499329-.013000488 .19499207-.01600647 .21099854-.01701355 .22599793-.018005372 .24099732-.018005372 .40699769-.018005372 .5059967 .06498718 .5059967 .20498657 .5059967 .2789917 .47399903 .34599305 .41999818 .3829956 .36698915 .41999818 .2979889 .43699647 .20098877 .43699647H.15699768V.6389923H.4909973V.72299197H.1269989V.40098573H.14399719C.23298645 .40098573 .2639923 .3959961 .31199647 .37399293 .37199403 .34700013 .40499879 .2889862 .40499879 .20799256Z"/>
</defs>
<use data-text="&#x1d435;" xlink:href="#font_0_1" transform="matrix(17.93264,0,0,-17.93278,40.43272,104.56118)"/>
<use data-text="1" xlink:href="#font_0_2" transform="matrix(12.866618,0,0,-12.239072,51.777845,107.24962)"/>
<use data-text="1" xlink:href="#font_0_2" stroke-width=".0027444587" stroke-linecap="butt" stroke-miterlimit="10" stroke-linejoin="miter" transform="matrix(12.866618,0,0,-12.239072,51.777845,107.24962)" fill="none" stroke="#000000"/>
<use data-text="&#x1d435;" xlink:href="#font_0_1" transform="matrix(17.93264,0,0,-17.93278,43.442037,44.07866)"/>
<use data-text="2" xlink:href="#font_0_3" transform="matrix(12.866618,0,0,-12.239072,54.787164,46.767099)"/>
<use data-text="2" xlink:href="#font_0_3" stroke-width=".0027444587" stroke-linecap="round" stroke-linejoin="round" transform="matrix(12.866618,0,0,-12.239072,54.787164,46.767099)" fill="none" stroke="#000000"/>
<use data-text="&#x1d435;" xlink:href="#font_0_1" transform="matrix(17.93264,0,0,-17.932662,172.79091,35.19874)"/>
<use data-text="3" xlink:href="#font_0_4" transform="matrix(12.866618,0,0,-12.238991,184.13603,37.88716)"/>
<use data-text="3" xlink:href="#font_0_4" stroke-width=".0027444678" stroke-linecap="round" stroke-linejoin="round" transform="matrix(12.866618,0,0,-12.238991,184.13603,37.88716)" fill="none" stroke="#000000"/>
<use data-text="&#x1d435;" xlink:href="#font_0_1" transform="matrix(17.93264,0,0,-17.93278,112.24731,105.26339)"/>
<use data-text="4" xlink:href="#font_0_5" transform="matrix(12.866618,0,0,-12.239072,123.59243,107.95183)"/>
<use data-text="4" xlink:href="#font_0_5" stroke-width=".0027444587" stroke-linecap="round" stroke-linejoin="round" transform="matrix(12.866618,0,0,-12.239072,123.59243,107.95183)" fill="none" stroke="#000000"/>
<use data-text="&#x1d435;" xlink:href="#font_0_1" transform="matrix(17.93264,0,0,-17.932662,185.54668,94.7256)"/>
<use data-text="5" xlink:href="#font_0_6" transform="matrix(12.866618,0,0,-12.238991,196.89179,97.41402)"/>
<use data-text="5" xlink:href="#font_0_6" stroke-width=".0027444678" stroke-linecap="round" stroke-linejoin="round" transform="matrix(12.866618,0,0,-12.238991,196.89179,97.41402)" fill="none" stroke="#000000"/>
<path transform="matrix(1.5,0,0,-1.5,10.97142,138.52898)" stroke-width="1" stroke-linecap="round" stroke-linejoin="round" fill="none" stroke="#000000" d="M0 0H141.73226V85.03935H0Z"/>
<path transform="matrix(1.5,0,0,-1.5,10.97142,138.52898)" stroke-width="1" stroke-linecap="round" stroke-linejoin="round" fill="none" stroke="#000000" d="M0 56.6929C31.310624 56.6929 56.6929 31.310624 56.6929 0"/>
<path transform="matrix(1.5,0,0,-1.5,10.97142,138.52898)" stroke-width="1" stroke-linecap="round" stroke-linejoin="round" fill="none" stroke="#000000" d="M41.387437 38.745634C58.854116 48.534288 70.86613 64.71327 70.86613 85.03935"/>
<path transform="matrix(1.5,0,0,-1.5,10.97142,138.52898)" stroke-width="1" stroke-linecap="round" stroke-linejoin="round" fill="none" stroke="#000000" d="M68.1329 68.843C92.201488 64.67939 117.46115 56.6929 141.73226 56.6929"/>
<path transform="matrix(1.5,0,0,-1.5,10.97142,138.52898)" stroke-width="1" stroke-linecap="round" stroke-linejoin="round" fill="none" stroke="#000000" d="M86.861698 65.081607C90.97723 42.14003 101.55869 20.485152 113.3858 0"/>
</svg>
