<svg xmlns="http://www.w3.org/2000/svg" xmlns:xlink="http://www.w3.org/1999/xlink" xmlns:inkscape="http://www.inkscape.org/namespaces/inkscape" version="1.1" width="141.93611" height="141.93611" viewBox="0 0 141.93611 141.93611">
<defs>
<path id="font_5_1" d="M.71598818 0V.0309906H.69200137C.61499026 .0309906 .61299136 .041992189 .61299136 .07797241V.6046448C.61299136 .640625 .61499026 .6516113 .69200137 .6516113H.71598818V.6826172C.68099978 .6796112 .6069946 .6796112 .56900027 .6796112 .5309906 .6796112 .45599366 .6796112 .42099 .6826172V.6516113H.44499208C.5219879 .6516113 .5239868 .640625 .5239868 .6046448V.37083436H.22499085V.6046448C.22499085 .640625 .22698975 .6516113 .3039856 .6516113H.32798768V.6826172C.29299928 .6796112 .21899414 .6796112 .18099976 .6796112 .14299011 .6796112 .067993167 .6796112 .032989503 .6826172V.6516113H.056991579C.13398743 .6516113 .13598633 .640625 .13598633 .6046448V.07797241C.13598633 .041992189 .13398743 .0309906 .056991579 .0309906H.032989503V0C.067993167 .0029907227 .14199829 .0029907227 .17999268 .0029907227 .21798706 .0029907227 .29299928 .0029907227 .32798768 0V.0309906H.3039856C.22698975 .0309906 .22499085 .041992189 .22499085 .07797241V.33984376H.5239868V.07797241C.5239868 .041992189 .5219879 .0309906 .44499208 .0309906H.42099V0C.45599366 .0029907227 .5299988 .0029907227 .56799319 .0029907227 .60598757 .0029907227 .68099978 .0029907227 .71598818 0Z"/>
<path id="font_6_2" d="M.47299195 0V.035995485H.43499757C.33499146 .035995485 .33499146 .048980714 .33499146 .081954959V.63560488C.33499146 .66259768 .33299256 .66360476 .30499269 .66360476 .24099732 .6006012 .1499939 .5996094 .10899353 .5996094V.56359866C.1329956 .56359866 .19898987 .56359866 .2539978 .5915985V.081954959C.2539978 .048980714 .2539978 .035995485 .1539917 .035995485H.115997318V0L.2939911 .0039978029 .47299195 0Z"/>
<path id="font_6_6" d="M.5289917 .1640625V.20005799H.41799928V.6460571C.41799928 .6670532 .41799928 .674057 .3959961 .674057 .38398744 .674057 .37998963 .674057 .36999513 .66004946L.038986207 .20005799V.1640625H.33299256V.08201599C.33299256 .04800415 .33299256 .035995485 .2519989 .035995485H.22499085V0L.375 .0039978029 .526001 0V.035995485H.49899293C.41799928 .035995485 .41799928 .04800415 .41799928 .08201599V.1640625H.5289917M.33999635 .20005799H.07598877L.33999635 .5660553V.20005799Z"/>
<path id="font_5_2" d="M.68499758 .45214845 .66600039 .6767578H.054992677L.035995485 .45214845H.06098938C.07499695 .6128235 .08999634 .64575198 .24099732 .64575198 .25898744 .64575198 .2849884 .64575198 .29499818 .64375308 .31599427 .6397705 .31599427 .6287842 .31599427 .60583499V.07901001C.31599427 .04499817 .31599427 .0309906 .21099854 .0309906H.17098999V0C.21199036 .0029907227 .31399537 .0029907227 .3600006 .0029907227 .4059906 .0029907227 .5089874 .0029907227 .5499878 0V.0309906H.5099945C.40499879 .0309906 .40499879 .04499817 .40499879 .07901001V.60583499C.40499879 .62579348 .40499879 .6397705 .4229889 .64375308 .43399049 .64575198 .46099855 .64575198 .47999574 .64575198 .6309967 .64575198 .6459961 .6128235 .6599884 .45214845H.68499758Z"/>
</defs>
<path transform="matrix(1,0,0,-1,-56.589487,198.5256)" d="M80.91843 70.43864C80.952388 69.687999 80.15033 69.86221 79.50254 70.19506 90.74745 71.02445 100.443599 70.01533 110.90832 70.788219 120.25254 69.62588 121.162097 70.3932 121.0777 81.03964 121.57469 81.30675 121.92763 84.6546 120.71754 86.06436 121.39473 96.179599 121.028858 95.45051 113.19661 103.47971 110.21293 106.00342 106.37638 109.68297 102.81102 114.09696 94.97598 121.10847 95.47582 120.44592 85.62423 121.70231 83.30471 121.59439 81.76932 120.5615 81.17795 120.84527 70.0531 121.57071 69.56727 120.786319 71.099079 111.73399 69.25275 101.69567 69.223278 91.452777 70.704669 80.31138 69.840389 70.718158 70.2517 70.62937 80.91843 70.43864Z" fill="#d9d9d9"/>
<path transform="matrix(1,0,0,-1,-56.589487,198.5256)" d="M185.64933 69.60556C200.54788 84.661289 177.02744 104.643619 159.0775 120.4256 159.05 121.50562 120.748348 160.10044 120.24653 158.9773 103.079669 176.2611 85.021968 200.4085 69.662029 184.1879 55.04116 169.48525 79.16869 151.76967 95.42224 133.25786 95.961368 134.65547 133.85765 94.90035 133.08577 95.40057 151.80603 78.1479 170.15393 54.778978 185.64933 69.60556Z" fill="#d9d9d9"/>
<path transform="matrix(1,0,0,-1,-56.589487,198.5256)" d="M175.55101 184.82317C175.48577 185.00452 174.25762 185.1567 173.9766 184.33898 163.89966 184.69335 154.78907 184.4066 144.3159 185.21063 133.01015 185.31925 133.78189 184.53022 134.39212 174.86614 133.76686 173.55718 134.6308 171.20066 134.22151 168.88378 134.17046 160.22283 133.44293 159.00147 140.34467 151.89397 145.19174 148.15293 149.38787 144.57772 152.41516 141.4274 159.33132 132.98795 158.8223 134.04854 170.25687 133.29187 170.76093 133.37937 172.11838 134.78266 174.34207 134.43373 185.06862 133.72911 185.37662 133.50153 184.8771 144.51357 184.25765 155.02231 184.64528 165.3655 185.13945 174.82726 184.9979 185.53916 184.89138 185.83301 175.55101 184.82317Z" fill="#d9d9d9"/>
<path transform="matrix(1,0,0,-1,-56.589487,198.5256)" stroke-width=".75" stroke-linecap="round" stroke-linejoin="round" fill="none" stroke="#000000" d="M63.77951 63.77951H127.55902V127.55902H63.77951Z"/>
<use data-text="H" xlink:href="#font_5_1" transform="matrix(11.955193,0,0,-11.95514,10.339249,82.27883)"/>
<use data-text="H" xlink:href="#font_5_1" transform="matrix(11.955193,0,0,-11.95514,19.305645,82.27883)"/>
<use data-text="1" xlink:href="#font_6_2" transform="matrix(16.737235,0,0,-16.737118,34.319589,97.24156)"/>
<path transform="matrix(1.4999994,0,0,-1.499989,34.319589,102.85736)" stroke-width=".637259" stroke-linecap="butt" stroke-linejoin="round" fill="none" stroke="#000000" d="M0 0H6.345498"/>
<use data-text="4" xlink:href="#font_6_6" transform="matrix(16.737235,0,0,-16.737118,34.319589,116.83713)"/>
<path transform="matrix(1,0,0,-1,-56.589487,198.5256)" stroke-width=".75" stroke-linecap="round" stroke-linejoin="round" fill="none" stroke="#000000" d="M127.55903 63.77951H191.33853V127.55902H127.55903Z"/>
<use data-text="H" xlink:href="#font_5_1" transform="matrix(11.955197,0,0,-11.95514,74.11802,82.27883)"/>
<use data-text="T" xlink:href="#font_5_2" transform="matrix(11.955197,0,0,-11.95514,83.08443,82.27883)"/>
<use data-text="1" xlink:href="#font_6_2" transform="matrix(16.737235,0,0,-16.737118,98.098369,97.24156)"/>
<path transform="matrix(1.4999994,0,0,-1.499989,98.098369,102.85736)" stroke-width=".637259" stroke-linecap="butt" stroke-linejoin="round" fill="none" stroke="#000000" d="M0 0H6.345498"/>
<use data-text="4" xlink:href="#font_6_6" transform="matrix(16.737235,0,0,-16.737118,98.098369,116.83713)"/>
<path transform="matrix(1,0,0,-1,-56.589487,198.5256)" stroke-width=".75" stroke-linecap="round" stroke-linejoin="round" fill="none" stroke="#000000" d="M63.77951 127.55903H127.55902V191.33853H63.77951Z"/>
<use data-text="T" xlink:href="#font_5_2" transform="matrix(11.955197,0,0,-11.95514,10.339249,18.500046)"/>
<use data-text="H" xlink:href="#font_5_1" transform="matrix(11.955197,0,0,-11.95514,18.970904,18.500046)"/>
<use data-text="1" xlink:href="#font_6_2" transform="matrix(16.737235,0,0,-16.737118,34.319589,33.462785)"/>
<path transform="matrix(1.4999994,0,0,-1.499989,34.319589,39.078584)" stroke-width=".637259" stroke-linecap="butt" stroke-linejoin="round" fill="none" stroke="#000000" d="M0 0H6.345498"/>
<use data-text="4" xlink:href="#font_6_6" transform="matrix(16.737235,0,0,-16.737118,34.319589,53.05835)"/>
<path transform="matrix(1,0,0,-1,-56.589487,198.5256)" stroke-width=".75" stroke-linecap="round" stroke-linejoin="round" fill="none" stroke="#000000" d="M127.55903 127.55903H191.33853V191.33853H127.55903Z"/>
<use data-text="T" xlink:href="#font_5_2" transform="matrix(11.9551,0,0,-11.955142,74.11802,18.42836)"/>
<use data-text="T" xlink:href="#font_5_2" transform="matrix(11.9551,0,0,-11.955142,82.7496,18.42836)"/>
<use data-text="1" xlink:href="#font_6_2" transform="matrix(16.737235,0,0,-16.737118,98.098369,33.462785)"/>
<path transform="matrix(1.4999994,0,0,-1.499989,98.098369,39.078584)" stroke-width=".637259" stroke-linecap="butt" stroke-linejoin="round" fill="none" stroke="#000000" d="M0 0H6.345498"/>
<use data-text="4" xlink:href="#font_6_6" transform="matrix(16.737235,0,0,-16.737118,98.098369,53.05835)"/>
<path transform="matrix(1,0,0,-1,-56.589487,198.5256)" stroke-width=".75" stroke-linecap="round" stroke-linejoin="round" fill="none" stroke="#000000" d="M80.91843 70.43864C80.952388 69.687999 80.15033 69.86221 79.50254 70.19506 90.74745 71.02445 100.443599 70.01533 110.90832 70.788219 120.25254 69.62588 121.162097 70.3932 121.0777 81.03964 121.57469 81.30675 121.92763 84.6546 120.71754 86.06436 121.39473 96.179599 121.028858 95.45051 113.19661 103.47971 110.21293 106.00342 106.37638 109.68297 102.81102 114.09696 94.97598 121.10847 95.47582 120.44592 85.62423 121.70231 83.30471 121.59439 81.76932 120.5615 81.17795 120.84527 70.0531 121.57071 69.56727 120.786319 71.099079 111.73399 69.25275 101.69567 69.223278 91.452777 70.704669 80.31138 69.840389 70.718158 70.2517 70.62937 80.91843 70.43864Z"/>
<path transform="matrix(1,0,0,-1,-56.589487,198.5256)" stroke-width=".75" stroke-linecap="round" stroke-linejoin="round" fill="none" stroke="#000000" d="M185.64933 69.60556C200.54788 84.661289 177.02744 104.643619 159.0775 120.4256 159.05 121.50562 120.748348 160.10044 120.24653 158.9773 103.079669 176.2611 85.021968 200.4085 69.662029 184.1879 55.04116 169.48525 79.16869 151.76967 95.42224 133.25786 95.961368 134.65547 133.85765 94.90035 133.08577 95.40057 151.80603 78.1479 170.15393 54.778978 185.64933 69.60556Z"/>
<path transform="matrix(1,0,0,-1,-56.589487,198.5256)" stroke-width=".75" stroke-linecap="round" stroke-linejoin="round" fill="none" stroke="#000000" d="M175.55101 184.82317C175.48577 185.00452 174.25762 185.1567 173.9766 184.33898 163.89966 184.69335 154.78907 184.4066 144.3159 185.21063 133.01015 185.31925 133.78189 184.53022 134.39212 174.86614 133.76686 173.55718 134.6308 171.20066 134.22151 168.88378 134.17046 160.22283 133.44293 159.00147 140.34467 151.89397 145.19174 148.15293 149.38787 144.57772 152.41516 141.4274 159.33132 132.98795 158.8223 134.04854 170.25687 133.29187 170.76093 133.37937 172.11838 134.78266 174.34207 134.43373 185.06862 133.72911 185.37662 133.50153 184.8771 144.51357 184.25765 155.02231 184.64528 165.3655 185.13945 174.82726 184.9979 185.53916 184.89138 185.83301 175.55101 184.82317Z"/>
</svg>
