<svg xmlns="http://www.w3.org/2000/svg" xmlns:xlink="http://www.w3.org/1999/xlink" xmlns:inkscape="http://www.inkscape.org/namespaces/inkscape" version="1.1" width="143.71038" height="143.08953" viewBox="0 0 143.71038 143.08953">
<defs>
<path id="font_5_1" d="M.71598818 0V.0309906H.69200137C.61499026 .0309906 .61299136 .041992189 .61299136 .07797241V.6046448C.61299136 .640625 .61499026 .6516113 .69200137 .6516113H.71598818V.6826172C.68099978 .6796112 .6069946 .6796112 .56900027 .6796112 .5309906 .6796112 .45599366 .6796112 .42099 .6826172V.6516113H.44499208C.5219879 .6516113 .5239868 .640625 .5239868 .6046448V.37083436H.22499085V.6046448C.22499085 .640625 .22698975 .6516113 .3039856 .6516113H.32798768V.6826172C.29299928 .6796112 .21899414 .6796112 .18099976 .6796112 .14299011 .6796112 .067993167 .6796112 .032989503 .6826172V.6516113H.056991579C.13398743 .6516113 .13598633 .640625 .13598633 .6046448V.07797241C.13598633 .041992189 .13398743 .0309906 .056991579 .0309906H.032989503V0C.067993167 .0029907227 .14199829 .0029907227 .17999268 .0029907227 .21798706 .0029907227 .29299928 .0029907227 .32798768 0V.0309906H.3039856C.22698975 .0309906 .22499085 .041992189 .22499085 .07797241V.33984376H.5239868V.07797241C.5239868 .041992189 .5219879 .0309906 .44499208 .0309906H.42099V0C.45599366 .0029907227 .5299988 .0029907227 .56799319 .0029907227 .60598757 .0029907227 .68099978 .0029907227 .71598818 0Z"/>
<path id="font_6_2" d="M.47299195 0V.035995485H.43499757C.33499146 .035995485 .33499146 .048980714 .33499146 .081954959V.63560488C.33499146 .66259768 .33299256 .66360476 .30499269 .66360476 .24099732 .6006012 .1499939 .5996094 .10899353 .5996094V.56359866C.1329956 .56359866 .19898987 .56359866 .2539978 .5915985V.081954959C.2539978 .048980714 .2539978 .035995485 .1539917 .035995485H.115997318V0L.2939911 .0039978029 .47299195 0Z"/>
<path id="font_6_6" d="M.5289917 .1640625V.20005799H.41799928V.6460571C.41799928 .6670532 .41799928 .674057 .3959961 .674057 .38398744 .674057 .37998963 .674057 .36999513 .66004946L.038986207 .20005799V.1640625H.33299256V.08201599C.33299256 .04800415 .33299256 .035995485 .2519989 .035995485H.22499085V0L.375 .0039978029 .526001 0V.035995485H.49899293C.41799928 .035995485 .41799928 .04800415 .41799928 .08201599V.1640625H.5289917M.33999635 .20005799H.07598877L.33999635 .5660553V.20005799Z"/>
<path id="font_5_2" d="M.68499758 .45214845 .66600039 .6767578H.054992677L.035995485 .45214845H.06098938C.07499695 .6128235 .08999634 .64575198 .24099732 .64575198 .25898744 .64575198 .2849884 .64575198 .29499818 .64375308 .31599427 .6397705 .31599427 .6287842 .31599427 .60583499V.07901001C.31599427 .04499817 .31599427 .0309906 .21099854 .0309906H.17098999V0C.21199036 .0029907227 .31399537 .0029907227 .3600006 .0029907227 .4059906 .0029907227 .5089874 .0029907227 .5499878 0V.0309906H.5099945C.40499879 .0309906 .40499879 .04499817 .40499879 .07901001V.60583499C.40499879 .62579348 .40499879 .6397705 .4229889 .64375308 .43399049 .64575198 .46099855 .64575198 .47999574 .64575198 .6309967 .64575198 .6459961 .6128235 .6599884 .45214845H.68499758Z"/>
</defs>
<path transform="matrix(1,0,0,-1,-55.44981,199.24086)" d="M80.91843 70.43864C80.952388 69.687999 80.15033 69.86221 79.50254 70.19506 90.74745 71.02445 100.443599 70.01533 110.90832 70.788219 120.25254 69.62588 121.162097 70.3932 121.0777 81.03964 121.57469 89.810688 121.92763 101.662479 120.71754 111.576168 121.39473 121.6914 121.028858 120.96232 110.20772 121.77569 100.71269 120.60601 90.36481 120.59218 80.28811 121.31279 69.46418 121.10847 69.96401 120.44592 70.31715 111.49759 69.69842 101.184947 69.86381 89.947338 70.97322 80.02638 70.0531 70.547107 69.56727 69.7627 80.91843 70.43864Z" fill="#d9d9d9"/>
<path transform="matrix(1,0,0,-1,-55.44981,199.24086)" d="M134.54035 69.51235C143.03227 60.539529 174.7447 61.72395 184.5468 70.65422 194.34781 79.22879 194.43694 111.05695 184.8771 121.55294 172.12494 134.83109 152.2719 109.723148 140.49379 121.25247 140.35068 121.7612 121.11342 141.18579 121.86981 139.76302 109.07602 151.67096 134.29958 173.72469 120.809787 184.20511 111.09674 194.34235 79.0008 194.89453 69.22292 184.4891 60.21114 175.05944 60.541574 143.65349 69.662029 133.16429 82.59394 120.907588 103.46454 146.60768 114.55609 133.25786 115.093669 134.65703 133.8592 114.03265 133.08577 114.53443 146.64403 102.44375 121.57628 82.33176 134.54035 69.51235Z" fill="#d9d9d9"/>
<path transform="matrix(1,0,0,-1,-55.44981,199.24086)" d="M145.08332 134.69461C143.23699 134.86103 143.2075 134.82285 144.6889 133.88617 154.02935 134.49767 164.64539 134.40889 175.55101 133.79956 185.69048 133.98091 184.46234 134.13309 184.18132 143.5201 184.30912 154.07918 185.40323 163.99716 185.13478 175.0059 184.03376 185.31925 184.80551 184.53022 175.21102 185.07086 164.38103 185.46269 155.04024 184.80695 144.42624 184.19086 134.17046 185.73462 133.44293 184.51326 133.12883 174.41689 134.28253 164.16449 134.78528 154.07794 134.11917 144.41629 133.8195 132.98795 133.31049 134.04854 145.08332 134.69461Z" fill="#d9d9d9"/>
<path transform="matrix(1,0,0,-1,-55.44981,199.24086)" stroke-width=".75" stroke-linecap="round" stroke-linejoin="round" fill="none" stroke="#000000" d="M63.77951 63.77951H127.55902V127.55902H63.77951Z"/>
<use data-text="H" xlink:href="#font_5_1" transform="matrix(11.955193,0,0,-11.95514,11.478924,82.99407)"/>
<use data-text="H" xlink:href="#font_5_1" transform="matrix(11.955193,0,0,-11.95514,20.445319,82.99407)"/>
<use data-text="1" xlink:href="#font_6_2" transform="matrix(16.737235,0,0,-16.737118,35.459264,97.95682)"/>
<path transform="matrix(1.4999994,0,0,-1.499989,35.459264,103.57262)" stroke-width=".637259" stroke-linecap="butt" stroke-linejoin="round" fill="none" stroke="#000000" d="M0 0H6.345498"/>
<use data-text="4" xlink:href="#font_6_6" transform="matrix(16.737235,0,0,-16.737118,35.459264,117.552379)"/>
<path transform="matrix(1,0,0,-1,-55.44981,199.24086)" stroke-width=".75" stroke-linecap="round" stroke-linejoin="round" fill="none" stroke="#000000" d="M127.55903 63.77951H191.33853V127.55902H127.55903Z"/>
<use data-text="H" xlink:href="#font_5_1" transform="matrix(11.955197,0,0,-11.95514,75.25769,82.99407)"/>
<use data-text="T" xlink:href="#font_5_2" transform="matrix(11.955197,0,0,-11.95514,84.2241,82.99407)"/>
<use data-text="1" xlink:href="#font_6_2" transform="matrix(16.737235,0,0,-16.737118,99.23804,97.95682)"/>
<path transform="matrix(1.4999994,0,0,-1.499989,99.23804,103.57262)" stroke-width=".637259" stroke-linecap="butt" stroke-linejoin="round" fill="none" stroke="#000000" d="M0 0H6.345498"/>
<use data-text="4" xlink:href="#font_6_6" transform="matrix(16.737235,0,0,-16.737118,99.23804,117.552379)"/>
<path transform="matrix(1,0,0,-1,-55.449815,199.24086)" stroke-width=".75" stroke-linecap="round" stroke-linejoin="round" fill="none" stroke="#000000" d="M63.77951 127.55903H127.55902V191.33853H63.77951Z"/>
<use data-text="T" xlink:href="#font_5_2" transform="matrix(11.955197,0,0,-11.95514,11.47892,19.215302)"/>
<use data-text="H" xlink:href="#font_5_1" transform="matrix(11.955197,0,0,-11.95514,20.110573,19.215302)"/>
<use data-text="1" xlink:href="#font_6_2" transform="matrix(16.737235,0,0,-16.737118,35.45926,34.17804)"/>
<path transform="matrix(1.4999994,0,0,-1.499989,35.45926,39.79384)" stroke-width=".637259" stroke-linecap="butt" stroke-linejoin="round" fill="none" stroke="#000000" d="M0 0H6.345498"/>
<use data-text="4" xlink:href="#font_6_6" transform="matrix(16.737235,0,0,-16.737118,35.45926,53.77359)"/>
<path transform="matrix(1,0,0,-1,-55.449815,199.24086)" stroke-width=".75" stroke-linecap="round" stroke-linejoin="round" fill="none" stroke="#000000" d="M127.55903 127.55903H191.33853V191.33853H127.55903Z"/>
<use data-text="T" xlink:href="#font_5_2" transform="matrix(11.9551,0,0,-11.955142,75.25769,19.143616)"/>
<use data-text="T" xlink:href="#font_5_2" transform="matrix(11.9551,0,0,-11.955142,83.88927,19.143616)"/>
<use data-text="1" xlink:href="#font_6_2" transform="matrix(16.737235,0,0,-16.737118,99.23804,34.17804)"/>
<path transform="matrix(1.4999994,0,0,-1.499989,99.23804,39.79384)" stroke-width=".637259" stroke-linecap="butt" stroke-linejoin="round" fill="none" stroke="#000000" d="M0 0H6.345498"/>
<use data-text="4" xlink:href="#font_6_6" transform="matrix(16.737235,0,0,-16.737118,99.23804,53.77359)"/>
<path transform="matrix(1,0,0,-1,-55.449815,199.24086)" stroke-width=".75" stroke-linecap="round" stroke-linejoin="round" fill="none" stroke="#000000" d="M80.91843 70.43864C80.952388 69.687999 80.15033 69.86221 79.50254 70.19506 90.74745 71.02445 100.443599 70.01533 110.90832 70.788219 120.25254 69.62588 121.162097 70.3932 121.0777 81.03964 121.57469 89.810688 121.92763 101.662479 120.71754 111.576168 121.39473 121.6914 121.028858 120.96232 110.20772 121.77569 100.71269 120.60601 90.36481 120.59218 80.28811 121.31279 69.46418 121.10847 69.96401 120.44592 70.31715 111.49759 69.69842 101.184947 69.86381 89.947338 70.97322 80.02638 70.0531 70.547107 69.56727 69.7627 80.91843 70.43864Z"/>
<path transform="matrix(1,0,0,-1,-55.449815,199.24086)" stroke-width=".75" stroke-linecap="round" stroke-linejoin="round" fill="none" stroke="#000000" d="M134.54035 69.51235C143.03227 60.539529 174.7447 61.72395 184.5468 70.65422 194.34781 79.22879 194.43694 111.05695 184.8771 121.55294 172.12494 134.83109 152.2719 109.723148 140.49379 121.25247 140.35068 121.7612 121.11342 141.18579 121.86981 139.76302 109.07602 151.67096 134.29958 173.72469 120.809787 184.20511 111.09674 194.34235 79.0008 194.89453 69.22292 184.4891 60.21114 175.05944 60.541574 143.65349 69.662029 133.16429 82.59394 120.907588 103.46454 146.60768 114.55609 133.25786 115.093669 134.65703 133.8592 114.03265 133.08577 114.53443 146.64403 102.44375 121.57628 82.33176 134.54035 69.51235Z"/>
<path transform="matrix(1,0,0,-1,-55.449815,199.24086)" stroke-width=".75" stroke-linecap="round" stroke-linejoin="round" fill="none" stroke="#000000" d="M145.08332 134.69461C143.23699 134.86103 143.2075 134.82285 144.6889 133.88617 154.02935 134.49767 164.64539 134.40889 175.55101 133.79956 185.69048 133.98091 184.46234 134.13309 184.18132 143.5201 184.30912 154.07918 185.40323 163.99716 185.13478 175.0059 184.03376 185.31925 184.80551 184.53022 175.21102 185.07086 164.38103 185.46269 155.04024 184.80695 144.42624 184.19086 134.17046 185.73462 133.44293 184.51326 133.12883 174.41689 134.28253 164.16449 134.78528 154.07794 134.11917 144.41629 133.8195 132.98795 133.31049 134.04854 145.08332 134.69461Z"/>
</svg>
