<svg xmlns="http://www.w3.org/2000/svg" xmlns:xlink="http://www.w3.org/1999/xlink" xmlns:inkscape="http://www.inkscape.org/namespaces/inkscape" version="1.1" width="141.93611" height="141.93611" viewBox="0 0 141.93611 141.93611">
<defs>
<path id="font_7_1" d="M.71598818 0V.0309906H.69200137C.61499026 .0309906 .61299136 .041992189 .61299136 .07797241V.6046448C.61299136 .640625 .61499026 .6516113 .69200137 .6516113H.71598818V.6826172C.68099978 .6796112 .6069946 .6796112 .56900027 .6796112 .5309906 .6796112 .45599366 .6796112 .42099 .6826172V.6516113H.44499208C.5219879 .6516113 .5239868 .640625 .5239868 .6046448V.37083436H.22499085V.6046448C.22499085 .640625 .22698975 .6516113 .3039856 .6516113H.32798768V.6826172C.29299928 .6796112 .21899414 .6796112 .18099976 .6796112 .14299011 .6796112 .067993167 .6796112 .032989503 .6826172V.6516113H.056991579C.13398743 .6516113 .13598633 .640625 .13598633 .6046448V.07797241C.13598633 .041992189 .13398743 .0309906 .056991579 .0309906H.032989503V0C.067993167 .0029907227 .14199829 .0029907227 .17999268 .0029907227 .21798706 .0029907227 .29299928 .0029907227 .32798768 0V.0309906H.3039856C.22698975 .0309906 .22499085 .041992189 .22499085 .07797241V.33984376H.5239868V.07797241C.5239868 .041992189 .5219879 .0309906 .44499208 .0309906H.42099V0C.45599366 .0029907227 .5299988 .0029907227 .56799319 .0029907227 .60598757 .0029907227 .68099978 .0029907227 .71598818 0Z"/>
<path id="font_8_2" d="M.47299195 0V.035995485H.43499757C.33499146 .035995485 .33499146 .048980714 .33499146 .081954959V.63560488C.33499146 .66259768 .33299256 .66360476 .30499269 .66360476 .24099732 .6006012 .1499939 .5996094 .10899353 .5996094V.56359866C.1329956 .56359866 .19898987 .56359866 .2539978 .5915985V.081954959C.2539978 .048980714 .2539978 .035995485 .1539917 .035995485H.115997318V0L.2939911 .0039978029 .47299195 0Z"/>
<path id="font_8_6" d="M.5289917 .1640625V.20005799H.41799928V.6460571C.41799928 .6670532 .41799928 .674057 .3959961 .674057 .38398744 .674057 .37998963 .674057 .36999513 .66004946L.038986207 .20005799V.1640625H.33299256V.08201599C.33299256 .04800415 .33299256 .035995485 .2519989 .035995485H.22499085V0L.375 .0039978029 .526001 0V.035995485H.49899293C.41799928 .035995485 .41799928 .04800415 .41799928 .08201599V.1640625H.5289917M.33999635 .20005799H.07598877L.33999635 .5660553V.20005799Z"/>
<path id="font_7_2" d="M.68499758 .45214845 .66600039 .6767578H.054992677L.035995485 .45214845H.06098938C.07499695 .6128235 .08999634 .64575198 .24099732 .64575198 .25898744 .64575198 .2849884 .64575198 .29499818 .64375308 .31599427 .6397705 .31599427 .6287842 .31599427 .60583499V.07901001C.31599427 .04499817 .31599427 .0309906 .21099854 .0309906H.17098999V0C.21199036 .0029907227 .31399537 .0029907227 .3600006 .0029907227 .4059906 .0029907227 .5089874 .0029907227 .5499878 0V.0309906H.5099945C.40499879 .0309906 .40499879 .04499817 .40499879 .07901001V.60583499C.40499879 .62579348 .40499879 .6397705 .4229889 .64375308 .43399049 .64575198 .46099855 .64575198 .47999574 .64575198 .6309967 .64575198 .6459961 .6128235 .6599884 .45214845H.68499758Z"/>
</defs>
<path transform="matrix(1,0,0,-1,-56.589487,198.5256)" d="M80.53157 70.21543C79.528697 70.25494 80.66834 69.72893 81.183307 70.7893 89.68004 71.06783 101.41454 71.0515 110.61668 70.014949 120.45082 69.79752 120.856098 70.9238 120.920398 80.37773 121.5787 81.38809 122.06721 83.6518 121.58501 85.77933 121.74868 96.108448 120.83014 95.406337 114.05485 103.27167 110.75901 106.40843 106.03563 110.787837 102.23098 114.65972 95.03686 122.03582 95.11433 120.47796 85.91201 121.51377 83.48654 120.50239 82.485218 120.85672 79.53303 120.339717 69.7387 120.53305 70.78938 121.94661 70.39093 110.56873 69.97519 99.90652 69.580089 91.39465 69.906368 80.113628 70.56761 71.072399 70.42603 70.278308 80.53157 70.21543Z" fill="#d9d9d9"/>
<path transform="matrix(1,0,0,-1,-56.589487,198.5256)" d="M171.62006 69.71491C172.1192 69.87357 172.5971 69.99093 172.68994 70.78392 172.85536 69.96838 172.99279 69.408359 172.71082 70.651729 185.62828 69.844829 184.11783 69.761638 185.61705 83.76832 184.75127 113.595478 184.28432 142.45854 184.52785 172.10053 184.2803 185.62592 185.75666 185.8424 171.46985 185.75478 143.15547 184.85384 112.25559 184.29694 82.85708 185.28533 70.24722 184.84087 69.55481 184.50859 70.20748 171.98998 70.62391 171.42169 69.313518 172.93955 69.33642 172.54907 69.4094 158.57161 71.04005 158.9352 79.51577 149.8981 103.8333 126.62554 126.173999 103.848598 149.53052 78.49562 159.51212 69.33841 158.67569 69.31623 171.62006 69.71491Z" fill="#d9d9d9"/>
<path transform="matrix(1,0,0,-1,-56.589487,198.5256)" stroke-width=".75" stroke-linecap="round" stroke-linejoin="round" fill="none" stroke="#000000" d="M63.77951 63.77951H127.55902V127.55902H63.77951Z"/>
<use data-text="H" xlink:href="#font_7_1" transform="matrix(11.955193,0,0,-11.95514,10.339249,82.27883)"/>
<use data-text="H" xlink:href="#font_7_1" transform="matrix(11.955193,0,0,-11.95514,19.305645,82.27883)"/>
<use data-text="1" xlink:href="#font_8_2" transform="matrix(16.737235,0,0,-16.737118,34.319589,97.24156)"/>
<path transform="matrix(1.4999994,0,0,-1.499989,34.319589,102.85736)" stroke-width=".637259" stroke-linecap="butt" stroke-linejoin="round" fill="none" stroke="#000000" d="M0 0H6.345498"/>
<use data-text="4" xlink:href="#font_8_6" transform="matrix(16.737235,0,0,-16.737118,34.319589,116.83713)"/>
<path transform="matrix(1,0,0,-1,-56.589487,198.5256)" stroke-width=".75" stroke-linecap="round" stroke-linejoin="round" fill="none" stroke="#000000" d="M127.55903 63.77951H191.33853V127.55902H127.55903Z"/>
<use data-text="H" xlink:href="#font_7_1" transform="matrix(11.955197,0,0,-11.95514,74.11802,82.27883)"/>
<use data-text="T" xlink:href="#font_7_2" transform="matrix(11.955197,0,0,-11.95514,83.08443,82.27883)"/>
<use data-text="1" xlink:href="#font_8_2" transform="matrix(16.737235,0,0,-16.737118,98.098369,97.24156)"/>
<path transform="matrix(1.4999994,0,0,-1.499989,98.098369,102.85736)" stroke-width=".637259" stroke-linecap="butt" stroke-linejoin="round" fill="none" stroke="#000000" d="M0 0H6.345498"/>
<use data-text="4" xlink:href="#font_8_6" transform="matrix(16.737235,0,0,-16.737118,98.098369,116.83713)"/>
<path transform="matrix(1,0,0,-1,-56.589487,198.5256)" stroke-width=".75" stroke-linecap="round" stroke-linejoin="round" fill="none" stroke="#000000" d="M63.77951 127.55903H127.55902V191.33853H63.77951Z"/>
<use data-text="T" xlink:href="#font_7_2" transform="matrix(11.955197,0,0,-11.95514,10.339249,18.500046)"/>
<use data-text="H" xlink:href="#font_7_1" transform="matrix(11.955197,0,0,-11.95514,18.970904,18.500046)"/>
<use data-text="1" xlink:href="#font_8_2" transform="matrix(16.737235,0,0,-16.737118,34.319589,33.462785)"/>
<path transform="matrix(1.4999994,0,0,-1.499989,34.319589,39.078584)" stroke-width=".637259" stroke-linecap="butt" stroke-linejoin="round" fill="none" stroke="#000000" d="M0 0H6.345498"/>
<use data-text="4" xlink:href="#font_8_6" transform="matrix(16.737235,0,0,-16.737118,34.319589,53.05835)"/>
<path transform="matrix(1,0,0,-1,-56.589487,198.5256)" stroke-width=".75" stroke-linecap="round" stroke-linejoin="round" fill="none" stroke="#000000" d="M127.55903 127.55903H191.33853V191.33853H127.55903Z"/>
<use data-text="T" xlink:href="#font_7_2" transform="matrix(11.9551,0,0,-11.955142,74.11802,18.42836)"/>
<use data-text="T" xlink:href="#font_7_2" transform="matrix(11.9551,0,0,-11.955142,82.7496,18.42836)"/>
<use data-text="1" xlink:href="#font_8_2" transform="matrix(16.737235,0,0,-16.737118,98.098369,33.462785)"/>
<path transform="matrix(1.4999994,0,0,-1.499989,98.098369,39.078584)" stroke-width=".637259" stroke-linecap="butt" stroke-linejoin="round" fill="none" stroke="#000000" d="M0 0H6.345498"/>
<use data-text="4" xlink:href="#font_8_6" transform="matrix(16.737235,0,0,-16.737118,98.098369,53.05835)"/>
<path transform="matrix(1,0,0,-1,-56.589487,198.5256)" stroke-width=".75" stroke-linecap="round" stroke-linejoin="round" fill="none" stroke="#000000" d="M80.53157 70.21543C79.528697 70.25494 80.66834 69.72893 81.183307 70.7893 89.68004 71.06783 101.41454 71.0515 110.61668 70.014949 120.45082 69.79752 120.856098 70.9238 120.920398 80.37773 121.5787 81.38809 122.06721 83.6518 121.58501 85.77933 121.74868 96.108448 120.83014 95.406337 114.05485 103.27167 110.75901 106.40843 106.03563 110.787837 102.23098 114.65972 95.03686 122.03582 95.11433 120.47796 85.91201 121.51377 83.48654 120.50239 82.485218 120.85672 79.53303 120.339717 69.7387 120.53305 70.78938 121.94661 70.39093 110.56873 69.97519 99.90652 69.580089 91.39465 69.906368 80.113628 70.56761 71.072399 70.42603 70.278308 80.53157 70.21543Z"/>
<path transform="matrix(1,0,0,-1,-56.589487,198.5256)" stroke-width=".75" stroke-linecap="round" stroke-linejoin="round" fill="none" stroke="#000000" d="M171.62006 69.71491C172.1192 69.87357 172.5971 69.99093 172.68994 70.78392 172.85536 69.96838 172.99279 69.408359 172.71082 70.651729 185.62828 69.844829 184.11783 69.761638 185.61705 83.76832 184.75127 113.595478 184.28432 142.45854 184.52785 172.10053 184.2803 185.62592 185.75666 185.8424 171.46985 185.75478 143.15547 184.85384 112.25559 184.29694 82.85708 185.28533 70.24722 184.84087 69.55481 184.50859 70.20748 171.98998 70.62391 171.42169 69.313518 172.93955 69.33642 172.54907 69.4094 158.57161 71.04005 158.9352 79.51577 149.8981 103.8333 126.62554 126.173999 103.848598 149.53052 78.49562 159.51212 69.33841 158.67569 69.31623 171.62006 69.71491Z"/>
</svg>
