<svg xmlns="http://www.w3.org/2000/svg" xmlns:xlink="http://www.w3.org/1999/xlink" xmlns:inkscape="http://www.inkscape.org/namespaces/inkscape" version="1.1" width="205.71489" height="141.93611" viewBox="0 0 205.71489 141.93611">
<defs>
<path id="font_1_1" d="M.60398867 .37164308C.60398867 .39759828 .598999 .41955567 .58399966 .43252564 .5779877 .43852235 .56999209 .44151307 .5609894 .44151307 .548996 .44151307 .5359955 .43551637 .526001 .4255371 .5169983 .41555787 .5119934 .4045868 .5119934 .39360047 .5119934 .38362123 .5159912 .37564088 .522995 .36865235 .5479889 .34669496 .5609894 .31575013 .5609894 .28082276 .5609894 .2688446 .55999758 .25587464 .5569916 .24389649 .5339966 .15307617 .47599793 .06124878 .39698792 .06124878 .34098817 .06124878 .30799867 .09918213 .29899598 .15107727 .31199647 .17901612 .32199098 .20896912 .32899476 .23890686 .33099366 .24787903 .33299256 .25686646 .33299256 .2648468 .33299256 .27981568 .32798768 .290802 .31399537 .290802 .29499818 .290802 .2849884 .26585389 .27999879 .24389649 .27198792 .21295166 .2679901 .18301392 .2669983 .154068 .23399353 .10017395 .18598938 .06124878 .1309967 .06124878 .069992069 .06124878 .04399109 .11116028 .04399109 .17402649 .04399109 .19398499 .04699707 .21694947 .051986696 .23890686 .066986087 .29878236 .102996829 .3546753 .14099121 .4075775 .14399719 .41156007 .1459961 .41654969 .1459961 .4205475 .1459961 .4265442 .14199829 .4315338 .13699341 .43452455 .13398743 .43652345 .1309967 .43652345 .12799073 .43652345 .12199402 .43652345 .114990238 .43351747 .10998535 .427536 .068984989 .37065126 .04399109 .30677796 .027999878 .24389649 .017990113 .20596314 .0129852299 .16703797 .0129852299 .1321106 .0129852299 .051254274 .041992189-.0107421879 .117996219-.0107421879 .18099976-.0107421879 .23298645 .0332489 .2709961 .095184329 .28199769 .0332489 .31698609-.0107421879 .38398744-.0107421879 .48799134-.0107421879 .5509949 .118133548 .58099368 .23890686 .59199526 .28181459 .60398867 .33172608 .60398867 .37164308Z"/>
<path id="font_1_2" d="M.47299195 0V.035995485H.43499757C.33499146 .035995485 .33499146 .048980714 .33499146 .081954959V.63560488C.33499146 .66259768 .33299256 .66360476 .30499269 .66360476 .24099732 .6006012 .1499939 .5996094 .10899353 .5996094V.56359866C.1329956 .56359866 .19898987 .56359866 .2539978 .5915985V.081954959C.2539978 .048980714 .2539978 .035995485 .1539917 .035995485H.115997318V0L.2939911 .0039978029 .47299195 0Z"/>
<path id="font_1_3" d="M.5049896 .18203736H.47099305C.46798707 .16001892 .45799256 .100997928 .44499208 .09098816 .43699647 .084991458 .3600006 .084991458 .34599305 .084991458H.1619873C.2669983 .17803955 .3019867 .20603943 .3619995 .25306703 .43598939 .312088 .5049896 .374115 .5049896 .46914674 .5049896 .5900879 .39898683 .6640625 .2709961 .6640625 .14698792 .6640625 .06298828 .57710269 .06298828 .4851532 .06298828 .43414308 .10598755 .42915345 .115997318 .42915345 .13999939 .42915345 .16899109 .44615174 .16899109 .48214723 .16899109 .5001526 .1619873 .53515627 .10998535 .53515627 .14099121 .6060791 .20899964 .62805178 .2559967 .62805178 .35598756 .62805178 .4079895 .5501404 .4079895 .46914674 .4079895 .38212586 .34599305 .3130951 .31399537 .27708436L.07299805 .038986207C.06298828 .02999878 .06298828 .027999878 .06298828 0H.47499085L.5049896 .18203736Z"/>
<path id="font_1_4" d="M.5049896 .20124817C.5049896 .31445313 .4189911 .41862489 .29499818 .41862489 .25099183 .41862489 .19898987 .4076233 .15499878 .36956788V.5588074C.20599365 .5458069 .23599243 .5458069 .2519989 .5458069 .38398744 .5458069 .46199037 .6358032 .46199037 .6508026 .46199037 .6618042 .45498658 .6648102 .44999696 .6648102 .44999696 .6648102 .44599916 .6648102 .44198609 .6618042 .41799928 .6528015 .36499024 .6328125 .29100038 .6328125 .2630005 .6328125 .20999146 .6348114 .14498902 .6598053 .1349945 .6648102 .13198853 .6648102 .13198853 .6648102 .11898804 .6648102 .11898804 .6538086 .11898804 .6378021V.34251405C.11898804 .32548524 .11898804 .3134613 .1349945 .3134613 .14399719 .3134613 .14498902 .3154602 .15499878 .32748414 .19799805 .38259889 .25898744 .390625 .2939911 .390625 .35398866 .390625 .3809967 .34251405 .38598634 .33450318 .4039917 .30143739 .4099884 .26335145 .4099884 .20524597 .4099884 .17524719 .4099884 .116256717 .37998963 .07234192 .35499574 .03640747 .31199647 .012466431 .2630005 .012466431 .19799805 .012466431 .1309967 .04838562 .10598755 .11425781 .14399719 .11125183 .16299439 .13624573 .16299439 .16325379 .16299439 .20625305 .12599182 .21424866 .11299133 .21424866 .11299133 .21424866 .06298828 .21424866 .06298828 .1602478 .06298828 .07034302 .14498902-.01953125 .2649994-.01953125 .3929901-.01953125 .5049896 .07533264 .5049896 .20124817Z"/>
<path id="font_1_5" d="M.5139923 .1733551C.5139923 .25134278 .44999696 .3293152 .33999635 .35232545 .44499208 .3903656 .48298646 .46548463 .48298646 .52656558 .48298646 .6056824 .3919983 .6647339 .2809906 .6647339 .16999817 .6647339 .084991458 .6107025 .084991458 .5305786 .084991458 .496521 .10699463 .4774933 .13699341 .4774933 .16799927 .4774933 .18798828 .50053408 .18798828 .5285797 .18798828 .5576172 .16799927 .5786438 .13699341 .58065798 .17199707 .6247101 .24099732 .6357422 .27799989 .6357422 .32299806 .6357422 .38598634 .61369326 .38598634 .52656558 .38598634 .48451234 .37199403 .4384308 .34599305 .4073944 .31298829 .369339 .2849884 .36732484 .23498535 .36431886 .20999146 .36231996 .20799256 .36231996 .20298767 .36132813 .20298767 .36132813 .19299317 .35931397 .19299317 .34832765 .19299317 .33432008 .20199585 .33432008 .21899414 .33432008H.272995C.35099793 .33432008 .40699769 .28033448 .40699769 .1733551 .40699769 .04940796 .33499146 .012466431 .2769928 .012466431 .23699951 .012466431 .14898682 .0234375 .10699463 .082351688 .1539917 .084350589 .16499329 .11735535 .16499329 .13835144 .16499329 .17034912 .14099121 .19335938 .10998535 .19335938 .08198547 .19335938 .053985597 .17634583 .053985597 .13534546 .053985597 .041412355 .1579895-.01953125 .2789917-.01953125 .41799928-.01953125 .5139923 .07336426 .5139923 .1733551Z"/>
<path id="font_1_6" d="M.5289917 .1640625V.20005799H.41799928V.6460571C.41799928 .6670532 .41799928 .674057 .3959961 .674057 .38398744 .674057 .37998963 .674057 .36999513 .66004946L.038986207 .20005799V.1640625H.33299256V.08201599C.33299256 .04800415 .33299256 .035995485 .2519989 .035995485H.22499085V0L.375 .0039978029 .526001 0V.035995485H.49899293C.41799928 .035995485 .41799928 .04800415 .41799928 .08201599V.1640625H.5289917M.33999635 .20005799H.07598877L.33999635 .5660553V.20005799Z"/>
<path id="font_1_7" d="M.5139923 .20445252C.5139923 .33145143 .41299439 .42546083 .29599 .42546083 .21598816 .42546083 .17199707 .37245179 .1499939 .3274536 .1499939 .40945436 .15699768 .48353578 .19499207 .5446167 .22898865 .5986786 .2829895 .6357422 .34700013 .6357422 .3769989 .6357422 .4169922 .6277313 .43699647 .60069277 .4119873 .5986786 .3909912 .58166506 .3909912 .55262759 .3909912 .5275879 .4079895 .5055542 .43798829 .5055542 .46798707 .5055542 .48599244 .525589 .48599244 .55462649 .48599244 .6127014 .44400025 .6647339 .34498597 .6647339 .20098877 .6647339 .053985597 .5325928 .053985597 .3174591 .053985597 .05845642 .17599488-.01953125 .28599549-.01953125 .4079895-.01953125 .5139923 .07345581 .5139923 .20445252M.41799928 .20445252C.41799928 .14746094 .41799928 .10545349 .3909912 .066467288 .36698915 .031463624 .33499146 .012466431 .28599549 .012466431 .23599243 .012466431 .19699097 .04145813 .17599488 .08546448 .16099549 .11546326 .15299988 .16545105 .15299988 .22544861 .15299988 .32244874 .21099854 .39746095 .29100038 .39746095 .33699037 .39746095 .36799623 .37945558 .3929901 .342453 .4169922 .30445863 .41799928 .26245118 .41799928 .20445252Z"/>
</defs>
<path transform="matrix(1,0,0,-1,-56.589487,198.5256)" d="M145.83737 69.60126C146.33962 70.03783 144.9311 70.734279 144.54868 69.304508 175.94214 71.037288 206.1198 69.50164 237.1007 70.425708 249.39756 71.006298 247.78945 70.11875 249.68633 82.4564 248.33585 92.0509 249.61998 100.59371 248.82547 110.51111 249.4722 122.097568 248.10233 122.36885 236.94002 121.56663 224.14525 121.5908 209.65248 121.47325 197.51155 121.560398 185.2343 122.18379 185.26497 121.42305 184.80843 133.62482 185.16493 146.33783 185.08419 159.90207 185.48035 173.00949 185.42955 184.45984 185.73085 184.17583 173.79239 185.77452 163.79122 184.72472 155.66835 184.44301 144.9644 185.86562 134.60897 184.03057 133.2181 184.23291 133.96639 172.64759 132.99456 142.2798 133.6431 111.769229 134.0693 82.455379 134.88625 71.09226 134.79833 69.610378 145.83737 69.60126Z" fill="#d9d9d9"/>
<path transform="matrix(1,0,0,-1,-56.589487,198.5256)" stroke-width=".75" stroke-linecap="round" stroke-linejoin="round" fill="none" stroke="#000000" d="M63.77951 63.77951H127.55902V127.55902H63.77951Z"/>
<use data-text="&#x1d714;" xlink:href="#font_1_1" transform="matrix(11.95516,0,0,-11.955169,10.339249,79.399219)"/>
<use data-text="1" xlink:href="#font_1_2" transform="matrix(8.368617,0,0,-8.368623,17.771277,81.191509)"/>
<use data-text="2" xlink:href="#font_1_3" transform="matrix(16.737235,0,0,-16.737118,34.319646,97.24156)"/>
<path transform="matrix(1.4999995,0,0,-1.499989,29.560524,102.85736)" stroke-width=".637259" stroke-linecap="butt" stroke-linejoin="round" fill="none" stroke="#000000" d="M0 0H12.690995"/>
<use data-text="1" xlink:href="#font_1_2" transform="matrix(16.737235,0,0,-16.737118,29.560524,116.83713)"/>
<use data-text="5" xlink:href="#font_1_4" transform="matrix(16.737235,0,0,-16.737118,39.084016,116.83713)"/>
<path transform="matrix(1,0,0,-1,-56.589487,198.5256)" stroke-width=".75" stroke-linecap="round" stroke-linejoin="round" fill="none" stroke="#000000" d="M127.55903 63.77951H191.33853V127.55902H127.55903Z"/>
<use data-text="&#x1d714;" xlink:href="#font_1_1" transform="matrix(11.95516,0,0,-11.955169,74.11802,79.399219)"/>
<use data-text="2" xlink:href="#font_1_3" transform="matrix(8.368617,0,0,-8.368623,81.55004,81.191509)"/>
<use data-text="2" xlink:href="#font_1_3" transform="matrix(16.737235,0,0,-16.737118,98.09843,97.24156)"/>
<path transform="matrix(1.4999995,0,0,-1.499989,93.33932,102.85736)" stroke-width=".637259" stroke-linecap="butt" stroke-linejoin="round" fill="none" stroke="#000000" d="M0 0H12.690995"/>
<use data-text="1" xlink:href="#font_1_2" transform="matrix(16.737235,0,0,-16.737118,93.33932,116.83713)"/>
<use data-text="5" xlink:href="#font_1_4" transform="matrix(16.737235,0,0,-16.737118,102.8628,116.83713)"/>
<path transform="matrix(1,0,0,-1,-56.589487,198.5256)" stroke-width=".75" stroke-linecap="round" stroke-linejoin="round" fill="none" stroke="#000000" d="M191.33853 63.77951H255.11804V127.55902H191.33853Z"/>
<use data-text="&#x1d714;" xlink:href="#font_1_1" transform="matrix(11.95516,0,0,-11.955168,137.89679,79.399219)"/>
<use data-text="3" xlink:href="#font_1_5" transform="matrix(8.368617,0,0,-8.368622,145.32883,81.191509)"/>
<use data-text="2" xlink:href="#font_1_3" transform="matrix(16.737235,0,0,-16.737118,161.87718,97.24156)"/>
<path transform="matrix(1.4999995,0,0,-1.499989,157.11808,102.85736)" stroke-width=".637259" stroke-linecap="butt" stroke-linejoin="round" fill="none" stroke="#000000" d="M0 0H12.690995"/>
<use data-text="1" xlink:href="#font_1_2" transform="matrix(16.737235,0,0,-16.737118,157.11808,116.83713)"/>
<use data-text="5" xlink:href="#font_1_4" transform="matrix(16.737235,0,0,-16.737118,166.64156,116.83713)"/>
<path transform="matrix(1,0,0,-1,-56.589494,198.5256)" stroke-width=".75" stroke-linecap="round" stroke-linejoin="round" fill="none" stroke="#000000" d="M63.77951 127.55903H127.55902V191.33853H63.77951Z"/>
<use data-text="&#x1d714;" xlink:href="#font_1_1" transform="matrix(11.95516,0,0,-11.955169,10.339241,15.620438)"/>
<use data-text="4" xlink:href="#font_1_6" transform="matrix(8.368617,0,0,-8.368623,17.771269,17.412735)"/>
<use data-text="2" xlink:href="#font_1_3" transform="matrix(16.737235,0,0,-16.737118,34.319639,33.462785)"/>
<path transform="matrix(1.4999995,0,0,-1.499989,29.560517,39.078584)" stroke-width=".637259" stroke-linecap="butt" stroke-linejoin="round" fill="none" stroke="#000000" d="M0 0H12.690995"/>
<use data-text="1" xlink:href="#font_1_2" transform="matrix(16.737235,0,0,-16.737118,29.560517,53.05835)"/>
<use data-text="5" xlink:href="#font_1_4" transform="matrix(16.737235,0,0,-16.737118,39.084009,53.05835)"/>
<path transform="matrix(1,0,0,-1,-56.589494,198.5256)" stroke-width=".75" stroke-linecap="round" stroke-linejoin="round" fill="none" stroke="#000000" d="M127.55903 127.55903H191.33853V191.33853H127.55903Z"/>
<use data-text="&#x1d714;" xlink:href="#font_1_1" transform="matrix(11.95516,0,0,-11.955168,74.11801,15.620438)"/>
<use data-text="5" xlink:href="#font_1_4" transform="matrix(8.368617,0,0,-8.368622,81.55003,17.41272)"/>
<use data-text="2" xlink:href="#font_1_3" transform="matrix(16.737235,0,0,-16.737118,98.09842,33.462785)"/>
<path transform="matrix(1.4999995,0,0,-1.499989,93.33931,39.078584)" stroke-width=".637259" stroke-linecap="butt" stroke-linejoin="round" fill="none" stroke="#000000" d="M0 0H12.690995"/>
<use data-text="1" xlink:href="#font_1_2" transform="matrix(16.737235,0,0,-16.737118,93.33931,53.05835)"/>
<use data-text="5" xlink:href="#font_1_4" transform="matrix(16.737235,0,0,-16.737118,102.86279,53.05835)"/>
<path transform="matrix(1,0,0,-1,-56.589494,198.5256)" stroke-width=".75" stroke-linecap="round" stroke-linejoin="round" fill="none" stroke="#000000" d="M191.33853 127.55903H255.11804V191.33853H191.33853Z"/>
<use data-text="&#x1d714;" xlink:href="#font_1_1" transform="matrix(11.95516,0,0,-11.955168,137.89679,15.620438)"/>
<use data-text="6" xlink:href="#font_1_7" transform="matrix(8.368617,0,0,-8.368622,145.32883,17.41272)"/>
<use data-text="1" xlink:href="#font_1_2" transform="matrix(16.737235,0,0,-16.737118,161.87715,33.462785)"/>
<path transform="matrix(1.4999994,0,0,-1.499989,161.87715,39.078584)" stroke-width=".637259" stroke-linecap="butt" stroke-linejoin="round" fill="none" stroke="#000000" d="M0 0H6.345498"/>
<use data-text="3" xlink:href="#font_1_5" transform="matrix(16.737235,0,0,-16.737118,161.87715,53.05835)"/>
<path transform="matrix(1,0,0,-1,-56.589494,198.5256)" stroke-width=".75" stroke-linecap="round" stroke-linejoin="round" fill="none" stroke="#000000" d="M145.83737 69.60126C146.33962 70.03783 144.9311 70.734279 144.54868 69.304508 175.94214 71.037288 206.1198 69.50164 237.1007 70.425708 249.39756 71.006298 247.78945 70.11875 249.68633 82.4564 248.33585 92.0509 249.61998 100.59371 248.82547 110.51111 249.4722 122.097568 248.10233 122.36885 236.94002 121.56663 224.14525 121.5908 209.65248 121.47325 197.51155 121.560398 185.2343 122.18379 185.26497 121.42305 184.80843 133.62482 185.16493 146.33783 185.08419 159.90207 185.48035 173.00949 185.42955 184.45984 185.73085 184.17583 173.79239 185.77452 163.79122 184.72472 155.66835 184.44301 144.9644 185.86562 134.60897 184.03057 133.2181 184.23291 133.96639 172.64759 132.99456 142.2798 133.6431 111.769229 134.0693 82.455379 134.88625 71.09226 134.79833 69.610378 145.83737 69.60126Z"/>
</svg>
