<svg xmlns="http://www.w3.org/2000/svg" xmlns:xlink="http://www.w3.org/1999/xlink" xmlns:inkscape="http://www.inkscape.org/namespaces/inkscape" version="1.1" width="588.06088" height="110.69158" viewBox="0 0 588.06088 110.69158">
<defs>
<path id="font_0_1" d="M.10798645 .2979889H.7589874V.35198976H.10798645V.2979889Z"/>
<path id="font_0_2" d="M.4099884 .5469971C.4099884 .5209961 .40499879 .49299623 .397995 .47099305 .37998963 .4229889 .34799195 .3829956 .2599945 .30099488L.20899964 .2519989C.17098999 .21699524 .14898682 .19099427 .1269989 .1559906 .10598755 .12098694 .09599304 .100997928 .07798767 .04798889V0H.5089874V.083999637H.15699768C.16299439 .12998963 .16899109 .147995 .19198609 .18299866 .21998596 .22499085 .24598694 .24899292 .31199647 .29499818L.36999513 .33499146C.47299195 .40499879 .5119934 .46398927 .5119934 .54599 .5119934 .6599884 .4189911 .7409973 .28799439 .7409973 .23098755 .7409973 .1619873 .72499087 .09498596 .69699099V.5649872H.14299011V.57699587C.14698792 .647995 .147995 .6519928 .1539917 .6629944 .1579895 .6689911 .16499329 .6749878 .1749878 .68099978 .20498657 .69898989 .24099732 .70999148 .2769928 .70999148 .35699464 .70999148 .4099884 .6459961 .4099884 .5469971Z"/>
<path id="font_0_3" d="M.2559967 .57499697V.1269989L.25299073 .07798767C.25099183 .039993287 .24699402 .035995485 .20799256 .032989503L.1749878 .0309906 .116989139 .02999878V0H.4909973V.02999878L.43399049 .0309906 .40098573 .032989503C.3619995 .035995485 .35798646 .039993287 .35499574 .07798767L.35198976 .1269989V.72898867L.116989139 .66999819V.6399994L.1659851 .6489868 .20899964 .6569977C.21699524 .6579895 .22599793 .6589966 .23399353 .6589966 .24899292 .6589966 .25099183 .6549988 .25299073 .6239929L.2559967 .57499697Z"/>
<path id="font_0_4" d="M.3039856-.018005372C.45799256-.018005372 .5569916 .12998963 .5569916 .35899354 .5569916 .59199526 .45899964 .7409973 .3039856 .7409973 .1499939 .7409973 .050994874 .59199526 .050994874 .35899354 .050994874 .12998963 .15098572-.018005372 .3039856-.018005372M.3039856 .011993408C.2539978 .011993408 .20698548 .051986696 .18399048 .114990238 .1599884 .1789856 .15299988 .23298645 .15299988 .36099244 .15299988 .48999024 .16099549 .5499878 .18399048 .60798647 .20899964 .6719971 .2539978 .71099856 .3019867 .71099856 .35398866 .71099856 .40098573 .67099 .4249878 .60798647 .44799806 .54499819 .45498658 .48999024 .45498658 .36099244 .45498658 .23298645 .44799806 .17399597 .4249878 .114990238 .39898683 .049987794 .35499574 .011993408 .3039856 .011993408Z"/>
<path id="font_0_5" d="M.23999024 .17999268C.26098634 .21899414 .2669983 .22799683 .30999757 .2899933 .34298707 .33599855 .37098695 .37399293 .3959961 .40299989 .42900086 .44299317 .47099305 .46998597 .49899293 .46998597 .5289917 .46998597 .54499819 .44299317 .54499819 .3929901 .54499819 .31799317 .5039978 .18598938 .45799256 .10998535 .43099977 .066986087 .3880005 .041992189 .33999635 .041992189 .31199647 .041992189 .2669983 .049987794 .23999024 .05999756 .23498535 .06199646 .22799683 .06498718 .21798706 .068984989L.23999024 .17999268M.20498657 0C.21199036-.0010070801 .21699524-.0020141602 .22099304-.0020141602 .23999024-.0040130617 .25-.006011963 .2519989-.006011963 .2599945-.007003784 .2669983-.007003784 .2749939-.007003784 .35499574-.007003784 .44099427 .034988405 .5119934 .10798645 .59399417 .19400025 .647995 .31399537 .647995 .4139862 .647995 .49198915 .6069946 .5419922 .5439911 .5419922 .5009918 .5419922 .46199037 .522995 .4139862 .47898866 .35598756 .42599488 .33999635 .40299989 .2749939 .2869873L.2630005 .2649994H.25698854L.31199647 .5419922 .07998657 .46398927 .07398987 .43399049C.11199951 .44499208 .13798523 .45098878 .15299988 .45098878 .17298889 .45098878 .18399048 .43499757 .18399048 .40899659 .18399048 .397995 .18199158 .38398744 .17999268 .36799623L.17098999 .31298829 .06599426-.2110138H.16299439L.20498657 0Z"/>
<path id="font_0_6" d="M.33799745-.2110138 .57499697-.14001465 .58200076-.10600281C.5529938-.11500549 .5169983-.1230011 .5009918-.1230011 .47698976-.1230011 .46798707-.11100769 .46798707-.08000183 .46798707-.053009035 .47399903-.010009766 .48799134 .05899048L.58200076 .5299988C.5569916 .5329895 .5529938 .5329895 .5019989 .5349884 .47499085 .5359955 .45599366 .5359955 .44400025 .5359955 .33599855 .5359955 .2599945 .5019989 .18399048 .42199708 .099990848 .33198548 .04798889 .21499634 .04798889 .115997318 .04798889 .037994386 .08799744-.012008667 .1499939-.012008667 .21499634-.012008667 .2939911 .04899597 .36299134 .1519928 .38598634 .18598938 .3959961 .20498657 .42599488 .2649994H.43299867L.33799745-.2110138M.44898988 .34899903C.43299867 .30999757 .42799378 .30299378 .38198854 .23999024 .34399415 .18699646 .31599427 .14898682 .29699708 .12599182 .2659912 .08799744 .22399903 .05999756 .19499207 .05999756 .16699219 .05999756 .15098572 .08699036 .15098572 .13598633 .15098572 .21099854 .19198609 .34498597 .23799134 .41999818 .2639923 .46299745 .30699159 .48799134 .35299684 .48799134 .3809967 .48799134 .4269867 .47898866 .45199586 .46899415 .45599366 .46798707 .46199037 .46499635 .47099305 .45999146L.44898988 .34899903Z"/>
</defs>
<path transform="matrix(1.5,0,0,-1.5,95.82156,55.05941)" d="M19.6694 0C19.6694 10.86324 10.86324 19.6694 0 19.6694-10.86324 19.6694-19.6694 10.86324-19.6694 0-19.6694-10.86324-10.86324-19.6694 0-19.6694 10.86324-19.6694 19.6694-10.86324 19.6694 0ZM0 0" fill="#d9d9ff"/>
<path transform="matrix(1.5,0,0,-1.5,95.82156,55.05941)" stroke-width="1.5" stroke-linecap="butt" stroke-miterlimit="10" stroke-linejoin="miter" fill="none" stroke="#0000bf" d="M19.6694 0C19.6694 10.86324 10.86324 19.6694 0 19.6694-10.86324 19.6694-19.6694 10.86324-19.6694 0-19.6694-10.86324-10.86324-19.6694 0-19.6694 10.86324-19.6694 19.6694-10.86324 19.6694 0ZM0 0"/>
<use data-text="&#x2212;" xlink:href="#font_0_1" transform="matrix(17.932755,0,0,-17.932755,82.603427,61.699846)" fill="#0000e6"/>
<use data-text="2" xlink:href="#font_0_2" transform="matrix(17.932755,0,0,-17.932755,98.15113,61.699846)" fill="#0000e6"/>
<use data-text="&#x2212;" xlink:href="#font_0_1" stroke-width=".020074999" stroke-linecap="butt" stroke-miterlimit="10" stroke-linejoin="miter" transform="matrix(17.932755,0,0,-17.932755,82.603427,61.699846)" fill="none" stroke="#0000e6"/>
<use data-text="2" xlink:href="#font_0_2" stroke-width=".020074999" stroke-linecap="butt" stroke-miterlimit="10" stroke-linejoin="miter" transform="matrix(17.932755,0,0,-17.932755,98.15113,61.699846)" fill="none" stroke="#0000e6"/>
<path transform="matrix(1.5,0,0,-1.5,95.82156,55.05941)" d="M88.85506 0C88.85506 10.86324 80.04889 19.6694 69.18564 19.6694 58.3224 19.6694 49.51622 10.86324 49.51622 0 49.51622-10.86324 58.3224-19.6694 69.18564-19.6694 80.04889-19.6694 88.85506-10.86324 88.85506 0ZM69.18564 0" fill="#d9d9ff"/>
<path transform="matrix(1.5,0,0,-1.5,95.82156,55.05941)" stroke-width="1.5" stroke-linecap="butt" stroke-miterlimit="10" stroke-linejoin="miter" fill="none" stroke="#0000bf" d="M88.85506 0C88.85506 10.86324 80.04889 19.6694 69.18564 19.6694 58.3224 19.6694 49.51622 10.86324 49.51622 0 49.51622-10.86324 58.3224-19.6694 69.18564-19.6694 80.04889-19.6694 88.85506-10.86324 88.85506 0ZM69.18564 0"/>
<use data-text="&#x2212;" xlink:href="#font_0_1" transform="matrix(17.932755,0,0,-17.932755,186.38056,61.592309)" fill="#0000e6"/>
<use data-text="1" xlink:href="#font_0_3" transform="matrix(17.932755,0,0,-17.932755,201.92826,61.592309)" fill="#0000e6"/>
<use data-text="&#x2212;" xlink:href="#font_0_1" stroke-width=".020074999" stroke-linecap="butt" stroke-miterlimit="10" stroke-linejoin="miter" transform="matrix(17.932755,0,0,-17.932755,186.38056,61.592309)" fill="none" stroke="#0000e6"/>
<use data-text="1" xlink:href="#font_0_3" stroke-width=".020074999" stroke-linecap="butt" stroke-miterlimit="10" stroke-linejoin="miter" transform="matrix(17.932755,0,0,-17.932755,201.92826,61.592309)" fill="none" stroke="#0000e6"/>
<path transform="matrix(1.5,0,0,-1.5,95.82156,55.05941)" d="M154.54814 0C154.54814 9.89879 146.5238 17.92313 136.625 17.92313 126.72621 17.92313 118.70187 9.89879 118.70187 0 118.70187-9.89879 126.72621-17.92313 136.625-17.92313 146.5238-17.92313 154.54814-9.89879 154.54814 0ZM136.625 0" fill="#d9d9ff"/>
<path transform="matrix(1.5,0,0,-1.5,95.82156,55.05941)" stroke-width="1.5" stroke-linecap="butt" stroke-miterlimit="10" stroke-linejoin="miter" fill="none" stroke="#0000bf" d="M154.54814 0C154.54814 9.89879 146.5238 17.92313 136.625 17.92313 126.72621 17.92313 118.70187 9.89879 118.70187 0 118.70187-9.89879 126.72621-17.92313 136.625-17.92313 146.5238-17.92313 154.54814-9.89879 154.54814 0ZM136.625 0"/>
<use data-text="0" xlink:href="#font_0_4" transform="matrix(17.932755,0,0,-17.932755,295.30787,61.53854)" fill="#0000e6"/>
<use data-text="0" xlink:href="#font_0_4" stroke-width=".020074999" stroke-linecap="butt" stroke-miterlimit="10" stroke-linejoin="miter" transform="matrix(17.932755,0,0,-17.932755,295.30787,61.53854)" fill="none" stroke="#0000e6"/>
<path transform="matrix(1.5,0,0,-1.5,95.82156,55.05941)" d="M220.24123 0C220.24123 9.89879 212.21689 17.92313 202.31809 17.92313 192.4193 17.92313 184.39496 9.89879 184.39496 0 184.39496-9.89879 192.4193-17.92313 202.31809-17.92313 212.21689-17.92313 220.24123-9.89879 220.24123 0ZM202.31809 0" fill="#d9d9ff"/>
<path transform="matrix(1.5,0,0,-1.5,95.82156,55.05941)" stroke-width="1.5" stroke-linecap="butt" stroke-miterlimit="10" stroke-linejoin="miter" fill="none" stroke="#0000bf" d="M220.24123 0C220.24123 9.89879 212.21689 17.92313 202.31809 17.92313 192.4193 17.92313 184.39496 9.89879 184.39496 0 184.39496-9.89879 192.4193-17.92313 202.31809-17.92313 212.21689-17.92313 220.24123-9.89879 220.24123 0ZM202.31809 0"/>
<use data-text="1" xlink:href="#font_0_3" transform="matrix(17.932755,0,0,-17.932755,393.84626,61.592309)" fill="#0000e6"/>
<use data-text="1" xlink:href="#font_0_3" stroke-width=".020074999" stroke-linecap="butt" stroke-miterlimit="10" stroke-linejoin="miter" transform="matrix(17.932755,0,0,-17.932755,393.84626,61.592309)" fill="none" stroke="#0000e6"/>
<path transform="matrix(1.5,0,0,-1.5,95.82156,55.05941)" d="M285.9343 0C285.9343 9.89879 277.90998 17.92313 268.01118 17.92313 258.11238 17.92313 250.08805 9.89879 250.08805 0 250.08805-9.89879 258.11238-17.92313 268.01118-17.92313 277.90998-17.92313 285.9343-9.89879 285.9343 0ZM268.01118 0" fill="#d9d9ff"/>
<path transform="matrix(1.5,0,0,-1.5,95.82156,55.05941)" stroke-width="1.5" stroke-linecap="butt" stroke-miterlimit="10" stroke-linejoin="miter" fill="none" stroke="#0000bf" d="M285.9343 0C285.9343 9.89879 277.90998 17.92313 268.01118 17.92313 258.11238 17.92313 250.08805 9.89879 250.08805 0 250.08805-9.89879 258.11238-17.92313 268.01118-17.92313 277.90998-17.92313 285.9343-9.89879 285.9343 0ZM268.01118 0"/>
<use data-text="2" xlink:href="#font_0_2" transform="matrix(17.932755,0,0,-17.932755,492.3846,61.699846)" fill="#0000e6"/>
<use data-text="2" xlink:href="#font_0_2" stroke-width=".020074999" stroke-linecap="butt" stroke-miterlimit="10" stroke-linejoin="miter" transform="matrix(17.932755,0,0,-17.932755,492.3846,61.699846)" fill="none" stroke="#0000e6"/>
<path transform="matrix(1.5,0,0,-1.5,95.82156,55.05941)" stroke-width="1" stroke-linecap="butt" stroke-miterlimit="10" stroke-linejoin="miter" fill="none" stroke="#000000" d=""/>
<path transform="matrix(1.5,0,0,-1.5,95.82156,55.05941)" stroke-width="1" stroke-linecap="butt" stroke-miterlimit="10" stroke-linejoin="miter" fill="none" stroke="#000000" d="M86.86911 10.20938C98.42213 16.48499 109.24248 16.20366 118.89299 10.29233"/>
<path transform="matrix(1.279035,.78345,.78345,-1.279035,274.16105,39.620916)" stroke-width=".8" stroke-linecap="round" stroke-linejoin="round" fill="none" stroke="#000000" d="M-1.73685 2.3158C-1.59212 1.44737 0 .14473 .4342 0 0-.14473-1.59212-1.44737-1.73685-2.3158"/>
<use data-text="&#x1d45d;" xlink:href="#font_0_5" transform="matrix(17.932755,0,0,-17.932755,245.10547,22.502167)"/>
<path transform="matrix(1.5,0,0,-1.5,95.82156,55.05941)" stroke-width="1" stroke-linecap="butt" stroke-miterlimit="10" stroke-linejoin="miter" fill="none" stroke="#000000" d="M152.79618 9.33627C164.05951 15.83914 174.88358 15.83914 184.56169 10.2515"/>
<path transform="matrix(1.299015,.74997,.74997,-1.299015,372.6641,39.68216)" stroke-width=".8" stroke-linecap="round" stroke-linejoin="round" fill="none" stroke="#000000" d="M-1.73685 2.3158C-1.59212 1.44737 0 .14473 .4342 0 0-.14473-1.59212-1.44737-1.73685-2.3158"/>
<use data-text="&#x1d45d;" xlink:href="#font_0_5" transform="matrix(17.932755,0,0,-17.932755,343.62715,23.234177)"/>
<path transform="matrix(1.5,0,0,-1.5,95.82156,55.05941)" stroke-width="1" stroke-linecap="butt" stroke-miterlimit="10" stroke-linejoin="miter" fill="none" stroke="#000000" d="M218.48926 9.33627C229.7526 15.83914 240.57666 15.83914 250.25478 10.2515"/>
<path transform="matrix(1.299015,.74997,.74997,-1.299015,471.20375,39.68216)" stroke-width=".8" stroke-linecap="round" stroke-linejoin="round" fill="none" stroke="#000000" d="M-1.73685 2.3158C-1.59212 1.44737 0 .14473 .4342 0 0-.14473-1.59212-1.44737-1.73685-2.3158"/>
<use data-text="&#x1d45d;" xlink:href="#font_0_5" transform="matrix(17.932755,0,0,-17.932755,442.16548,23.234177)"/>
<path transform="matrix(1.5,0,0,-1.5,95.82156,55.05941)" stroke-width="1" stroke-linecap="butt" stroke-miterlimit="10" stroke-linejoin="miter" fill="none" stroke="#000000" d="M186.14693-9.33627C174.88358-15.83914 164.05951-15.83914 154.38141-10.2515"/>
<path transform="matrix(-1.299015,-.74997,-.74997,1.299015,327.39369,70.43666)" stroke-width=".8" stroke-linecap="round" stroke-linejoin="round" fill="none" stroke="#000000" d="M-1.73685 2.3158C-1.59212 1.44737 0 .14473 .4342 0 0-.14473-1.59212-1.44737-1.73685-2.3158"/>
<use data-text="&#x1d45e;" xlink:href="#font_0_6" transform="matrix(17.932755,0,0,-17.932755,344.11103,92.70959)"/>
<path transform="matrix(1.5,0,0,-1.5,95.82156,55.05941)" stroke-width="1" stroke-linecap="butt" stroke-miterlimit="10" stroke-linejoin="miter" fill="none" stroke="#000000" d="M120.45384-9.33627C109.24248-16.20366 98.42213-16.48499 88.47755-11.08304"/>
<path transform="matrix(-1.31805,-.71592,-.71592,1.31805,228.53789,71.68398)" stroke-width=".8" stroke-linecap="round" stroke-linejoin="round" fill="none" stroke="#000000" d="M-1.73685 2.3158C-1.59212 1.44737 0 .14473 .4342 0 0-.14473-1.59212-1.44737-1.73685-2.3158"/>
<use data-text="&#x1d45e;" xlink:href="#font_0_6" transform="matrix(17.932755,0,0,-17.932755,245.58939,93.441608)"/>
<path transform="matrix(1.5,0,0,-1.5,95.82156,55.05941)" stroke-width="1" stroke-linecap="butt" stroke-miterlimit="10" stroke-linejoin="miter" fill="none" stroke="#000000" d="M51.50217-10.20938C40.08073-16.80353 29.10489-16.80353 19.26869-11.1246"/>
<path transform="matrix(-1.299015,-.74997,-.74997,1.299015,124.724597,71.74631)" stroke-width=".8" stroke-linecap="round" stroke-linejoin="round" fill="none" stroke="#000000" d="M-1.73685 2.3158C-1.59212 1.44737 0 .14473 .4342 0 0-.14473-1.59212-1.44737-1.73685-2.3158"/>
<use data-text="&#x1d45e;" xlink:href="#font_0_6" transform="matrix(17.932755,0,0,-17.932755,141.79553,94.121898)"/>
<path transform="matrix(1.5,0,0,-1.5,95.82156,55.05941)" stroke-width="1" stroke-linecap="butt" stroke-miterlimit="10" stroke-linejoin="miter" fill="none" stroke="#000000" d=""/>
<path transform="matrix(1.5,0,0,-1.5,95.82156,55.05941)" stroke-width="1" stroke-linecap="butt" stroke-miterlimit="10" stroke-linejoin="miter" fill="none" stroke="#000000" d="M-19.72366-5.2843C-51.57094-13.81784-51.57094 13.81784-21.49179 5.75801"/>
<path transform="matrix(1.448895,.38818497,.38818497,-1.448895,63.583879,46.422395)" stroke-width=".8" stroke-linecap="round" stroke-linejoin="round" fill="none" stroke="#000000" d="M-1.73685 2.3158C-1.59212 1.44737 0 .14473 .4342 0 0-.14473-1.59212-1.44737-1.73685-2.3158"/>
<use data-text="1" xlink:href="#font_0_3" transform="matrix(17.932755,0,0,-17.932755,12.787956,61.592309)"/>
<path transform="matrix(1.5,0,0,-1.5,95.82156,55.05941)" stroke-width="1" stroke-linecap="butt" stroke-miterlimit="10" stroke-linejoin="miter" fill="none" stroke="#000000" d="M286.04808 4.83238C315.172 12.6362 315.172-12.6362 287.8162-5.30609"/>
<path transform="matrix(-1.448895,-.38818497,-.38818497,1.448895,527.5459,63.018548)" stroke-width=".8" stroke-linecap="round" stroke-linejoin="round" fill="none" stroke="#000000" d="M-1.73685 2.3158C-1.59212 1.44737 0 .14473 .4342 0 0-.14473-1.59212-1.44737-1.73685-2.3158"/>
<use data-text="1" xlink:href="#font_0_3" transform="matrix(17.932755,0,0,-17.932755,564.37576,61.592309)"/>
</svg>
